<svg viewBox="0 0 800 800" xmlns="http://www.w3.org/2000/svg"><path d="M582.6901035062466,579.3804605737726 L582.6901109315037,579.3802867698703 M582.6886354465049,579.3813938977512 L582.6886428717459,579.3812200938396 M582.6901035062466,579.3804605737726 L582.6886354465049,579.3813938977512 M582.6901109315037,579.3802867698703 L582.6886428717459,579.3812200938396 M567.9923920817573,588.7245806513374 L567.9923993443023,588.7244067537354 M582.6886354465049,579.3813938977512 L567.9923920817573,588.7245806513374 M582.6886428717459,579.3812200938396 L567.9923993443023,588.7244067537354 M-69.6174460040142,219.7805754481542 L-69.61744616785842,219.7804054430025 M567.9923920817573,588.7245806513374 L-69.6174460040142,219.7805754481542 M567.9923993443023,588.7244067537354 L-69.61744616785842,219.7804054430025 M-54.886377807453925,211.27558925941946 L-54.88637780743761,211.27541934866252 M-69.6174460040142,219.7805754481542 L-54.886377807453925,211.27558925941946 M-69.61744616785842,219.7804054430025 L-54.88637780743761,211.27541934866252 M-27.828419115020893,226.89750552268026 L-27.82841881374634,226.8973354387012 M-54.886377807453925,211.27558925941946 L-27.828419115020893,226.89750552268026 M-54.88637780743761,211.27541934866252 L-27.82841881374634,226.8973354387012 M-26.796879663064317,227.49476768206358 L-26.796879350280392,227.49459759147584 M-27.828419115020893,226.89750552268026 L-27.484919370450427,227.09677105001123 M-27.484919370450427,227.09677105001123 L-27.141071947698265,227.29585898847932 M-27.141071947698265,227.29585898847932 L-26.796879663064317,227.49476768206358 M-27.82841881374634,226.8973354387012 L-27.484919065343433,227.0966009638271 M-27.484919065343433,227.0966009638271 L-27.141071638754852,227.29568890009233 M-27.141071638754852,227.29568890009233 L-26.796879350280392,227.49459759147584 M415.47161473586164,311.39682612912185 L415.4716200305123,311.3966551204737 M-26.796879663064317,227.49476768206358 L-12.417244519871701,235.47964055714743 M-12.417244519871701,235.47964055714743 L2.5180357645714366,243.15010328259018 M2.5180357645714366,243.15010328259018 L17.985885307122942,250.49250474770105 M17.985885307122942,250.49250474770105 L33.96213377839683,257.493704618439 M33.96213377839683,257.493704618439 L50.42156002098318,264.14110862575455 M50.42156002098318,264.14110862575455 L67.33791620426996,270.42269008348956 M67.33791620426996,270.42269008348956 L84.68402195107444,276.32704781004446 M84.68402195107444,276.32704781004446 L102.43175838030209,281.8434044554405 M102.43175838030209,281.8434044554405 L120.5521800287986,286.96166939405106 M120.5521800287986,286.96166939405106 L139.01548774698483,291.6724107528977 M139.01548774698483,291.6724107528977 L157.79119065996883,295.9669572475147 M157.79119065996883,295.9669572475147 L176.84807535703612,299.8373463967751 M176.84807535703612,299.8373463967751 L196.15432873483792,303.27639670871037 M196.15432873483792,303.27639670871037 L215.6775915792456,306.2777136016367 M215.6775915792456,306.2777136016367 L235.3849818912429,308.8356858954923 M235.3849818912429,308.8356858954923 L255.24328108845646,310.94554763168475 M255.24328108845646,310.94554763168475 L275.2188536625714,312.60334070727555 M275.2188536625714,312.60334070727555 L295.2778352179856,313.80596099464674 M295.2778352179856,313.80596099464674 L315.3861663378117,314.55115997361537 M315.3861663378117,314.55115997361537 L335.509636612476,314.8375117149974 M335.509636612476,314.8375117149974 L355.6140485925059,314.664498349403 M355.6140485925059,314.664498349403 L375.6652047526211,314.03245434136977 M375.6652047526211,314.03245434136977 L395.62902062472176,312.9425426649214 M395.62902062472176,312.9425426649214 L415.47161473586164,311.39682612912185 M-26.796879350280392,227.49459759147584 L-12.417244046482324,235.4794703783079 M-12.417244046482324,235.4794703783079 L2.5180364050735307,243.14993301914825 M2.5180364050735307,243.14993301914825 L17.985886120984105,250.4923344034355 M17.985886120984105,250.4923344034355 L33.96213477158619,257.4935341972515 M33.96213477158619,257.4935341972515 L50.421561199177916,264.14093813166426 M50.421561199177916,264.14093813166426 L67.33791757283939,270.42251952062634 M67.33791757283939,270.42251952062634 L84.684023515067,276.32687718264293 M84.684023515067,276.32687718264293 L102.43176014443043,281.84323376783317 M102.43176014443043,281.84323376783317 L120.55218199742797,286.96149865066195 M120.55218199742797,286.96149865066195 L139.0154899241203,291.67223995823554 M139.0154899241203,291.67223995823554 L157.79119304924404,295.9667864061656 M157.79119304924404,295.9667864061656 L176.84807796170332,299.8371755133961 M176.84807796170332,299.8371755133961 L196.15433155775816,303.2762257880221 M196.15433155775816,303.2762257880221 L215.67759462288132,306.2775426484161 M215.67759462288132,306.2775426484161 L235.38498515764923,308.8355149145656 M235.38498515764923,308.8355149145656 L255.24328457927686,310.94537662791976 M255.24328457927686,310.94537662791976 L275.2188573790311,312.6031696855749 M275.2188573790311,312.6031696855749 L295.27783916088856,313.80578995993983 M295.27783916088856,313.80578995993983 L315.3861705075376,314.5509889308514 M315.3861705075376,314.5509889308514 L335.5096410089784,314.83734066913786 M335.5096410089784,314.83734066913786 L355.6140532153129,314.66432730541374 M355.6140532153129,314.66432730541374 L375.66520960083585,314.03228330421393 M375.66520960083585,314.03228330421393 L395.6290256970243,312.9423716395519 M395.6290256970243,312.9423716395519 L415.4716200305123,311.3966551204737 M417.2266070985605,310.86732817966447 L417.22661241260334,310.867157176746 M415.47161473586164,311.39682612912185 L415.45391167624814,311.25662186190135 M415.45391167624814,311.25662186190135 L415.4907883832482,311.11885728715237 M415.4907883832482,311.11885728715237 L415.58031889558606,310.9906295463251 M415.58031889558606,310.9906295463251 L415.7178791543513,310.8786025387171 M415.7178791543513,310.8786025387171 L415.8963255704492,310.7885682187515 M415.8963255704492,310.7885682187515 L416.10643399994626,310.72518094970576 M416.10643399994626,310.72518094970576 L416.3373290234906,310.69172512842323 M416.3373290234906,310.69172512842323 L416.57702905457506,310.6899226460584 M416.57702905457506,310.6899226460584 L416.81315932608277,310.7198865301098 M416.81315932608277,310.7198865301098 L417.03349378750397,310.7800677461495 M417.03349378750397,310.7800677461495 L417.2266070985605,310.86732817966447 M415.4716200305123,311.3966551204737 L415.45391697060404,311.2564508547703 M415.45391697060404,311.2564508547703 L415.4907936779249,311.11868628151194 M415.4907936779249,311.11868628151194 L415.58032419118297,310.99045854207225 M415.58032419118297,310.99045854207225 L415.7178844514199,310.87843153567655 M415.7178844514199,310.87843153567655 L415.8963308694648,310.7883972166854 M415.8963308694648,310.7883972166854 L416.1064393012832,310.7250099483256 M416.1064393012832,310.7250099483256 L416.3373343274038,310.6915541274052 M416.3373343274038,310.6915541274052 L416.5770343611848,310.68975164505974 M416.5770343611848,310.68975164505974 L416.81316463537087,310.719715528787 M416.81316463537087,310.719715528787 L417.0334990993133,310.7798967441753 M417.0334990993133,310.7798967441753 L417.22661241260334,310.867157176746 M417.54399725803796,311.2097108442102 L417.5440025758884,311.2095398375867 M417.2266070985605,310.86732817966447 L417.37235219954084,310.9683130183783 M417.37235219954084,310.9683130183783 L417.47973613029853,311.08415415900834 M417.47973613029853,311.08415415900834 L417.54399725803796,311.2097108442102 M417.22661241260334,310.867157176746 L417.3723575152935,310.968142014367 M417.3723575152935,310.968142014367 L417.4797414473395,311.0839831537435 M417.4797414473395,311.0839831537435 L417.5440025758884,311.2095398375867 M869.6174356461071,396.96543230052407 L869.6174461678585,396.96526037665353 M417.54399725803796,311.2097108442102 L437.3777830491068,309.6646855889818 M437.3777830491068,309.6646855889818 L457.32167201533923,308.57600219111515 M457.32167201533923,308.57600219111515 L477.3487869222721,307.9449509161158 M477.3487869222721,307.9449509161158 L497.43214341537896,307.7722518177475 M497.43214341537896,307.7722518177475 L517.5447305061739,308.0581027786455 M517.5447305061739,308.0581027786455 L537.6595094840444,308.80219321138367 M537.6595094840444,308.80219321138367 L557.7493482298556,310.0036169623597 M557.7493482298556,310.0036169623597 L577.7872574910849,311.66101679806 M577.7872574910849,311.66101679806 L597.7461023731806,313.77240866026915 M597.7461023731806,313.77240866026915 L617.5989782991059,316.3353506670392 M617.5989782991059,316.3353506670392 L637.3189245606874,319.34679171585043 M637.3189245606874,319.34679171585043 L656.8791660032874,322.80323863685635 M656.8791660032874,322.80323863685635 L676.2529801203106,326.7005358569005 M676.2529801203106,326.7005358569005 L695.4137901562104,331.03412417840775 M695.4137901562104,331.03412417840775 L714.3352852603513,335.79883170945834 M714.3352852603513,335.79883170945834 L732.9912008186899,340.9889305721558 M732.9912008186899,340.9889305721558 L751.3555139031893,346.59821998000075 M751.3555139031893,346.59821998000075 L769.4026247552316,352.61994789268147 M769.4026247552316,352.61994789268147 L787.1069315551239,359.0468255256311 M787.1069315551239,359.0468255256311 L804.4432661631243,365.87096033885166 M804.4432661631243,365.87096033885166 L821.3868126764909,373.08405799836964 M821.3868126764909,373.08405799836964 L837.9130506036137,380.67720616697795 M837.9130506036137,380.67720616697795 L853.997826186965,388.6409810423439 M853.997826186965,388.6409810423439 L869.6174356461071,396.96543230052407 M417.5440025758884,311.2095398375867 L437.3777885891078,309.66451459908 M437.3777885891078,309.66451459908 L457.3216777789802,308.5758312130002 M457.3216777789802,308.5758312130002 L477.34879291078016,307.94477994483464 M477.34879291078016,307.94477994483464 L497.43214962971786,307.7720808483367 M497.43214962971786,307.7720808483367 L517.5447369470443,308.057931806139 M517.5447369470443,308.057931806139 L537.6595161518821,308.8020222308196 M537.6595161518821,308.8020222308196 L557.7493551248306,310.0034459687891 M557.7493551248306,310.0034459687891 L577.7872646131019,311.6608457865534 M577.7872646131019,311.6608457865534 L597.7461097218767,313.77223762592513 M597.7461097218767,313.77223762592513 L617.5989858738511,316.3351796049911 M617.5989858738511,316.3351796049911 L637.3189323605828,319.3466206212745 M637.3189323605828,319.3466206212745 L656.8791740271662,322.8030675049785 M656.8791740271662,322.8030675049785 L676.2529883667345,326.70036468300475 M676.2529883667345,326.70036468300475 L695.413798623471,331.03395295784196 M695.413798623471,331.03395295784196 L714.33529394647,335.79866043764287 M714.33529394647,335.79866043764287 L732.9912097214147,340.98875924459014 M732.9912097214147,340.98875924459014 L751.3555230199955,346.59804859226995 M751.3555230199955,346.59804859226995 L769.4026340833235,352.6197764404636 M769.4026340833235,352.6197764404636 L787.1069410914305,359.04665400470367 M787.1069410914305,359.04665400470367 L804.4432759043015,365.87078874509893 M804.4432759043015,365.87078874509893 L821.3868226189214,373.08388632778804 M821.3868226189214,373.08388632778804 L837.9130607434066,380.6770344156828 M837.9130607434066,380.6770344156828 L853.9978365199557,388.64080920657534 M853.9978365199557,388.64080920657534 L869.6174461678585,396.96526037665353 M869.6174356461071,396.96543230052407 L582.6901035062466,579.3804605737726 M869.6174461678585,396.96526037665353 L582.6901109315037,579.3802867698703" stroke="black"  stroke-width="4"  fill="red"/></svg>