<svg viewBox="0 0 800 800" xmlns="http://www.w3.org/2000/svg"><path d="M552.5960112794837,575.499719448388 L552.5960185963592,575.4995849693495 M552.5948832411648,575.5004552094666 L552.5948905580278,575.500320730421 M552.5960112794837,575.499719448388 L552.5948832411648,575.5004552094666 M552.5960185963592,575.4995849693495 L552.5948905580278,575.500320730421 M541.3023175001675,582.8660120430716 L541.3023246923917,582.8658774922587 M552.5948832411648,575.5004552094666 L541.3023175001675,582.8660120430716 M552.5948905580278,575.500320730421 L541.3023246923917,582.8658774922587 M-79.4476724897836,223.6777218744365 L-79.44767261585537,223.67759106206864 M541.3023175001675,582.8660120430716 L-79.4476724897836,223.6777218744365 M541.3023246923917,582.8658774922587 L-79.44767261585537,223.67759106206864 M-68.11381932132355,217.13411869667044 L-68.11381932132355,217.1339879569283 M-79.4476724897836,223.6777218744365 L-68.11381932132355,217.13411869667044 M-79.44767261585537,223.67759106206864 L-68.11381932132355,217.1339879569283 M399.1204694372375,288.962414152865 L399.12047469211177,288.96228262477445 M-68.11381932132355,217.13411869667044 L-55.680508834419584,224.05710170662235 M-55.680508834419584,224.05710170662235 L-42.79249542622546,230.73100118163978 M-42.79249542622546,230.73100118163978 L-29.466939442202033,237.1452825070952 M-29.466939442202033,237.1452825070952 L-15.721803073008914,243.28976462099592 M-15.721803073008914,243.28976462099592 L-1.5758431557925405,249.1546333880358 M-1.5758431557925405,249.1546333880358 L12.951424219664887,254.73046976437706 M12.951424219664887,254.73046976437706 L27.839758298093955,260.0082731280107 M27.839758298093955,260.0082731280107 L43.06820748059994,264.97947465228935 M43.06820748059994,264.97947465228935 L58.615180827888594,269.6359788905295 M58.615180827888594,269.6359788905295 L74.45845422644243,273.97016262944885 M74.45845422644243,273.97016262944885 L90.57519449610243,277.97488903525254 M90.57519449610243,277.97488903525254 L106.94205813826079,281.64356078233504 M106.94205813826079,281.64356078233504 L123.53517309270717,284.97009823769446 M123.53517309270717,284.97009823769446 L140.33022594268527,287.9489793072782 M140.33022594268527,287.9489793072782 L157.30247516469592,290.57524038905404 M157.30247516469592,290.57524038905404 L174.4268424783868,292.8444931126563 M174.4268424783868,292.8444931126563 L191.67788928854975,294.75293644132563 M191.67788928854975,294.75293644132563 L209.0299647680206,296.29737046761113 M209.0299647680206,296.29737046761113 L226.45717558885417,297.47521186591655 M226.45717558885417,297.47521186591655 L243.93348156137233,298.28447507942667 M243.93348156137233,298.28447507942667 L261.43273205630373,298.7237883678969 M261.43273205630373,298.7237883678969 L278.92868604424496,298.7924191318309 M278.92868604424496,298.7924191318309 L296.39516613339345,298.49025976182 M296.39516613339345,298.49025976182 L313.8060106079366,297.81780732004427 M313.8060106079366,297.81780732004427 L331.1351510535005,296.7761934615254 M331.1351510535005,296.7761934615254 L348.35672242188105,295.36717230788787 M348.35672242188105,295.36717230788787 L365.4450072922331,293.5931226702759 M365.4450072922331,293.5931226702759 L382.37463007586155,291.4570032162107 M382.37463007586155,291.4570032162107 L399.1204694372375,288.962414152865 M-68.11381932132355,217.1339879569283 L-55.68050869610909,224.05697089004877 M-55.68050869610909,224.05697089004877 L-42.79249514422719,230.73087029117028 M-42.79249514422719,230.73087029117028 L-29.466939011331704,237.14515154576299 M-29.466939011331704,237.14515154576299 L-15.72180248828738,243.28963359192744 M-15.72180248828738,243.28963359192744 L-1.5758424124580301,249.15450229444662 M-1.5758424124580301,249.15450229444662 L12.951425126145807,254.73033860956724 M12.951425126145807,254.73033860956724 L27.839759372014328,260.00814191536074 M27.839759372014328,260.00814191536074 L43.06820872600218,264.97934338525545 M43.06820872600218,264.97934338525545 L58.61518224855422,269.6358475726392 M58.61518224855422,269.6358475726392 L74.45845582588242,273.97003126429587 M74.45845582588242,273.97003126429587 L90.57519627754743,277.9747576264926 M90.57519627754743,277.9747576264926 L106.94206010465336,281.6434293336807 M106.94206010465336,281.6434293336807 L123.53517524669337,284.96996675290995 M123.53517524669337,284.96996675290995 L140.3302282866075,287.94884779017514 M140.3302282866075,287.94884779017514 L157.30247770058668,290.5751088434858 M157.30247770058668,290.5751088434858 L174.42684520796286,292.84436154251335 M174.42684520796286,292.84436154251335 L191.6778922132072,294.7528048505304 M191.6778922132072,294.7528048505304 L209.0299678888308,296.29723886011277 M209.0299678888308,296.29723886011277 L226.45717890656078,297.47508024568583 M226.45717890656078,297.47508024568583 L243.9334850763887,298.284343450451 M243.9334850763887,298.284343450451 L261.4327357687117,298.723656734175 M261.4327357687117,298.723656734175 L278.9286899537933,298.7922874973676 M278.9286899537933,298.7922874973676 L296.3951702394994,298.49012813062103 M296.3951702394994,298.49012813062103 L313.8060149096865,297.8176756961111 M313.8060149096865,297.8176756961111 L331.1351555496516,296.77606184885053 M331.1351555496516,296.77606184885053 L348.356727110865,295.3670407104485 M348.356727110865,295.3670407104485 L365.44501217215907,293.59299109202993 M365.44501217215907,293.59299109202993 L382.3746351445217,291.45687166109104 M382.3746351445217,291.45687166109104 L399.12047469211177,288.96228262477445 M400.43928397586365,288.50316621115894 L400.439289245164,288.50303468804697 M399.1204694372375,288.962414152865 L399.08357365169263,288.8510011108167 M399.08357365169263,288.8510011108167 L399.0924371344362,288.73885647453454 M399.0924371344362,288.73885647453454 L399.14654181561684,288.63233626643705 M399.14654181561684,288.63233626643705 L399.2428231568017,288.5374277642326 M399.2428231568017,288.5374277642326 L399.3758645339741,288.45954537695684 M399.3758645339741,288.45954537695684 L399.53812217150914,288.4030507558843 M399.53812217150914,288.4030507558843 L399.72038844684914,288.37114081155096 M399.72038844684914,288.37114081155096 L399.9124415956454,288.3656641471979 M399.9124415956454,288.3656641471979 L400.1033223242024,288.3868658422413 M400.1033223242024,288.3868658422413 L400.28234505374223,288.43358162796335 M400.28234505374223,288.43358162796335 L400.43928397586365,288.50316621115894 M399.12047469211177,288.96228262477445 L399.08357890605373,288.8508695839339 M399.08357890605373,288.8508695839339 L399.09244238879774,288.73872494886757 M399.09244238879774,288.73872494886757 L399.14654707049294,288.63220474192474 M399.14654707049294,288.63220474192474 L399.2428284126769,288.5372962407492 M399.2428284126769,288.5372962407492 L399.3758697912766,288.45941385431786 M399.3758697912766,288.45941385431786 L399.53812743058654,288.4029192338578 M399.53812743058654,288.4029192338578 L399.720393707948,288.37100928987036 M399.720393707948,288.37100928987036 L399.91244685889944,288.36553262557675 M399.91244685889944,288.36553262557675 L400.1033275896218,288.3867343203903 M400.1033275896218,288.3867343203903 L400.2823503212162,288.4334501056058 M400.2823503212162,288.4334501056058 L400.439289245164,288.50303468804697 M400.66475998792714,288.7136362651316 L400.6647652599494,288.7135047397379 M400.43928397586365,288.50316621115894 L400.53441384567464,288.5658856915626 M400.53441384567464,288.5658856915626 L400.6103045730064,288.6367506890071 M400.6103045730064,288.6367506890071 L400.66475998792714,288.7136362651316 M400.439289245164,288.50303468804697 L400.53441911610037,288.5657541677707 M400.53441911610037,288.5657541677707 L400.6103098443481,288.636619164447 M400.6103098443481,288.636619164447 L400.6647652599494,288.7135047397379 M879.4476618275924,362.3112852620369 L879.4476726158555,362.31115294901986 M400.66475998792714,288.7136362651316 L417.39519983745504,286.22132319352477 M417.39519983745504,286.22132319352477 L434.28529213595493,284.09048399343874 M434.28529213595493,284.09048399343874 L451.3157585686889,282.32314871993793 M451.3157585686889,282.32314871993793 L468.46724173391783,280.92094380452454 M468.46724173391783,280.92094380452454 L485.7204044198171,279.88523846466774 M485.7204044198171,279.88523846466774 L503.0556504509715,279.2169641092462 M503.0556504509715,279.2169641092462 L520.4534865162071,278.91676937935284 M520.4534865162071,278.91676937935284 L537.8943232763816,278.98496038399827 M537.8943232763816,278.98496038399827 L555.3585011971941,279.42143004665144 M555.3585011971941,279.42143004665144 L572.8263904431742,280.22580055792366 M572.8263904431742,280.22580055792366 L590.2783056759147,281.3972900397646 M590.2783056759147,281.3972900397646 L607.694532460828,282.9348127464194 M607.694532460828,282.9348127464194 L625.0554064528187,284.83691549500827 M625.0554064528187,284.83691549500827 L642.3412991193602,287.1018152663986 M642.3412991193602,287.1018152663986 L659.5325356947849,289.72730333936795 M659.5325356947849,289.72730333936795 L676.6095249533355,292.71095513374974 M676.6095249533355,292.71095513374974 L693.5527657810171,296.0498898847709 M693.5527657810171,296.0498898847709 L710.3427096777473,299.7409280930767 M710.3427096777473,299.7409280930767 L726.9599761148697,303.7804823720879 M726.9599761148697,303.7804823720879 L743.3852502148584,308.1646936441921 M743.3852502148584,308.1646936441921 L759.5993537546842,312.8892794739568 M759.5993537546842,312.8892794739568 L775.5831388481824,317.9496280849659 M775.5831388481824,317.9496280849659 L791.3176148630921,323.34078935851755 M791.3176148630921,323.34078935851755 L806.7840385062323,329.0574445486399 M806.7840385062323,329.0574445486399 L821.9636846640315,335.09385443228894 M821.9636846640315,335.09385443228894 L836.8380386959982,341.4440351680073 M836.8380386959982,341.4440351680073 L851.3888334246394,348.1015816128611 M851.3888334246394,348.1015816128611 L865.598014443116,355.0597178562066 M865.598014443116,355.0597178562066 L879.4476618275924,362.3112852620369 M400.6647652599494,288.7135047397379 L417.3952052953473,286.22119169516134 M417.3952052953473,286.22119169516134 L434.2852977816974,284.09035251820376 M434.2852977816974,284.09035251820376 L451.3157644040783,282.323017263899 M451.3157644040783,282.323017263899 L468.46724776056965,280.9208123637241 M468.46724776056965,280.9208123637241 L485.7204106391662,279.8851070351277 M485.7204106391662,279.8851070351277 L503.0556568642679,279.2168326869739 M503.0556568642679,279.2168326869739 L520.4534931245191,278.9166379603457 M520.4534931245191,278.9166379603457 L537.8943300805937,278.9848289642494 M537.8943300805937,278.9848289642494 L555.3585081980065,279.42129862215523 M555.3585081980065,279.42129862215523 L572.8263976411029,280.22566912468045 M572.8263976411029,280.22566912468045 L590.2783130712896,281.39715859378657 M590.2783130712896,281.39715859378657 L607.6945400537925,282.9346812837356 M607.6945400537925,282.9346812837356 L625.0554142433293,284.8367840116695 M625.0554142433293,284.8367840116695 L642.3413071071855,287.1016837584831 M642.3413071071855,287.1016837584831 L659.5325438795035,289.7271718029873 M659.5325438795035,289.7271718029873 L676.6095333343362,292.71082356505235 M676.6095333343362,292.71082356505235 L693.5527743574976,296.04975827994843 M693.5527743574976,296.04975827994843 L710.3427184487114,299.74079644836866 M710.3427184487114,299.74079644836866 L726.9599850791283,303.78035068378716 M726.9599850791283,303.78035068378716 L743.3852593710269,308.164561908649 M743.3852593710269,308.164561908649 L759.5993631011827,312.889147687585 M759.5993631011827,312.889147687585 L775.5831483832321,317.9494962442467 M775.5831483832321,317.9494962442467 L791.3176245847155,323.34065746000437 M791.3176245847155,323.34065746000437 L806.7840484122528,329.0573125889632 M806.7840484122528,329.0573125889632 L821.9636947520703,335.09372240816197 M821.9636947520703,335.09372240816197 L836.8380489634746,341.443903076228 M836.8380489634746,341.443903076228 L851.3888438687688,348.1014494503189 M851.3888438687688,348.1014494503189 L865.5980250609095,355.0595856198854 M865.5980250609095,355.0595856198854 L879.4476726158555,362.31115294901986 M879.4476618275924,362.3112852620369 L552.5960112794837,575.499719448388 M879.4476726158555,362.31115294901986 L552.5960185963592,575.4995849693495" stroke="black"  stroke-width="4"  fill="red"/></svg>