<svg viewBox="0 0 800 800" xmlns="http://www.w3.org/2000/svg"><path d="M233.60767392490374,831.4954133994387 L239.1798585291503,828.2854562648572 M233.74644026180397,824.9160162319915 L233.68966197024082,827.1156714412011 M233.68966197024082,827.1156714412011 L233.6434078856921,829.3088273738992 M233.6434078856921,829.3088273738992 L233.60767392490374,831.4954133994387 M239.1798585291503,821.7894873510502 L233.74644026180397,824.9160162319915 M239.1798585291503,828.2854562648572 L239.1798585291503,821.7894873510502 M239.2271076924941,834.7361578490754 L244.79929228228013,831.5226321212386 M244.79929228228013,831.5226321212386 L239.1798585291503,828.2854562648572 M239.2271076924941,834.7361578490754 L233.60767392490374,831.4954133994387 M239.368997714407,828.1548583940772 L239.31117795822257,830.3551550079685 M239.31117795822257,830.3551550079685 L239.26388263467527,832.5489450429945 M239.26388263467527,832.5489450429945 L239.2271076924941,834.7361578490754 M233.74644026180397,824.9160162319915 L239.368997714407,828.1548583940772 M250.43122755655156,828.2638150179831 L239.1798585291503,821.7894873510502 M239.1798585291503,834.752562122927 L250.43122755655156,828.2638150179831 M233.55104341750098,831.506383131639 L239.1798585291503,834.752562122927 M239.368997714407,828.1548583940772 L233.55104341750098,831.506383131639 M250.41872603540997,841.255776891427 L244.79617210806958,838.0131967347846 M244.79929228228013,831.5226321212386 L244.79617210806958,838.0131967347846 M250.41872603540997,841.255776891427 L250.43122755655156,828.2638150179831 M233.55730113302258,844.5019619176154 L233.55104341750098,831.506383131639 M244.79617210806958,838.0131967347846 L233.55730113302258,844.5019619176154 M239.1798585291503,847.7517578281489 L239.1798585291503,834.752562122927 M239.1798585291503,847.7517578281489 L250.41872603540997,841.255776891427 M233.55730113302258,844.5019619176154 L239.1798585291503,847.7517578281489" stroke="black"  stroke-width="4"  fill="red"/>
<path d="" stroke="black"  stroke-width="4"  fill="red"/>
<path d="M239.2271076924941,834.7361578490754 L227.99448047663293,828.2582677608273 M244.79929228228013,831.5226321212386 L233.566661661429,825.0518732784608 M239.2271076924941,834.7361578490754 L244.79929228228013,831.5226321212386 M227.99448047663293,828.2582677608273 L233.566661661429,825.0518732784608 M244.79305539687158,844.4965576140202 L233.57288471782334,838.0185890521182 M244.79929228228013,831.5226321212386 L244.79305539687158,844.4965576140202 M233.566661661429,825.0518732784608 L233.57288471782334,838.0185890521182 M233.5604247760204,850.9889216616153 L222.34026792598644,844.4965576140202 M244.79305539687158,844.4965576140202 L233.5604247760204,850.9889216616153 M233.57288471782334,838.0185890521182 L222.34026792598644,844.4965576140202 M233.55730113302258,844.5019619176154 L222.33091779239226,838.0131967347846 M233.5604247760204,850.9889216616153 L233.55730113302258,844.5019619176154 M222.34026792598644,844.4965576140202 L222.33091779239226,838.0131967347846 M227.92961634553313,847.7511072445868 L216.70325035624472,841.2551277528029 M233.55730113302258,844.5019619176154 L227.92961634553313,847.7511072445868 M222.33091779239226,838.0131967347846 L216.70325035624472,841.2551277528029 M227.2435262842041,135.86240667721847 L215.3341421086808,129.80990873905375 M227.92961634553313,847.7511072445868 L227.2435262842041,135.86240667721847 M216.70325035624472,841.2551277528029 L215.3341421086808,129.80990873905375 M239.1798585291503,129.8105135199046 L227.27044122208372,123.77226662553312 M227.2435262842041,135.86240667721847 L239.1798585291503,129.8105135199046 M215.3341421086808,129.80990873905375 L227.27044122208372,123.77226662553312 M239.18105087466938,129.8099089834741 L227.27163356595008,123.77166351183155 M239.1798585291503,129.8105135199046 L239.18105087466938,129.8099089834741 M227.27044122208372,123.77226662553312 L227.27163356595008,123.77166351183155 M584.6658578913192,-45.355887061222006 L572.7698559915983,-50.988921661615336 M239.18105087466938,129.8099089834741 L584.6658578913192,-45.355887061222006 M227.27163356595008,123.77166351183155 L572.7698559915983,-50.988921661615336 M410.3076581699157,402.75079691744384 L398.75259184021445,396.6830672619798 M584.6658578913192,-45.355887061222006 L584.0258324127727,-29.851186699684604 M584.0258324127727,-29.851186699684604 L582.9551220947768,-14.183051296221379 M582.9551220947768,-14.183051296221379 L581.45646697485,1.6295616129244763 M581.45646697485,1.6295616129244763 L579.5330028407135,17.567768835971833 M579.5330028407135,17.567768835971833 L577.1882898061111,33.61268829194637 M577.1882898061111,33.61268829194637 L574.4263729696941,49.74543426835942 M574.4263729696941,49.74543426835942 L571.2516121732654,65.94706152926813 M571.2516121732654,65.94706152926813 L567.6687377388772,82.1988178984567 M567.6687377388772,82.1988178984567 L563.6829196313086,98.48192153190587 M563.6829196313086,98.48192153190587 L559.2996967136794,114.77762332752843 M559.2996967136794,114.77762332752843 L554.5249060192216,131.06731156025808 M554.5249060192216,131.06731156025808 L549.3648163382554,147.33246714914807 M549.3648163382554,147.33246714914807 L543.8259626000767,163.5546494205046 M543.8259626000767,163.5546494205046 L537.9153137349298,179.71547574533966 M537.9153137349298,179.71547574533966 L531.6400719579948,195.79675249487545 M531.6400719579948,195.79675249487545 L525.0078763609566,211.78043498660574 M525.0078763609566,211.78043498660574 L518.0265930575731,227.64851385731984 M518.0265930575731,227.64851385731984 L510.70443116468175,243.3832307683309 M510.70443116468175,243.3832307683309 L503.0499011126376,258.9669602966643 M503.0499011126376,258.9669602966643 L495.0718540542033,274.382216323834 M495.0718540542033,274.382216323834 L486.7793879171876,289.61168855651795 M486.7793879171876,289.61168855651795 L478.1819204348857,304.6383149576561 M478.1819204348857,304.6383149576561 L469.2891168123483,319.4451423278014 M469.2891168123483,319.4451423278014 L460.11096260539887,334.01548287855326 M460.11096260539887,334.01548287855326 L450.65769016321076,348.33290137326554 M450.65769016321076,348.33290137326554 L440.9398259652096,362.3810144903102 M440.9398259652096,362.3810144903102 L430.9681443205342,376.14387881206835 M430.9681443205342,376.14387881206835 L420.7536506694179,389.6056612231996 M420.7536506694179,389.6056612231996 L410.3076581699157,402.75079691744384 M572.7698559915983,-50.988921661615336 L572.1448507985177,-35.49506438008905 M572.1448507985177,-35.49506438008905 L571.0890693893533,-19.838190680812545 M571.0890693893533,-19.838190680812545 L569.6052330694415,-4.037245318422606 M569.6052330694415,-4.037245318422606 L567.6964593667698,11.888901343245266 M567.6964593667698,11.888901343245266 L565.366290557542,27.921380184253167 M565.366290557542,27.921380184253167 L562.6187543609467,44.04131865489376 M562.6187543609467,44.04131865489376 L559.4581935459357,60.22978479476194 M559.4581935459357,60.22978479476194 L555.8893219544411,76.46803971347799 M555.8893219544411,76.46803971347799 L551.9172934857454,92.73731508278149 M551.9172934857454,92.73731508278149 L547.547631373625,109.01887546372018 M547.547631373625,109.01887546372018 L542.78615752037,125.29412283237116 M542.78615752037,125.29412283237116 L537.6391261175067,141.544552006029 M537.6391261175067,141.544552006029 L532.1130579145612,157.75173629387226 M532.1130579145612,157.75173629387226 L526.2149081575756,173.89730730703067 M526.2149081575756,173.89730730703067 L519.9518658813064,189.96308567916208 M519.9518658813064,189.96308567916208 L513.3315575769781,205.93104122975896 M513.3315575769781,205.93104122975896 L506.36183709754573,221.78317924792523 M506.36183709754573,221.78317924792523 L499.05090191452655,237.50175617890807 M499.05090191452655,237.50175617890807 L491.4072512810725,253.06916157220377 M491.4072512810725,253.06916157220377 L483.43972566337084,268.4679245181334 M483.43972566337084,268.4679245181334 L475.1574127668092,283.68075008216385 M475.1574127668092,283.68075008216385 L466.56972067208255,298.6905917717026 M466.56972067208255,298.6905917717026 L457.6863053133368,313.48051215806674 M457.6863053133368,313.48051215806674 L448.5171435440609,328.03383943308063 M448.5171435440609,328.03383943308063 L439.07245951405935,342.33415451015554 M439.07245951405935,342.33415451015554 L429.3627718264985,356.3650905679552 M429.3627718264985,356.3650905679552 L419.3988475798933,370.1107207755246 M419.3988475798933,370.1107207755246 L409.1916853254097,383.55522889278734 M409.1916853254097,383.55522889278734 L398.75259184021445,396.6830672619798 M410.37667961498096,403.0490830578362 L398.8219436974814,396.98123254779586 M410.3076581699157,402.75079691744384 L410.34672498284056,402.83576797942453 M410.34672498284056,402.83576797942453 L410.36997769473055,402.93617753935285 M410.36997769473055,402.93617753935285 L410.37667961498096,403.0490830578362 M398.75259184021445,396.6830672619798 L398.7917637916512,396.7680211263447 M398.7917637916512,396.7680211263447 L398.8151277382358,396.8683900204784 M398.8151277382358,396.8683900204784 L398.8219436974814,396.98123254779586 M409.3273504994786,403.9548543536652 L397.7729032638572,397.88551883621307 M410.37667961498096,403.0490830578362 L410.3586064888435,403.21852913188746 M410.3586064888435,403.21852913188746 L410.3099140598712,403.39560921007285 M410.3099140598712,403.39560921007285 L410.2334035228713,403.5702199234466 M410.2334035228713,403.5702199234466 L410.1333774048776,403.73259771700685 M410.1333774048776,403.73259771700685 L410.0154856080744,403.87344321599306 M410.0154856080744,403.87344321599306 L409.88639043823025,403.98488690013374 M409.88639043823025,403.98488690013374 L409.7534099252939,404.06060022295185 M409.7534099252939,404.06060022295185 L409.6240375667529,404.09626301593244 M409.6240375667529,404.09626301593244 L409.5056161195499,404.08990618376583 M409.5056161195499,404.08990618376583 L409.4048134325267,404.04186689138726 M409.4048134325267,404.04186689138726 L409.3273504994786,403.9548543536652 M398.8219436974814,396.98123254779586 L398.8040257470991,397.1505591084783 M398.8040257470991,397.1505591084783 L398.7554785623794,397.32748782363086 M398.7554785623794,397.32748782363086 L398.6790950641348,397.50192397852385 M398.6790950641348,397.50192397852385 L398.57917069051496,397.66411379780385 M398.57917069051496,397.66411379780385 L398.4613494737217,397.8047685998552 M398.4613494737217,397.8047685998552 L398.33228982064554,397.9160295846226 M398.33228982064554,397.9160295846226 L398.1993077389135,397.99157856872057 M398.1993077389135,397.99157856872057 L398.069896763418,398.0271046777931 M398.069896763418,398.0271046777931 L397.95140189722633,398.0206465425601 M397.95140189722633,398.0206465425601 L397.85049510257056,397.97254704711787 M397.85049510257056,397.97254704711787 L397.7729032638572,397.88551883621307 M409.3273504994786,403.9548543536652 L399.03738788499527,416.8988679452129 M399.03738788499527,416.8988679452129 L388.95725409533145,430.16842397257716 M388.95725409533145,430.16842397257716 L379.1017489172631,443.74465368796325 M379.1017489172631,443.74465368796325 L369.485343100647,457.60821376872906 M369.485343100647,457.60821376872906 L360.1221407285625,471.73916975497974 M360.1221407285625,471.73916975497974 L351.0258467258463,486.11720778616086 M351.0258467258463,486.11720778616086 L342.20975534760595,500.7215474450911 M342.20975534760595,500.7215474450911 L333.68670306537007,515.5310400961723 M333.68670306537007,515.5310400961723 L325.46903976045155,530.5242170394365 M325.46903976045155,530.5242170394365 L317.5686266876301,545.6793033362368 M317.5686266876301,545.6793033362368 L309.996800883324,560.9742305763693 M309.996800883324,560.9742305763693 L302.7643480260992,576.3868097981626 M302.7643480260992,576.3868097981626 L295.88149963575796,591.8946046629239 M295.88149963575796,591.8946046629239 L289.35788632453796,607.4751164959267 M289.35788632453796,607.4751164959267 L283.20255809295236,623.1057075094108 M283.20255809295236,623.1057075094108 L277.4239268567129,638.7638126707816 M277.4239268567129,638.7638126707816 L272.02978703017334,654.4267618145404 M272.02978703017334,654.4267618145404 L267.0272903565569,670.0720348943344 M267.0272903565569,670.0720348943344 L262.4229317293987,685.6771549954236 M262.4229317293987,685.6771549954236 L258.2225418686891,701.2198215140211 M258.2225418686891,701.2198215140211 L254.4312911916286,716.677924989221 M254.4312911916286,716.677924989221 L251.05366994494557,732.0295451099016 M251.05366994494557,732.0295451099016 L248.093492475036,747.2530659591382 M248.093492475036,747.2530659591382 L245.55389681840035,762.3271722115334 M245.55389681840035,762.3271722115334 L243.43734175509172,777.2308767416349 M243.43734175509172,777.2308767416349 L241.74560943522226,791.94358451613 M241.74560943522226,791.94358451613 L240.4798092633202,806.4451073815819 M240.4798092633202,806.4451073815819 L239.6403820691316,820.7157191256396 M239.6403820691316,820.7157191256396 L239.2271076924941,834.7361578490754 M397.7729032638572,397.88551883621307 L387.489742490612,410.8124831489489 M387.489742490612,410.8124831489489 L377.41685543087044,424.06496691273344 M377.41685543087044,424.06496691273344 L367.569029582997,437.6241283085427 M367.569029582997,437.6241283085427 L357.9607228049356,451.47065111902566 M357.9607228049356,451.47065111902566 L348.60602556640293,465.5846281857322 M348.60602556640293,465.5846281857322 L339.5186286614396,479.94577296899257 M339.5186286614396,479.94577296899257 L330.7118116212108,494.53333241452344 M330.7118116212108,494.53333241452344 L322.19839568428625,509.32618516851403 M322.19839568428625,509.32618516851403 L313.99071503469935,524.3028896545864 M313.99071503469935,524.3028896545864 L306.1006147909006,539.4416978666484 M306.1006147909006,539.4416978666484 L298.53941541867033,554.7205680726444 M298.53941541867033,554.7205680726444 L291.3178857548181,570.1173375827551 M291.3178857548181,570.1173375827551 L284.4462400917012,585.6095959733061 M284.4462400917012,585.6095959733061 L277.93409159002965,601.1748699505727 M277.93409159002965,601.1748699505727 L271.79047251875807,616.7905466142327 M271.79047251875807,616.7905466142327 L266.02377696067146,632.4340851237777 M266.02377696067146,632.4340851237777 L260.6417812398539,648.0828389113227 M260.6417812398539,648.0828389113227 L255.65161898714717,663.7143107375845 M255.65161898714717,663.7143107375845 L251.0597668522047,679.3060457324111 M251.0597668522047,679.3060457324111 L246.8720373039746,694.8357644684959 M246.8720373039746,694.8357644684959 L243.09358251645006,710.2813777687874 M243.09358251645006,710.2813777687874 L239.72887448551984,725.6209846772226 M239.72887448551984,725.6209846772226 L236.78170940818325,740.8329876232438 M236.78170940818325,740.8329876232438 L234.25520726369217,755.8960886052704 M234.25520726369217,755.8960886052704 L232.1518088852963,770.7893167660213 M232.1518088852963,770.7893167660213 L230.4732786417473,785.4920922378975 M230.4732786417473,785.4920922378975 L229.2207083290388,799.9842409148606 M229.2207083290388,799.9842409148606 L228.39452138639103,814.2460494770222 M228.39452138639103,814.2460494770222 L227.99448047663293,828.2582677608273" stroke="black"  stroke-width="4"  fill="red"/></svg>