<svg viewBox="0 0 800 800" xmlns="http://www.w3.org/2000/svg"><path d="M584.4265771923216,579.8363686833219 L584.4265846380694,579.8361961091739 M584.4251198850171,579.8372960359849 L584.425127330749,579.8371234618274 M584.4265771923216,579.8363686833219 L584.4251198850171,579.8372960359849 M584.4265846380694,579.8361961091739 L584.425127330749,579.8371234618274 M569.8365079348968,589.1207107948748 L569.8365152191396,589.1205381277224 M584.4251198850171,579.8372960359849 L569.8365079348968,589.1207107948748 M584.425127330749,579.8371234618274 L569.8365152191396,589.1205381277224 M-69.249514155221,219.322532386624 L-69.24951431787247,219.3223636190176 M569.8365079348968,589.1207107948748 L-69.249514155221,219.322532386624 M569.8365152191396,589.1205381277224 L-69.24951431787247,219.3223636190176 M-54.62568013596842,210.87945787902413 L-54.625680135952166,210.8792892051253 M-69.249514155221,219.322532386624 L-54.62568013596842,210.87945787902413 M-69.24951431787247,219.3223636190176 L-54.625680135952166,210.8792892051253 M-27.772577842033343,226.3831002717502 L-27.77257754303986,226.3829314259404 M-54.62568013596842,210.87945787902413 L-27.772577842033343,226.3831002717502 M-54.625680135952166,210.8792892051253 L-27.77257754303986,226.3829314259404 M-26.740658285103848,226.98056948997817 L-26.740657974596843,226.98040063755747 M-27.772577842033343,226.3831002717502 L-27.428946347996543,226.58243497863066 M-27.428946347996543,226.58243497863066 L-27.084972230285814,226.7815919328482 M-27.084972230285814,226.7815919328482 L-26.740658285103848,226.98056948997817 M-27.77257754303986,226.3829314259404 L-27.428946045169198,226.58226613061527 M-27.428946045169198,226.58226613061527 L-27.08497192362063,226.78142308262903 M-27.08497192362063,226.78142308262903 L-26.740657974596843,226.98040063755747 M414.5350284405571,311.9750487610065 L414.53503372290015,311.97487897878403 M-26.740658285103848,226.98056948997817 L-12.387883206909635,234.95353155381423 M-12.387883206909635,234.95353155381423 L2.5149101702082817,242.6160204087102 M2.5149101702082817,242.6160204087102 L17.94513085507299,249.95462841341157 M17.94513085507299,249.95462841341157 L33.87913392089206,256.95645009406786 M33.87913392089206,256.95645009406786 L50.29224438495879,263.60910535085316 M50.29224438495879,263.60910535085316 L67.15878854500977,269.9007659586847 M67.15878854500977,269.9007659586847 L84.45217113480965,275.82020246796907 M84.45217113480965,275.82020246796907 L102.14489656575381,281.35679915931723 M102.14489656575381,281.35679915931723 L120.2086332014253,286.5005907106292 M120.2086332014253,286.5005907106292 L138.61426368767786,291.24228137268307 M138.61426368767786,291.24228137268307 L157.33190530641946,295.5732556518297 M157.33190530641946,295.5732556518297 L176.33106923102514,299.4856540404701 M176.33106923102514,299.4856540404701 L195.58057992365525,302.9723106445515 M195.58057992365525,302.9723106445515 L215.04878430971235,306.0268667272826 M215.04878430971235,306.0268667272826 L234.70352239874092,308.6437178701771 M234.70352239874092,308.6437178701771 L254.51220581917107,310.8180439595635 M254.51220581917107,310.8180439595635 L274.441897815076,312.54583811741134 M274.441897815076,312.54583811741134 L294.4594711529114,313.8239427472312 M294.4594711529114,313.8239427472312 L314.5314678754578,314.6499653486902 M314.5314678754578,314.6499653486902 L334.6244207026017,315.02240452784235 M334.6244207026017,315.02240452784235 L354.7047643332967,314.94055989587025 M354.7047643332967,314.94055989587025 L374.73891172074866,314.40458605514874 M374.73891172074866,314.40458605514874 L394.69341693381966,313.4154659139558 M394.69341693381966,313.4154659139558 L414.5350284405571,311.9750487610065 M-26.740657974596843,226.98040063755747 L-12.387882736096003,234.9533626132739 M-12.387882736096003,234.9533626132739 L2.5149108077746405,242.61585138365717 M2.5149108077746405,242.61585138365717 L17.945131665582608,249.9544593075791 M17.945131665582608,249.9544593075791 L33.879134910264725,256.9562809113103 M33.879134910264725,256.9562809113103 L50.29224555882814,263.6089360951393 M50.29224555882814,263.6089360951393 L67.15878990870863,269.90059663409284 M67.15878990870863,269.90059663409284 L84.45217269335649,275.8200330786797 M84.45217269335649,275.8200330786797 L102.14489832383902,281.35662970960766 M102.14489832383902,281.35662970960766 L120.20863516339875,286.50042120486654 M120.20863516339875,286.50042120486654 L138.61426585753702,291.2421118153175 M138.61426585753702,291.2421118153175 L157.3319076877982,295.5730860473887 M157.3319076877982,295.5730860473887 L176.3310718271839,299.48548439355045 M176.3310718271839,299.48548439355045 L195.58058273747122,302.9721409598136 M195.58058273747122,302.9721409598136 L215.04878734367207,306.0266970094423 M215.04878734367207,306.0266970094423 L234.70352565493238,308.6435481239997 M234.70352565493238,308.6435481239997 L254.51220929927797,310.81787418985624 M254.51220929927797,310.81787418985624 L274.44190152037186,312.54566832901617 M274.44190152037186,312.54566832901617 L294.4594750842567,313.8237729450177 M294.4594750842567,313.8237729450177 L314.5314720332965,314.6497955375487 M314.5314720332965,314.6497955375487 L334.62442508695983,315.022234712676 M334.62442508695983,315.022234712676 L354.7047689437819,314.9403900815883 M354.7047689437819,314.9403900815883 L374.7389165565505,314.4044162466592 M374.7389165565505,314.4044162466592 L394.69342199371135,313.4152961161581 M394.69342199371135,313.4152961161581 L414.53503372290015,311.97487897878403 M416.72644078788005,310.64553971781294 L416.72644609397935,310.6453699499719 M414.5350284405571,311.9750487610065 L416.72644078788005,310.64553971781294 M414.53503372290015,311.97487897878403 L416.72644609397935,310.6453699499719 M417.2945729650679,311.73942612005834 L417.2945782783181,311.73925634038426 M416.72644078788005,310.64553971781294 L417.2945729650679,311.73942612005834 M416.72644609397935,310.6453699499719 L417.2945782783181,311.73925634038426 M869.249503798714,398.5902453668293 L869.2495143178725,398.5900746588338 M417.2945729650679,311.73942612005834 L437.1520150495603,310.2822678458225 M437.1520150495603,310.2822678458225 L457.11347123605185,309.2780976211605 M457.11347123605185,309.2780976211605 L477.152523276784,308.7280526384274 M477.152523276784,308.7280526384274 L497.2427159602802,308.63279617276646 M497.2427159602802,308.63279617276646 L517.3574910984727,308.9924066461975 M517.3574910984727,308.9924066461975 L537.4703057056881,309.8064834742056 M537.4703057056881,309.8064834742056 L557.5545714224018,311.0741132279119 M557.5545714224018,311.0741132279119 L577.5837612017759,312.7938148905929 M577.5837612017759,312.7938148905929 L597.5312103356097,314.96361612879906 M597.5312103356097,314.96361612879906 L617.3705897425876,317.58104935213953 M617.3705897425876,317.58104935213953 L637.0754261192445,320.64309380661206 M637.0754261192445,320.64309380661206 L656.6194448278901,324.14622243937004 M656.6194448278901,324.14622243937004 L675.9763403475378,328.086355136335 M675.9763403475378,328.086355136335 L695.1201691344471,332.45893028175306 M695.1201691344471,332.45893028175306 L714.0249406905028,337.2588561841384 M714.0249406905028,337.2588561841384 L732.664981058024,342.480487942202 M732.664981058024,342.480487942202 L751.0148131189641,348.11773665297085 M751.0148131189641,348.11773665297085 L769.049101497663,354.16391163496553 M769.049101497663,354.16391163496553 L786.7428767313169,360.6118414760614 M786.7428767313169,360.6118414760614 L804.0713545186499,367.4537944963906 M804.0713545186499,367.4537944963906 L821.0101914932528,374.68163950977066 M821.0101914932528,374.68163950977066 L837.5352406103603,382.286577259654 M837.5352406103603,382.286577259654 L853.6227462006767,390.2593401642232 M853.6227462006767,390.2593401642232 L869.249503798714,398.5902453668293 M417.2945782783181,311.73925634038426 L437.1520205853318,310.2820980819119 M437.1520205853318,310.2820980819119 L457.1134769957695,309.2779278681166 M457.1134769957695,309.2779278681166 L477.152529261616,308.7278828913372 M477.152529261616,308.7278828913372 L497.2427221711373,308.6326264267073 M497.2427221711373,308.6326264267073 L517.3574975360066,308.9922368962458 M517.3574975360066,308.9922368962458 L537.4703123702919,309.8063137154435 M537.4703123702919,309.8063137154435 L557.5545783142087,311.07394345543446 M557.5545783142087,311.07394345543446 L577.5837683206586,312.7936450995164 M577.5837683206586,312.7936450995164 L597.5312176811777,314.9634463142679 M597.5312176811777,314.9634463142679 L617.3705973141911,317.5808795093335 M617.3705973141911,317.5808795093335 L637.0754339159688,320.6429239307535 M637.0754339159688,320.6429239307535 L656.6194528485574,324.14605252573153 M656.6194528485574,324.14605252573153 L675.9763485907055,328.0861851802466 M675.9763485907055,328.0861851802466 L695.1201775984076,332.4587602786088 M695.1201775984076,332.4587602786088 L714.0249493732816,337.25868612940394 M714.0249493732816,337.25868612940394 L732.6649899573805,342.4803178314213 M732.6649899573805,342.4803178314213 L751.0148222323909,348.11756648177266 M751.0148222323909,348.11756648177266 L769.049110822384,354.1637413990702 M769.049110822384,354.1637413990702 L786.7428862642879,360.6116711712883 M786.7428862642879,360.6116711712883 L804.0713642565582,367.4536241186636 M804.0713642565582,367.4536241186636 L821.0102014325176,374.681469055124 M821.0102014325176,374.681469055124 L837.535250747131,382.28640672423967 M837.535250747131,382.28640672423967 L853.6227565308342,390.2591695443166 M853.6227565308342,390.2591695443166 L869.2495143178725,398.5900746588338 M869.249503798714,398.5902453668293 L584.4265771923216,579.8363686833219 M869.2495143178725,398.5900746588338 L584.4265846380694,579.8361961091739" stroke="black"  stroke-width="4"  fill="red"/></svg>