<svg viewBox="0 0 800 800" xmlns="http://www.w3.org/2000/svg"><path d="M584.4265771923216,579.8363686833219 L584.4265846380694,579.8361961091739 M584.4251198850171,579.8372960359849 L584.425127330749,579.8371234618274 M584.4265771923216,579.8363686833219 L584.4251198850171,579.8372960359849 M584.4265846380694,579.8361961091739 L584.425127330749,579.8371234618274 M569.8365079348968,589.1207107948748 L569.8365152191396,589.1205381277224 M584.4251198850171,579.8372960359849 L569.8365079348968,589.1207107948748 M584.425127330749,579.8371234618274 L569.8365152191396,589.1205381277224 M-69.249514155221,219.322532386624 L-69.24951431787247,219.3223636190176 M569.8365079348968,589.1207107948748 L-69.249514155221,219.322532386624 M569.8365152191396,589.1205381277224 L-69.24951431787247,219.3223636190176 M-54.62568013596842,210.87945787902413 L-54.625680135952166,210.8792892051253 M-69.249514155221,219.322532386624 L-54.62568013596842,210.87945787902413 M-69.24951431787247,219.3223636190176 L-54.625680135952166,210.8792892051253 M-27.772577842033343,226.3831002717502 L-27.77257754303986,226.3829314259404 M-54.62568013596842,210.87945787902413 L-27.772577842033343,226.3831002717502 M-54.625680135952166,210.8792892051253 L-27.77257754303986,226.3829314259404 M-26.740658285103848,226.98056948997817 L-26.740657974596843,226.98040063755747 M-27.772577842033343,226.3831002717502 L-27.428946347996543,226.58243497863066 M-27.428946347996543,226.58243497863066 L-27.084972230285814,226.7815919328482 M-27.084972230285814,226.7815919328482 L-26.740658285103848,226.98056948997817 M-27.77257754303986,226.3829314259404 L-27.428946045169198,226.58226613061527 M-27.428946045169198,226.58226613061527 L-27.08497192362063,226.78142308262903 M-27.08497192362063,226.78142308262903 L-26.740657974596843,226.98040063755747 M415.2268046818599,311.91650512340607 L415.2268099719514,311.9163353418168 M-26.740658285103848,226.98056948997817 L-12.366551280992212,234.96493210728028 M-12.366551280992212,234.96493210728028 L2.5591432713642916,242.6378939565256 M2.5591432713642916,242.6378939565256 L18.01374081685941,249.98599437497825 M18.01374081685941,249.98599437497825 L33.973485424051546,256.9962709117172 M33.973485424051546,256.9962709117172 L50.41357835821526,263.6562863535729 M50.41357835821526,263.6562863535729 L67.30824558468885,269.9541736399754 M67.30824558468885,269.9541736399754 L84.6307542261294,275.8786527734536 M84.6307542261294,275.8786527734536 L102.35350071476785,281.41907914578314 M102.35350071476785,281.41907914578314 L120.4479828729767,286.56542874519926 M120.4479828729767,286.56542874519926 L138.88497202290728,291.30839154434756 M138.88497202290728,291.30839154434756 L157.6344529502353,295.63932372274644 M157.6344529502353,295.63932372274644 L176.66575910502831,299.5503241876909 M176.66575910502831,299.5503241876909 L195.94762105441305,303.03424305104795 M195.94762105441305,303.03424305104795 L215.44818460906583,306.08466765411265 M215.44818460906583,306.08466765411265 L235.1351577869733,308.6960064627847 M235.1351577869733,308.6960064627847 L254.97583109228856,310.86344666109255 M254.97583109228856,310.86344666109255 L274.9370920157771,312.5829681951037 M274.9370920157771,312.5829681951037 L294.98563739779274,313.8514012646764 M294.98563739779274,313.8514012646764 L315.0879152919589,314.66640165966953 M315.0879152919589,314.66640165966953 L335.21025988978465,315.02644456890835 M335.21025988978465,315.02644456890835 L355.3189569718428,314.93088650175144 M355.3189569718428,314.93088650175144 L375.38031400513364,314.3798870153711 M375.38031400513364,314.3798870153711 L395.3607491741361,313.37448115917834 M395.3607491741361,313.37448115917834 L415.2268046818599,311.91650512340607 M-26.740657974596843,226.98040063755747 L-12.366550809940122,234.9647631666142 M-12.366550809940122,234.9647631666142 L2.5591439094258703,242.63772493123167 M2.5591439094258703,242.63772493123167 L18.013741628138632,249.98582526880102 M18.013741628138632,249.98582526880102 L33.97348641448406,256.99610172852255 M33.97348641448406,256.99610172852255 L50.413579533449365,263.65611709734213 M50.413579533449365,263.65611709734213 L67.30824695007084,269.9540043147992 M67.30824695007084,269.9540043147992 L84.63075578668929,275.8784833835259 M84.63075578668929,275.8784833835259 L102.35350247520671,281.4189096953944 M102.35350247520671,281.4189096953944 L120.44798483765283,286.5652592387305 M120.44798483765283,286.5652592387305 L138.88497419582495,291.3082219862631 M138.88497419582495,291.3082219862631 L157.63445533503352,295.6391541175878 M157.63445533503352,295.6391541175878 L176.66576170497115,299.55015454006957 M176.66576170497115,299.55015454006957 L195.9476238723795,303.03407336563856 M195.9476238723795,303.03407336563856 L215.44818764754177,306.08449793564637 M215.44818764754177,306.08449793564637 L235.13516104804478,308.69583671604136 M235.13516104804478,308.69583671604136 L254.97583457763506,310.86327689089416 M254.97583457763506,310.86327689089416 L274.9370957266667,312.58279840630706 M274.9370957266667,312.58279840630706 L294.98564133507773,313.851231462166 M294.98564133507773,313.851231462166 L315.0879194560737,314.66623184835044 M315.0879194560737,314.66623184835044 L335.21026428074344,315.02627475369826 M335.21026428074344,315.02627475369826 L355.3189615892401,314.9307166875741 M355.3189615892401,314.9307166875741 L375.3803188481438,314.3797172071485 M375.3803188481438,314.3797172071485 L395.360754241516,313.3743113618237 M395.360754241516,313.3743113618237 L415.2268099719514,311.9163353418168 M416.9706901771982,311.39532038161735 L416.97069548656464,311.3951506056652 M415.2268046818599,311.91650512340607 L415.21099407899453,311.77766492802203 M415.21099407899453,311.77766492802203 L415.24899403290533,311.64142604583645 M415.24899403290533,311.64142604583645 L415.3388824040268,311.5148171356695 M415.3388824040268,311.5148171356695 L415.47604051714166,311.40433750396704 M415.47604051714166,311.40433750396704 L415.65338514681866,311.3156799611994 M415.65338514681866,311.3156799611994 L415.86177765966715,311.2534009276698 M415.86177765966715,311.2534009276698 L416.0905187265979,311.2207028571511 M416.0905187265979,311.2207028571511 L416.3278459551866,311.2192694329465 M416.3278459551866,311.2192694329465 L416.56152648191244,311.24917988839144 M416.56152648191244,311.24917988839144 L416.7795430374234,311.30887598715947 M416.7795430374234,311.30887598715947 L416.9706901771982,311.39532038161735 M415.2268099719514,311.9163353418168 L415.21099936881274,311.7774951479345 M415.21099936881274,311.7774951479345 L415.24899932305755,311.64125626722233 M415.24899932305755,311.64125626722233 L415.33888769510384,311.5146473584249 M415.33888769510384,311.5146473584249 L415.4760458096871,311.4041677279174 M415.4760458096871,311.4041677279174 L415.6533904412996,311.3155101861087 M415.6533904412996,311.3155101861087 L415.8617829564513,311.2532311532529 M415.8617829564513,311.2532311532529 L416.09052402593466,311.2205330830879 M416.09052402593466,311.2205330830879 L416.32785125719397,311.21909965889876 M416.32785125719397,311.21909965889876 L416.56153178657155,311.24901011402017 M416.56153178657155,311.24901011402017 L416.77954834457796,311.3087062121424 M416.77954834457796,311.3087062121424 L416.97069548656464,311.3951506056652 M417.2874623243889,311.7400405277543 L417.28746763755964,311.73987074807366 M416.9706901771982,311.39532038161735 L417.1169808034648,311.4969277285619 M417.1169808034648,311.4969277285619 L417.2241784480193,311.61360013511114 M417.2241784480193,311.61360013511114 L417.2874623243889,311.7400405277543 M416.97069548656464,311.3951506056652 L417.1169861145481,311.49675795151086 M417.1169861145481,311.49675795151086 L417.22418376039025,311.613430356798 M417.22418376039025,311.613430356798 L417.28746763755964,311.73987074807366 M869.249503798714,398.5902453668293 L869.2495143178725,398.5900746588338 M417.2874623243889,311.7400405277543 L437.1451430663029,310.2826838997822 M437.1451430663029,310.2826838997822 L457.10687247395595,309.27834850879947 M457.10687247395595,309.27834850879947 L477.14620909310145,308.72815826021235 M477.14620909310145,308.72815826021235 L497.2366852003116,308.63275656557937 M497.2366852003116,308.63275656557937 L517.3517662153155,308.9922349989999 M517.3517662153155,308.9922349989999 L537.4648877506539,309.8062061392463 M537.4648877506539,309.8062061392463 L557.5494832430196,311.07374332603854 M557.5494832430196,311.07374332603854 L577.5789332952751,312.7933390897573 M577.5789332952751,312.7933390897573 L597.526758344865,314.96307393876975 M597.526758344865,314.96307393876975 L617.366470414093,317.5804670937366 M617.366470414093,317.5804670937366 L637.0716392677701,320.6424713538206 M637.0716392677701,320.6424713538206 L656.6159212418617,324.14554639717096 M656.6159212418617,324.14554639717096 L675.9731753972204,328.08567840241267 M675.9731753972204,328.08567840241267 L695.117293818933,332.45823949542296 M695.117293818933,332.45823949542296 L714.022403123747,337.25817783853654 M714.022403123747,337.25817783853654 L732.6627603124206,342.479835316062 M732.6627603124206,342.479835316062 L751.0128883733483,348.11712308866777 M751.0128883733483,348.11712308866777 L769.0474733137886,354.16333718786257 M769.0474733137886,354.16333718786257 L786.7415728097175,360.61134635978385 M786.7415728097175,360.61134635978385 L804.0703544757413,367.4533923407125 M804.0703544757413,367.4533923407125 L821.0094476948592,374.6813037543933 M821.0094476948592,374.6813037543933 L837.5347325742765,382.28632158479013 M837.5347325742765,382.28632158479013 L853.622551061275,390.25923229037414 M853.622551061275,390.25923229037414 L869.249503798714,398.5902453668293 M417.28746763755964,311.73987074807366 L437.1451486019972,310.2825141358672 M437.1451486019972,310.2825141358672 L457.10687823359956,309.27817875575295 M457.10687823359956,309.27817875575295 L477.1462150778625,308.72798851312086 M477.1462150778625,308.72798851312086 L497.2366914111011,308.6325868195206 M497.2366914111011,308.6325868195206 L517.3517726527849,308.99206524905003 M517.3517726527849,308.99206524905003 L537.4648944151968,309.80603638048706 M537.4648944151968,309.80603638048706 L557.5494901347689,311.07357355356515 M557.5494901347689,311.07357355356515 L577.5789404141029,312.793169298686 M577.5789404141029,312.793169298686 L597.5267656903828,314.96290412424446 M597.5267656903828,314.96290412424446 L617.3664779856493,317.5802972509368 M617.3664779856493,317.5802972509368 L637.071647064451,320.6423014779687 M637.071647064451,320.6423014779687 L656.615929262489,324.14537648353985 M656.615929262489,324.14537648353985 L675.9731836403517,328.0855084463316 M675.9731836403517,328.0855084463316 L695.1173022828604,332.4580694922863 M695.1173022828604,332.4580694922863 L714.0224118064965,337.25800778380926 M714.0224118064965,337.25800778380926 L732.662769211751,342.47966520528826 M732.662769211751,342.47966520528826 L751.0128974867526,348.11695291747606 M751.0128974867526,348.11695291747606 L769.0474826384904,354.1631669519735 M769.0474826384904,354.1631669519735 L786.7415823426733,360.6111760550159 M786.7415823426733,360.6111760550159 L804.0703642136378,367.4532219629898 M804.0703642136378,367.4532219629898 L821.0094576341152,374.6811332997502 M821.0094576341152,374.6811332997502 L837.5347427110411,382.28615104937853 M837.5347427110411,382.28615104937853 L853.6225613914297,390.2590616704688 M853.6225613914297,390.2590616704688 L869.2495143178725,398.5900746588338 M869.249503798714,398.5902453668293 L584.4265771923216,579.8363686833219 M869.2495143178725,398.5900746588338 L584.4265846380694,579.8361961091739" stroke="black"  stroke-width="4"  fill="red"/></svg>