<svg viewBox="0 0 800 800" xmlns="http://www.w3.org/2000/svg"><path d="M546.2527926303446,310.4265719948453 L546.2623053917196,310.37734813039424 M253.71828804397956,489.6092711681267 L253.72779904864728,489.56004451878835 M546.2527926303446,310.4265719948453 L599.7358666139189,334.49036392825656 M599.7358666139189,334.49036392825656 L641.6485291321296,362.33859182009473 M641.6485291321296,362.33859182009473 L669.5516542098485,392.3639232413261 M669.5516542098485,392.3639232413261 L681.7164638750255,422.87136415339774 M681.7164638750255,422.87136415339774 L677.5599449027795,452.0290076787933 M677.5599449027795,452.0290076787933 L657.2755103297532,478.1523920883774 M657.2755103297532,478.1523920883774 L621.9952625727747,499.7647139916662 M621.9952625727747,499.7647139916662 L573.8615537204314,515.5531582753174 M573.8615537204314,515.5531582753174 L515.5985299772583,524.6314890839858 M515.5985299772583,524.6314890839858 L450.58349383459426,526.496385242499 M450.58349383459426,526.496385242499 L382.68469755048864,520.9673336684937 M382.68469755048864,520.9673336684937 L315.77367457188666,508.4272727993666 M315.77367457188666,508.4272727993666 L253.71828804397956,489.6092711681267 M546.2623053917196,310.37734813039424 L599.7453799643554,334.44113968970487 M599.7453799643554,334.44113968970487 L641.6580429868773,362.2893671488273 M641.6580429868773,362.2893671488273 L669.5611684548203,392.31469810329145 M669.5611684548203,392.31469810329145 L681.7259783721529,422.8221385413199 M681.7259783721529,422.8221385413199 L677.5694595007226,451.97978161345236 M677.5694595007226,451.97978161345236 L657.2850248704199,478.10316561715445 M657.2850248704199,478.10316561715445 L622.0047769017983,499.71548718435224 M622.0047769017983,499.71548718435224 L573.8710676957853,515.5039312227746 M573.8710676957853,515.5039312227746 L515.6080434774049,524.5822618902312 M515.6080434774049,524.5822618902312 L450.59300676500425,526.4471580198733 M450.59300676500425,526.4471580198733 L382.6942098508589,520.9181065317825 M382.6942098508589,520.9181065317825 L315.78318621753715,508.37804585753474 M315.78318621753715,508.37804585753474 L253.72779904864728,489.56004451878835 M253.71828804397956,489.6092711681267 L200.23522945051081,465.5417727549793 M200.23522945051081,465.5417727549793 L158.32652258616872,437.6906911422848 M158.32652258616872,437.6906911422848 L130.4451225339435,407.6694766887813 M130.4451225339435,407.6694766887813 L118.27402162761427,377.1570281451568 M118.27402162761427,377.1570281451568 L122.45321332290769,348.0070200335467 M122.45321332290769,348.0070200335467 L142.74327272968367,321.8870110535645 M142.74327272968367,321.8870110535645 L178.0255465588998,300.2785058195004 M178.0255465588998,300.2785058195004 L226.15721367369406,284.49343586160103 M226.15721367369406,284.49343586160103 L284.39986441959627,275.4118018090958 M284.39986441959627,275.4118018090958 L349.42168271378614,273.55283804878127 M349.42168271378614,273.55283804878127 L417.29731607064605,279.07506396854296 M417.29731607064605,279.07506396854296 L484.20135274133645,291.6122694807127 M484.20135274133645,291.6122694807127 L546.2527926303446,310.4265719948453 M253.72779904864728,489.56004451878835 L200.24473986611702,465.49254647968337 M200.24473986611702,465.49254647968337 L158.33603249769658,437.641465299821 M158.33603249769658,437.641465299821 L130.45463205548003,407.6202513128519 M130.45463205548003,407.6202513128519 L118.28353089699522,377.10780324356165 M118.28353089699522,377.10780324356165 L122.46272249170579,347.9577955849818 M122.46272249170579,347.9577955849818 L142.7527819557581,321.8377870108816 M142.7527819557581,321.8377870108816 L178.0350559966173,300.2292821126175 M178.0350559966173,300.2292821126175 L226.1667234650813,284.4442124001798 M226.1667234650813,284.4442124001798 L284.40937468619086,275.36257848894456 M284.40937468619086,275.36257848894456 L349.4311935498845,273.50361475755926 M349.4311935498845,273.50361475755926 L417.3068275365513,279.02584059134824 M417.3068275365513,279.02584059134824 L484.2108648614958,291.56304590858053 M484.2108648614958,291.56304590858053 L546.2623053917196,310.37734813039424" stroke="black"  stroke-width="4"  fill="red"/></svg>