<svg viewBox="0 0 800 800" xmlns="http://www.w3.org/2000/svg"><path d="M633.7786879635823,256.8095447951782 L633.7809413986106,256.7532984681675 M166.18043186163413,543.221972537609 L166.18268029089086,543.1657231057943 M633.7786879635823,256.8095447951782 L688.3269113737042,295.2382807961403 M688.3269113737042,295.2382807961403 L726.1186210617889,339.75571140861575 M726.1186210617889,339.75571140861575 L744.9609566926956,387.7840163373112 M744.9609566926956,387.7840163373112 L743.749566804152,436.5177722729277 M743.749566804152,436.5177722729277 L722.575161001092,483.13365447569595 M722.575161001092,483.13365447569595 L682.6365897402575,524.917200588603 M682.6365897402575,524.917200588603 L626.2705261381343,559.446479390168 M626.2705261381343,559.446479390168 L556.7589928779635,584.7102663701298 M556.7589928779635,584.7102663701298 L478.12959862913704,599.2306143566129 M478.12959862913704,599.2306143566129 L394.96275059858453,602.1810364290832 M394.96275059858453,602.1810364290832 L312.076590857032,593.3778713937936 M312.076590857032,593.3778713937936 L234.31425161936204,573.3371293020027 M234.31425161936204,573.3371293020027 L166.18043186163413,543.221972537609 M633.7809413986106,256.7532984681675 L688.3291654561763,295.18203405249733 M688.3291654561763,295.18203405249733 L726.1208756086999,339.6994641823694 M726.1208756086999,339.6994641823694 L744.9632114939741,387.7277685903973 M744.9632114939741,387.7277685903973 L743.7518216349708,436.4615239977393 M743.7518216349708,436.4615239977393 L722.5774156351108,483.0774056952032 M722.5774156351108,483.0774056952032 L682.6388439620205,524.8609513551928 M682.6388439620205,524.8609513551928 L626.2727797565167,559.3902297825007 M626.2727797565167,559.3902297825007 L556.7612457368814,584.6540164886355 M556.7612457368814,584.6540164886355 L478.13185061648255,599.1743643177433 M478.13185061648255,599.1743643177433 L394.9650016531814,602.1247863582394 M394.9650016531814,602.1247863582394 L312.0788409715169,593.3216214183558 M312.0788409715169,593.3216214183558 L234.31650084158173,573.2808795437813 M234.31650084158173,573.2808795437813 L166.18268029089086,543.1657231057943 M166.18043186163413,543.221972537609 L111.63477681617951,504.78575188398827 M111.63477681617951,504.78575188398827 L73.85136063501704,460.26255134419625 M73.85136063501704,460.26255134419625 L55.03678850605502,412.24025330807126 M55.03678850605502,412.24025330807126 L56.24570348201087,363.4986861435864 M56.24570348201087,363.4986861435864 L77.44695276883431,316.89592344215635 M77.44695276883431,316.89592344215635 L117.39219003287144,275.11920271415875 M117.39219003287144,275.11920271415875 L173.7588595043344,240.59763309554546 M173.7588595043344,240.59763309554546 L243.26479966472834,215.34067253192916 M243.26479966472834,215.34067253192916 L321.8680386644264,200.81596225837347 M321.8680386644264,200.81596225837347 L405.03750761662377,197.87520925898207 M405.03750761662377,197.87520925898207 L487.89547425863566,206.66690113055665 M487.89547425863566,206.66690113055665 L565.648613047757,226.70187307332162 M565.648613047757,226.70187307332162 L633.7786879635823,256.8095447951782 M166.18268029089086,543.1657231057943 L111.63702459810884,504.72950286880223 M111.63702459810884,504.72950286880223 L73.85360795268207,460.20630281162084 M73.85360795268207,460.20630281162084 L55.03903556976002,412.1840052960506 M55.03903556976002,412.1840052960506 L56.247950516291894,363.4424386599494 M56.247950516291894,363.4424386599494 L77.4492000004102,316.8396764637255 M77.4492000004102,316.8396764637255 L117.3944376767904,275.06295618863805 M117.3944376767904,275.06295618863805 L173.76110775172128,240.54138694429275 M173.76110775172128,240.54138694429275 L243.26704867143417,215.28442665450712 M243.26704867143417,215.28442665450712 L321.870288542239,200.75971653842862 M321.870288542239,200.75971653842862 L405.0397584271559,197.81896357092046 M405.0397584271559,197.81896357092046 L487.89772600872675,206.61065534717272 M487.89772600872675,206.61065534717272 L565.6508656899387,226.64562707272125 M565.6508656899387,226.64562707272125 L633.7809413986106,256.7532984681675" stroke="black"  stroke-width="4"  fill="red"/></svg>