<svg viewBox="0 0 800 800" xmlns="http://www.w3.org/2000/svg"><path d="M790.7610632360092,238.69002992279044 L790.7610710214681,238.6899832295696 M509.0571722467246,422.4309145825381 L509.0571776658518,422.43086561446887 M790.7610632360092,238.69002992279044 L509.0571722467246,422.4309145825381 M790.7610710214681,238.6899832295696 L509.0571776658518,422.43086561446887 M247.8805276374428,592.7829376392563 L247.8805304000856,592.7828868638219 M509.0571722467246,422.4309145825381 L247.8805276374428,592.7829376392563 M509.0571776658518,422.43086561446887 L247.8805304000856,592.7828868638219 M247.88010172247107,592.7832154415737 L247.8801044851091,592.7831646661364 M247.8805276374428,592.7829376392563 L247.88010172247107,592.7832154415737 M247.8805304000856,592.7828868638219 L247.8801044851091,592.7831646661364 M243.6163522221459,595.5642388147548 L243.61635493772394,595.5641880122205 M247.88010172247107,592.7832154415737 L243.6163522221459,595.5642388147548 M247.8801044851091,592.7831646661364 L243.61635493772394,595.5641880122205 M9.238929026133064,459.94502455867524 L9.238928978531987,459.9449751676706 M243.6163522221459,595.5642388147548 L9.238929026133064,459.94502455867524 M243.61635493772394,595.5641880122205 L9.238928978531987,459.9449751676706 M13.518267476945766,457.4743473521451 L13.518267476945766,457.4742979885618 M9.238929026133064,459.94502455867524 L13.518267476945766,457.4743473521451 M9.238928978531987,459.9449751676706 L13.518267476945766,457.4742979885618 M422.3337296419378,342.5718532155247 L422.333733949371,342.57180519467425 M13.518267476945766,457.4743473521451 L19.093015522298344,460.595983962841 M19.093015522298344,460.595983962841 L24.845874729646937,463.62612427989455 M24.845874729646937,463.62612427989455 L30.7713971029674,466.56114078689825 M30.7713971029674,466.56114078689825 L36.86387599310444,469.3974919878258 M36.86387599310444,469.3974919878258 L43.1173610223629,472.1317341391737 M43.1173610223629,472.1317341391737 L49.52565779589827,474.760525034105 M49.52565779589827,474.760525034105 L56.082334172223966,477.2806289790135 M56.082334172223966,477.2806289790135 L62.780731230197205,479.6889270308637 M62.780731230197205,479.6889270308637 L69.61397368388407,481.98242207382975 M69.61397368388407,481.98242207382975 L76.5749674404081,484.15824195234256 M76.5749674404081,484.15824195234256 L83.65642360209188,486.2136505822671 M83.65642360209188,486.2136505822671 L90.85085088907908,488.1460466820555 M90.85085088907908,488.1460466820555 L98.15058522476278,489.9529758824051 M98.15058522476278,489.9529758824051 L105.54777978698871,491.63213111521014 M105.54777978698871,491.63213111521014 L113.0344442373081,493.1813632501525 M113.0344442373081,493.1813632501525 L120.60242013820641,494.5986784633309 M120.60242013820641,494.5986784633309 L128.24343609501818,495.8822514340536 M128.24343609501818,495.8822514340536 L135.94907702796138,497.03041839801153 M135.94907702796138,497.03041839801153 L143.71082600305022,498.04169040846284 M143.71082600305022,498.04169040846284 L151.52007063321798,498.9147478507541 M151.52007063321798,498.9147478507541 L159.36811585600458,499.64845519387876 M159.36811585600458,499.64845519387876 L167.24620623527767,500.24186183113784 M167.24620623527767,500.24186183113784 L175.14550311807034,500.6941732744541 M175.14550311807034,500.6941732744541 L183.0571832503755,501.0048189069141 M183.0571832503755,501.0048189069141 L190.9723347226934,501.1733746699035 M190.9723347226934,501.1733746699035 L198.88207884322605,501.1996243822542 M198.88207884322605,501.1996243822542 L206.7775193847457,501.0835307406255 M206.7775193847457,501.0835307406255 L214.64981579829532,500.8252608224882 M214.64981579829532,500.8252608224882 L222.4901040948514,500.4251408112053 M222.4901040948514,500.4251408112053 L230.28961671885827,499.8836848320919 M230.28961671885827,499.8836848320919 L238.0396370306396,499.2016273446901 M238.0396370306396,499.2016273446901 L245.73151193084846,498.37983595546706 M245.73151193084846,498.37983595546706 L253.35670734094617,497.41939603769873 M253.35670734094617,497.41939603769873 L260.90677630117443,496.32155039705987 M260.90677630117443,496.32155039705987 L268.37338938034645,495.0877324548366 M268.37338938034645,495.0877324548366 L275.7483520498722,493.71954059999234 M275.7483520498722,493.71954059999234 L283.02363730508796,492.2187357577628 M283.02363730508796,492.2187357577628 L290.19134032284967,490.5872542479336 M290.19134032284967,490.5872542479336 L297.2437555745156,488.8271931687511 M297.2437555745156,488.8271931687511 L304.17332083675205,486.94079566672804 M304.17332083675205,486.94079566672804 L310.97272144981594,484.9304515716841 M310.97272144981594,484.9304515716841 L317.6348010137692,482.7987363464996 M317.6348010137692,482.7987363464996 L324.15262620472333,480.5483186454721 M324.15262620472333,480.5483186454721 L330.5194837564276,478.1820107384868 M330.5194837564276,478.1820107384868 L336.72889986981033,475.7027875363357 M336.72889986981033,475.7027875363357 L342.77464594104003,473.1137135051793 M342.77464594104003,473.1137135051793 L348.6506799623926,470.41797711531166 M348.6506799623926,470.41797711531166 L354.3512935963415,467.6188942796306 M354.3512935963415,467.6188942796306 L359.8709747007234,464.7198585320856 M359.8709747007234,464.7198585320856 L365.2044932714874,461.72438260796224 M365.2044932714874,461.72438260796224 L370.3468822493792,458.6360563332216 M370.3468822493792,458.6360563332216 L375.29345583908935,455.45858031119593 M375.29345583908935,455.45858031119593 L380.0398103828202,452.1956940173939 M380.0398103828202,452.1956940173939 L384.5817802615343,448.8512321666309 M384.5817802615343,448.8512321666309 L388.91549486445706,445.42908318772317 M388.91549486445706,445.42908318772317 L393.0373951458736,441.93322270610685 M393.0373951458736,441.93322270610685 L396.9441634469873,438.36762052662965 M396.9441634469873,438.36762052662965 L400.63277815055596,434.73634865674586 M400.63277815055596,434.73634865674586 L404.1005177303248,431.04347396709784 M404.1005177303248,431.04347396709784 L407.3448778820847,427.2931215876544 M407.3448778820847,427.2931215876544 L410.3636909571072,423.4894421260611 M410.3636909571072,423.4894421260611 L413.15506404837834,419.63657960750726 M413.15506404837834,419.63657960750726 L415.7173535255047,415.73869818297425 M415.7173535255047,415.73869818297425 L418.049188226203,411.79999390687595 M418.049188226203,411.79999390687595 L420.14944452433656,407.82465594152796 M420.14944452433656,407.82465594152796 L422.01735990998543,403.81682152398986 M422.01735990998543,403.81682152398986 L423.65229349398714,399.78068926358833 M423.65229349398714,399.78068926358833 L425.0539534476442,395.72040221587025 M425.0539534476442,395.72040221587025 L426.22227134002094,391.6400897124455 M426.22227134002094,391.6400897124455 L427.1574101193771,387.54387305929475 M427.1574101193771,387.54387305929475 L427.85979750629895,383.435807884106 M427.85979750629895,383.435807884106 L428.3301162281855,379.3199331092425 M428.3301162281855,379.3199331092425 L428.56917453566257,375.2002840259049 M428.56917453566257,375.2002840259049 L428.57810758127516,371.0807938757025 M428.57810758127516,371.0807938757025 L428.35826382255993,366.96539190742897 M428.35826382255993,366.96539190742897 L427.91112958674944,362.857968146077 M427.91112958674944,362.857968146077 L427.2384486214356,358.7623116000567 M427.2384486214356,358.7623116000567 L426.34215962049745,354.6822076168531 M426.34215962049745,354.6822076168531 L425.22438268360895,350.62133522264344 M425.22438268360895,350.62133522264344 L423.8874074596346,346.58336412399404 M423.8874074596346,346.58336412399404 L422.3337296419378,342.5718532155247 M13.518267476945766,457.4742979885618 L19.09301558432702,460.59593456462153 M19.09301558432702,460.59593456462153 L24.8458748558578,463.6260748481475 M24.8458748558578,463.6260748481475 L30.771397295453085,466.56109132276356 M30.771397295453085,466.56109132276356 L36.863876253892386,469.39744249247406 M36.863876253892386,469.39744249247406 L43.11736135341175,472.1316846138051 M43.11736135341175,472.1316846138051 L49.52565819909381,474.7604754799476 M49.52565819909381,474.7604754799476 L56.08233464937484,477.2805793973226 M56.08233464937484,477.2805793973226 L62.78073178303168,479.68887742292014 M62.78073178303168,479.68887742292014 L69.61397431404635,481.9823724409388 M69.61397431404635,481.9823724409388 L76.57496814945438,484.158192295833 M76.57496814945438,484.158192295833 L83.65642439148723,486.2136009034896 M83.65642439148723,486.2136009034896 L90.85085176019419,488.1459969823811 M90.85085176019419,488.1459969823811 L98.15058617887087,489.9529261632245 M98.15058617887087,489.9529261632245 L105.54778082526252,491.6320813779319 M105.54778082526252,491.6320813779319 L113.03444536081747,493.18131349620194 M113.03444536081747,493.18131349620194 L120.60242134791508,494.5986286941488 M120.60242134791508,494.5986286941488 L128.24343739178255,495.8822016510944 M128.24343739178255,495.8822016510944 L135.94907841252757,497.0303686027427 M135.94907841252757,497.0303686027427 L143.71082747605226,498.041640602363 M143.71082747605226,498.041640602363 L151.52007219517668,498.9146980353117 M151.52007219517668,498.9146980353117 L159.3681175073258,499.64840537059087 M159.3681175073258,499.64840537059087 L167.24620797625153,500.2418120015087 M167.24620797625153,500.2418120015087 L175.14550494886942,500.6941234399938 M175.14550494886942,500.6941234399938 L183.05718517105606,501.004769069137 M183.05718517105606,501.004769069137 L190.97233673319317,501.17332483032715 M190.97233673319317,501.17332483032715 L198.88208094336505,501.19957454239767 M198.88208094336505,501.19957454239767 L206.7775215742264,501.0834809020082 M206.7775215742264,501.0834809020082 L214.64981807670335,500.8252109866282 M214.64981807670335,500.8252109866282 L222.4901064616556,500.4250909796184 M222.4901064616556,500.4250909796184 L230.28961917341223,499.8836350062899 M230.28961917341223,499.8836350062899 L238.03963957218298,499.20157752617956 M238.03963957218298,499.20157752617956 L245.73151455850814,498.3797861457478 M245.73151455850814,498.3797861457478 L253.35671005373808,497.4193462382627 M253.35671005373808,497.4193462382627 L260.90677909800604,496.3215006093893 M260.90677909800604,496.3215006093893 L268.3733922600185,495.0876826804033 M268.3733922600185,495.0876826804033 L275.748355011081,493.71949084025573 M275.748355011081,493.71949084025573 L283.02364034642926,492.21868601416884 M283.02364034642926,492.21868601416884 L290.19134344281986,490.58720452191346 M290.19134344281986,490.58720452191346 L297.24375877151624,488.8271434617197 M297.24375877151624,488.8271434617197 L304.17332410909205,486.94074598008274 M304.17332410909205,486.94074598008274 L310.972724795716,484.9304019068035 M310.972724795716,484.9304019068035 L317.6348044313645,482.79868670474207 M317.6348044313645,482.79868670474207 L324.152629692068,480.54826902817433 M324.152629692068,480.54826902817433 L330.51948731149776,478.1819611469632 M330.51948731149776,478.1819611469632 L336.7289034905091,475.7027379718761 M336.7289034905091,475.7027379718761 L342.77464962520094,473.11366396904873 M342.77464962520094,473.11366396904873 L348.6506837077835,470.41792760874824 M348.6506837077835,470.41792760874824 L354.35129740066975,467.6188448038448 M354.35129740066975,467.6188448038448 L359.87097856163905,464.71980908825924 M359.87097856163905,464.71980908825924 L365.20449718658836,461.72433319724666 M365.20449718658836,461.72433319724666 L370.346886216215,458.63600695673705 M370.346886216215,458.63600695673705 L375.2934598551659,455.4585309700303 M375.2934598551659,455.4585309700303 L380.0398144456043,452.1956447126017 M380.0398144456043,452.1956447126017 L384.5817843684573,448.85118289923184 M384.5817843684573,448.85118289923184 L388.91549901291967,445.4290339587017 M388.91549901291967,445.4290339587017 L393.0373993332505,441.9331735164108 M393.0373993332505,441.9331735164108 L396.9441676706307,438.36757137716927 M396.9441676706307,438.36757137716927 L400.63278240780005,434.73629954839305 M400.63278240780005,434.73629954839305 L404.1005220184903,431.04342490068524 M404.1005220184903,431.04342490068524 L407.34488219848197,427.29307256397436 M407.34488219848197,427.29307256397436 L410.36369529904084,423.48939314586494 M410.36369529904084,423.48939314586494 L413.15506841315107,419.63653067150483 M413.15506841315107,419.63653067150483 L415.7173579104207,415.738649291833 M415.7173579104207,415.738649291833 L418.04919262857175,411.7999450612203 M418.04919262857175,411.7999450612203 L420.14944894147595,407.8246071419381 M420.14944894147595,407.8246071419381 L422.01736433922645,403.8167727710025 M422.01736433922645,403.8167727710025 L423.6522979326753,399.7806405576949 M423.6522979326753,399.7806405576949 L425.0539578931439,395.720353557517 M425.0539578931439,395.720353557517 L426.2222757897181,391.640041102033 M426.2222757897181,391.640041102033 L427.1574145706817,387.5438244971775 M427.1574145706817,387.5438244971775 L427.85980195664797,383.4357593705922 M427.85980195664797,383.4357593705922 L428.33012067504615,379.3198846445939 M428.33012067504615,379.3198846445939 L428.5691789765334,375.200235610336 M428.5691789765334,375.200235610336 L428.57811201368906,371.08074550938125 M428.57811201368906,371.08074550938125 L428.35826824408673,366.965343590476 M428.35826824408673,366.965343590476 L427.9111339949967,362.8579198785654 M427.9111339949967,362.8579198785654 L427.2384530140513,358.76226338201303 M427.2384530140513,358.76226338201303 L426.34216399517186,354.68215944825624 M426.34216399517186,354.68215944825624 L425.224387038076,350.62128710342574 M425.224387038076,350.62128710342574 L423.8874117916722,346.58331605404055 M423.8874117916722,346.58331605404055 L422.333733949371,342.57180519467425 M422.0876543029366,342.5270426372132 L422.0876586076856,342.5269946169121 M422.3337296419378,342.5718532155247 L422.26893362086844,342.5721376902195 M422.26893362086844,342.5721376902195 L422.2041483680929,342.5644433541126 M422.2041483680929,342.5644433541126 L422.14268685848356,342.5491361272465 M422.14268685848356,342.5491361272465 L422.0876543029366,342.5270426372132 M422.333733949371,342.57180519467425 L422.2689379276196,342.57208966936554 M422.2689379276196,342.57208966936554 L422.20415267414603,342.56439533335293 M422.20415267414603,342.56439533335293 L422.14269116385753,342.54908810667456 M422.14269116385753,342.54908810667456 L422.0876586076856,342.5269946169121 M422.2039015457241,342.26033181203854 L422.20390585115297,342.2602837950079 M422.0876543029366,342.5270426372132 L422.03809676559445,342.496368538575 M422.03809676559445,342.496368538575 L422.00272643153335,342.46076494777355 M422.00272643153335,342.46076494777355 L421.98365073848674,342.4224265699351 M421.98365073848674,342.4224265699351 L421.9820765420269,342.3836900398461 M421.9820765420269,342.3836900398461 L421.9980966829663,342.34695260178245 M421.9980966829663,342.34695260178245 L422.03071141800194,342.31446219912823 M422.03071141800194,342.31446219912823 L422.07792872605546,342.288195680564 M422.07792872605546,342.288195680564 L422.1368834458566,342.2697709111719 M422.1368834458566,342.2697709111719 L422.2039015457241,342.26033181203854 M422.0876586076856,342.5269946169121 L422.03810106975857,342.4963205186502 M422.03810106975857,342.4963205186502 L422.00273073525204,342.4607169282852 M422.00273073525204,342.4607169282852 L421.9836550419262,342.42237855091673 M421.9836550419262,342.42237855091673 L421.9820808453708,342.3836420213028 M421.9820808453708,342.3836420213028 L421.99810098640387,342.34690458368965 M421.99810098640387,342.34690458368965 L422.03071572171666,342.31441418143385 M422.03071572171666,342.31441418143385 L422.0779330302139,342.2881476631918 M422.0779330302139,342.2881476631918 L422.1368877505986,342.26972289402556 M422.1368877505986,342.26972289402556 L422.20390585115297,342.2602837950079 M422.2039015457241,342.26033181203854 L420.6566004397256,338.2652260384442 M420.6566004397256,338.2652260384442 L419.3360949765456,334.2742642147213 M419.3360949765456,334.2742642147213 L418.24236512630046,330.2911773305119 M418.24236512630046,330.2911773305119 L417.37512903628794,326.31968659442333 M417.37512903628794,326.31968659442333 L416.73393203390424,322.36342343433586 M416.73393203390424,322.36342343433586 L416.3180714714392,318.4259871273262 M416.3180714714392,318.4259871273262 L416.1266904423027,314.51089246745295 M416.1266904423027,314.51089246745295 L416.15866735386896,310.6216337039759 M416.15866735386896,310.6216337039759 L416.41272444399465,306.7616162843507 M416.41272444399465,306.7616162843507 L416.8874330319802,302.93415870984467 M416.8874330319802,302.93415870984467 L417.58108846325604,299.14257243154407 M417.58108846325604,299.14257243154407 L418.4918828108788,295.39005563145133 M418.4918828108788,295.39005563145133 L419.61784442971475,291.6797345519361 M419.61784442971475,291.6797345519361 L420.9567996745137,288.0146911828384 M420.9567996745137,288.0146911828384 L422.50641588912765,284.39791361413853 M422.50641588912765,284.39791361413853 L424.2642522986862,280.8323209268268 M424.2642522986862,280.8323209268268 L426.2276317693944,277.3207940120392 M426.2276317693944,277.3207940120392 L428.3938412299342,273.86606481779484 M428.3938412299342,273.86606481779484 L430.7599688365673,270.4708463920806 M430.7599688365673,270.4708463920806 L433.322966808709,267.1377714906156 M433.322966808709,267.1377714906156 L436.07967913240293,263.8693842510335 M436.07967913240293,263.8693842510335 L439.0268475371446,260.6681445909375 M439.0268475371446,260.6681445909375 L442.1610585158372,257.53644971535135 M442.1610585158372,257.53644971535135 L445.4788289823755,254.47660862781677 M445.4788289823755,254.47660862781677 L448.9765008751707,251.49088378873685 M448.9765008751707,251.49088378873685 L452.6503824961908,248.58142542203802 M452.6503824961908,248.58142542203802 L456.4966766274357,245.7503071541427 M456.4966766274357,245.7503071541427 L460.5114532406201,242.9995595037018 M460.5114532406201,242.9995595037018 L464.69071766817046,240.3311154601492 M464.69071766817046,240.3311154601492 L469.0303933749859,237.74682726401124 M469.0303933749859,237.74682726401124 L473.52633204559675,235.24847374588268 M473.52633204559675,235.24847374588268 L478.17426575294473,232.83778426593392 M478.17426575294473,232.83778426593392 L482.9699273760425,230.51636666034935 M482.9699273760425,230.51636666034935 L487.90892926502386,228.28578457269666 M487.90892926502386,228.28578457269666 L492.9867630818044,226.1475596313363 M492.9867630818044,226.1475596313363 L498.1990068007807,224.10305443784154 M498.1990068007807,224.10305443784154 L503.5409957689483,222.15366849823084 M503.5409957689483,222.15366849823084 L509.00818568289026,220.30062161580304 M509.00818568289026,220.30062161580304 L514.5958276880148,218.5451505980853 M514.5958276880148,218.5451505980853 L520.2992543317215,216.88834441811346 M520.2992543317215,216.88834441811346 L526.1135934914324,215.3313143370724 M526.1135934914324,215.3313143370724 L532.0340894255509,213.87500407192954 M532.0340894255509,213.87500407192954 L538.0558639749305,212.52033845565066 M538.0558639749305,212.52033845565066 L544.1739414668721,211.26819504446948 M544.1739414668721,211.26819504446948 L550.3833856144355,210.1193431790172 M550.3833856144355,210.1193431790172 L556.6792256466459,209.0744977380198 M556.6792256466459,209.0744977380198 L563.0564497285551,208.13427742933158 M563.0564497285551,208.13427742933158 L569.5098954020543,207.29932482202491 M569.5098954020543,207.29932482202491 L576.0345833137507,206.57008488662808 M576.0345833137507,206.57008488662808 L582.6252703339164,205.94706416668583 M582.6252703339164,205.94706416668583 L589.2769139811362,205.43058560023127 M589.2769139811362,205.43058560023127 L595.9842075498614,205.02103814328274 M595.9842075498614,205.02103814328274 L602.7420416151663,204.71859024117194 M602.7420416151663,204.71859024117194 L609.5451270192732,204.52347743171018 M609.5451270192732,204.52347743171018 L616.3881988802451,204.43580741702254 M616.3881988802451,204.43580741702254 L623.2659866814643,204.4556313290733 M623.2659866814643,204.4556313290733 L630.1731896973732,204.58293496184695 M630.1731896973732,204.58293496184695 L637.1044857744774,204.81764466022616 M637.1044857744774,204.81764466022616 L644.0545132841517,205.15962124865928 M644.0545132841517,205.15962124865928 L651.0179386937612,205.60865085694832 M651.0179386937612,205.60865085694832 L657.9893861856106,206.16445631553412 M657.9893861856106,206.16445631553412 L664.963466778672,206.8267114126473 M664.963466778672,206.8267114126473 L671.9348167961612,207.59497796115633 M671.9348167961612,207.59497796115633 L678.8979731343361,208.46881463672142 M678.8979731343361,208.46881463672142 L685.8475361848161,209.44768713459342 M685.8475361848161,209.44768713459342 L692.7780858281062,210.530972919472 M692.7780858281062,210.530972919472 L699.6841549308847,211.71803138187153 M699.6841549308847,211.71803138187153 L706.5603886140977,213.0080715614091 M706.5603886140977,213.0080715614091 L713.4012727105351,214.4003174123159 M713.4012727105351,214.4003174123159 L720.2014132665922,215.89388714446417 M720.2014132665922,215.89388714446417 L726.9553494948252,217.4878332167773 M726.9553494948252,217.4878332167773 L733.6575910409188,219.18115857140484 M733.6575910409188,219.18115857140484 L740.3028210208965,220.97274274385086 M740.3028210208965,220.97274274385086 L746.8855166118285,222.86145987144408 M746.8855166118285,222.86145987144408 L753.4002973291736,224.8460866510708 M753.4002973291736,224.8460866510708 L759.8417487466065,226.92530594673465 M759.8417487466065,226.92530594673465 L766.2044790224504,229.09777096395212 M766.2044790224504,229.09777096395212 L772.4831217387941,231.3620243556488 M772.4831217387941,231.3620243556488 L778.672299573413,233.71656236237186 M778.672299573413,233.71656236237186 L784.7667112081406,236.15978988013399 M784.7667112081406,236.15978988013399 L790.7610632360092,238.69002992279044 M422.20390585115297,342.2602837950079 L420.6566047207175,338.2651780704883 M420.6566047207175,338.2651780704883 L419.3360992355515,334.2742162959485 M419.3360992355515,334.2742162959485 L418.2423693657647,330.29112946098405 M418.2423693657647,330.29112946098405 L417.3751332586452,326.31963877415507 M417.3751332586452,326.31963877415507 L416.73393624157825,322.36337566329524 M416.73393624157825,322.36337566329524 L416.31807566684085,318.42593940543435 M416.31807566684085,318.42593940543435 L416.1266946278264,314.5108447945847 M416.1266946278264,314.5108447945847 L416.1586715318922,310.6215860799597 M416.1586715318922,310.6215860799597 L416.41272861687526,306.7615687089689 M416.41272861687526,306.7615687089689 L416.88743720205537,302.93411118283416 M416.88743720205537,302.93411118283416 L417.5810926328388,299.14252495259603 M417.5810926328388,299.14252495259603 L418.4918869822592,295.39000820021204 M418.4918869822592,295.39000820021204 L419.61784860515615,291.6796871680077 M419.61784860515615,291.6796871680077 L420.9568038562526,288.01464384577866 M420.9568038562526,288.01464384577866 L422.5064200793721,284.397866323462 M422.5064200793721,284.397866323462 L424.26425649961493,280.83227368200517 M424.26425649961493,280.83227368200517 L426.2276359831545,277.3207468125014 M426.2276359831545,277.3207468125014 L428.3938454586422,273.8660176629288 M428.3938454586422,273.8660176629288 L430.7599730823067,270.4707992812332 M430.7599730823067,270.4707992812332 L433.32297107352986,267.13772442309346 M433.32297107352986,267.13772442309346 L436.0796834183211,263.86933722610354 M436.0796834183211,263.86933722610354 L439.02685184614165,260.66809760782826 M439.02685184614165,260.66809760782826 L442.16106284985904,257.5364027732536 M442.16106284985904,257.5364027732536 L445.4788333433322,254.47656172588412 M445.4788333433322,254.47656172588412 L448.97650526493567,251.4908369260868 M448.97650526493567,251.4908369260868 L452.6503869166006,248.58137859775303 M452.6503869166006,248.58137859775303 L456.4966810802904,245.7502603672709 M456.4966810802904,245.7502603672709 L460.5114577276813,242.99951275325807 M460.5114577276813,242.99951275325807 L464.6907221911623,240.33106874511577 M464.6907221911623,240.33106874511577 L469.0303979355949,237.7467805833393 M469.0303979355949,237.7467805833393 L473.526336645471,235.2484270984931 M473.526336645471,235.2484270984931 L478.17427039369306,232.83773765071817 M478.17427039369306,232.83773765071817 L482.9699320592365,230.51632007617087 M482.9699320592365,230.51632007617087 L487.9089339921958,228.28573801839173 M487.9089339921958,228.28573801839173 L492.9867678544475,226.14751310571472 M492.9867678544475,226.14751310571472 L498.1990116203501,224.10300793968884 M498.1990116203501,224.10300793968884 L503.5410006368593,222.15362202630803 M503.5410006368593,222.15362202630803 L509.0081906005199,220.3005751688493 M509.0081906005199,220.3005751688493 L514.595832656701,218.54510417481725 M514.595832656701,218.54510417481725 L520.299259352763,216.88829801722818 M520.299259352763,216.88829801722818 L526.1135985660885,215.3312679572471 M526.1135985660885,215.3312679572471 L532.0340945550423,213.87495771182375 M532.0340945550423,213.87495771182375 L538.0558691604389,212.52029211390715 M538.0558691604389,212.52029211390715 L544.1739467095395,211.26814871971496 M544.1739467095395,211.26814871971496 L550.3833909153647,210.1192968698639 M550.3833909153647,210.1192968698639 L556.6792310069007,209.07445144306686 M556.6792310069007,209.07445144306686 L563.0564551491599,208.1342311471664 M563.0564551491599,208.1342311471664 L569.5099008839932,207.29927855122315 M569.5099008839932,207.29927855122315 L576.0345888579698,206.5700386257567 M576.0345888579698,206.5700386257567 L582.6252759413204,205.9470179143026 M582.6252759413204,205.9470179143026 L589.2769196525915,205.43053935488763 M589.2769196525915,205.43053935488763 L595.9842132861929,205.02099190352308 M595.9842132861929,205.02099190352308 L602.7420474171599,204.71854400553715 M602.7420474171599,204.71854400553715 L609.5451328876741,204.52343119873672 M609.5451328876741,204.52343119873672 L616.3882048157576,204.4357611852451 M616.3882048157576,204.4357611852451 L623.2659926847521,204.45558509702542 M623.2659926847521,204.45558509702542 L630.1731957690587,204.58288872806241 M630.1731957690587,204.58288872806241 L637.1044919151416,204.81759842324027 M637.1044919151416,204.81759842324027 L644.0545194943336,205.15957500700992 M644.0545194943336,205.15957500700992 L651.0179449739578,205.60860460917735 M651.0179449739578,205.60860460917735 L657.9893925362771,206.16441006018863 M657.9893925362771,206.16441006018863 L664.9634732002196,206.82666514828068 M664.9634732002196,206.82666514828068 L671.9348232889581,207.59493168633006 M671.9348232889581,207.59493168633006 L678.8979796987066,208.4687683500051 M678.8979796987066,208.4687683500051 L685.84754282104,209.4476408345673 M685.84754282104,209.4476408345673 L692.7780925364189,210.53092660472723 M692.7780925364189,210.53092660472723 L699.6841617114751,211.71798505101185 M699.6841617114751,211.71798505101185 L706.5603954671101,213.0080252130523 M706.5603954671101,213.0080252130523 L713.4012796360662,214.40027104509454 M713.4012796360662,214.40027104509454 L720.2014202646919,215.8938407570269 M720.2014202646919,215.8938407570269 L726.9553565654955,217.48778680778997 M726.9553565654955,217.48778680778997 L733.6575981841129,219.18111213955197 M733.6575981841129,219.18111213955197 L740.3028282365187,220.9726962878366 M740.3028282365187,220.9726962878366 L746.885523899733,222.8614133899934 M746.885523899733,222.8614133899934 L753.4003046891642,224.84604014293046 M753.4003046891642,224.84604014293046 L759.8417561784352,226.92525941067467 M759.8417561784352,226.92525941067467 L766.2044865258179,229.09772439876681 M766.2044865258179,229.09772439876681 L772.4831293133477,231.3619777601576 M772.4831293133477,231.3619777601576 L778.6723072187467,233.71651573542093 M778.6723072187467,233.71651573542093 L784.7667189237945,236.15974322059694 M784.7667189237945,236.15974322059694 L790.7610710214681,238.6899832295696" stroke="black"  stroke-width="4"  fill="red"/></svg>