<svg viewBox="0 0 800 800" xmlns="http://www.w3.org/2000/svg"><path d="M616.4072987147374,267.4518404530536 L616.4111703573726,267.39668072500353 M183.5562259014696,532.5809871031452 L183.56009327899665,532.5258242751952 M616.4072987147374,267.4518404530536 L671.1756969386479,303.02507181296096 M671.1756969386479,303.02507181296096 L710.1776829752489,344.23856276798324 M710.1776829752489,344.23856276798324 L731.1765436216956,388.689845837529 M731.1765436216956,388.689845837529 L732.9032859758008,433.8062300936581 M732.9032859758008,433.8062300936581 L715.3037007232197,476.9580136263103 M715.3037007232197,476.9580136263103 L679.363199690124,515.6365086287769 M679.363199690124,515.6365086287769 L627.1859137011343,547.5997847543476 M627.1859137011343,547.5997847543476 L561.8099280814058,570.9861023726262 M561.8099280814058,570.9861023726262 L487.0223750510486,584.4273679003527 M487.0223750510486,584.4273679003527 L407.1743775848299,587.162574246111 M407.1743775848299,587.162574246111 L326.9170460071182,579.0055272161771 M326.9170460071182,579.0055272161771 L250.90110446000472,560.4581581234379 M250.90110446000472,560.4581581234379 L183.5562259014696,532.5809871031452 M616.4111703573726,267.39668072500353 L671.1795692300075,302.96991166895896 M671.1795692300075,302.96991166895896 L710.1815557538648,344.1834021420873 M710.1815557538648,344.1834021420873 L731.1804166976945,388.634684691875 M731.1804166976945,388.634684691875 L732.9071591418469,433.75106842051173 M732.9071591418469,433.75106842051173 L715.3075737670297,476.9028514486563 M715.3075737670297,476.9028514486563 L679.3670724061085,515.5813459989222 M679.3670724061085,515.5813459989222 L627.1897859029705,547.5446217507924 M627.1897859029705,547.5446217507924 L561.8137996128644,570.9309390956696 M561.8137996128644,570.9309390956696 L487.0262457943754,584.3722044662718 M487.0262457943754,584.3722044662718 L407.1782474684296,587.1074107800596 M407.1782474684296,587.1074107800596 L326.9209150093957,578.9503638454771 M326.9209150093957,578.9503638454771 L250.9049726103549,560.4029949695614 M250.9049726103549,560.4029949695614 L183.56009327899665,532.5258242751952 M183.5562259014696,532.5809871031452 L128.78977679891977,497.001089670106 M128.78977679891977,497.001089670106 L89.79513905930799,455.7824594633057 M89.79513905930799,455.7824594633057 L68.82290985883446,411.336833196161 M68.82290985883446,411.336833196161 L67.09284085815307,366.2131855058615 M67.09284085815307,366.2131855058615 L84.718615478836,323.07339305132336 M84.718615478836,323.07339305132336 L120.66567781986669,284.40097695686563 M120.66567781986669,284.40097695686563 L172.843965895765,252.4445668783519 M172.843965895765,252.4445668783519 L238.21516475232784,229.0643290866792 M238.21516475232784,229.0643290866792 L312.97766673058504,215.61887193842995 M312.97766673058504,215.61887193842995 L392.82923250686144,212.89258484393213 M392.82923250686144,212.89258484393213 L473.0592218107777,221.03910465919034 M473.0592218107777,221.03910465919034 L549.0663151300396,239.58133585313772 M549.0663151300396,239.58133585313772 L616.4072987147374,267.4518404530536 M183.56009327899665,532.5258242751952 L128.79364352772245,496.94592725811526 M128.79364352772245,496.94592725811526 L89.79900530108716,455.727297533238 M89.79900530108716,455.727297533238 L68.82677580352174,411.28167178572767 M68.82677580352174,411.28167178572767 L67.09670671290951,366.1580246230151 M67.09670671290951,366.1580246230151 L84.72248145629419,323.01823267290456 M84.72248145629419,323.01823267290456 L120.66954412526684,284.34581703062577 M120.66954412526684,284.34581703062577 L172.84783271537162,252.38940732579067 M172.84783271537162,252.38940732579067 L238.2190322422539,229.0091698075339 M238.2190322422539,229.0091698075339 L312.98153500823537,215.56371281650354 M312.98153500823537,215.56371281650354 L392.8331016441807,212.83742575388897 M392.8331016441807,212.83742575388897 L473.0630918290117,220.9839454738758 M473.0630918290117,220.9839454738758 L549.0701859999681,239.52617645099963 M549.0701859999681,239.52617645099963 L616.4111703573726,267.39668072500353" stroke="black"  stroke-width="4"  fill="red"/></svg>