<svg viewBox="0 0 800 800" xmlns="http://www.w3.org/2000/svg"><path d="M-45.10762199654516,195.12797987975705 L-45.1076186565158,195.12776633316935 M845.1076081844071,487.1300891211373 L845.1076219965453,487.12987254568 M-45.10762199654516,195.12797987975705 L-3.031288092624436,201.49547721986812 M-3.031288092624436,201.49547721986812 L38.854851491887416,208.45291153362814 M38.854851491887416,208.45291153362814 L80.53447474157599,215.9989345372819 M80.53447474157599,215.9989345372819 L121.9911894081531,224.13204351931893 M121.9911894081531,224.13204351931893 L163.2084904464606,232.8505569621118 M163.2084904464606,232.8505569621118 L204.16992917602818,242.15273943049795 M204.16992917602818,242.15273943049795 L244.8589008042461,252.03663760667803 M244.8589008042461,252.03663760667803 L285.2588513682606,262.5002172883077 M285.2588513682606,262.5002172883077 L325.35312230420004,273.5412679483045 M325.35312230420004,273.5412679483045 L365.1249880906919,285.1574335479736 M365.1249880906919,285.1574335479736 L404.5576257683542,297.3461793582269 M404.5576257683542,297.3461793582269 L443.6342951856684,310.1048778887506 M443.6342951856684,310.1048778887506 L482.3380649545302,323.43067684220125 M482.3380649545302,323.43067684220125 L520.6519865723735,337.3205886066272 M520.6519865723735,337.3205886066272 L558.5590491153246,351.7714297661396 M558.5590491153246,351.7714297661396 L596.0422005651976,366.77986328047064 M596.0422005651976,366.77986328047064 L633.0842274866391,382.3423107843122 M633.0842274866391,382.3423107843122 L669.6680504794783,398.45511589149226 M669.6680504794783,398.45511589149226 L705.776393885872,415.1143692162781 M705.776393885872,415.1143692162781 L741.3918901382672,432.31589654267816 M741.3918901382672,432.31589654267816 L776.497236632224,450.05544034624063 M776.497236632224,450.05544034624063 L811.0749585514402,468.3284205046232 M811.0749585514402,468.3284205046232 L845.1076081844071,487.1300891211373 M-45.1076186565158,195.12776633316935 L-3.031284274206314,201.49526360511027 M-3.031284274206314,201.49526360511027 L38.85485578742623,208.4526978444926 M38.85485578742623,208.4526978444926 L80.53447951286375,215.99872076760414 M80.53447951286375,215.99872076760414 L121.99119465371177,224.13182966298143 M121.99119465371177,224.13182966298143 L163.2084961647024,232.85034301304825 M163.2084961647024,232.85034301304825 L204.16993536525433,242.15252538269613 M204.16993536525433,242.15252538269613 L244.85890746264351,252.03642345418484 M244.85890746264351,252.03642345418484 L285.25885849389897,262.5000030252312 M285.25885849389897,262.5000030252312 L325.35312989502904,273.5410535688187 M325.35312989502904,273.5410535688187 L365.12499614453736,285.15721904632187 M365.12499614453736,285.15721904632187 L404.5576342829147,297.3459647287259 M404.5576342829147,297.3459647287259 L443.63430415851303,310.10466312579354 M443.63430415851303,310.10466312579354 L482.3380743830928,323.43046194026124 M482.3380743830928,323.43046194026124 L520.6519964539502,337.32037356026194 M520.6519964539502,337.32037356026194 L558.5590594470698,351.7712145699944 M558.5590594470698,351.7712145699944 L596.0422113441193,366.77964792928185 M596.0422113441193,366.77964792928185 L633.0842387095936,382.3420952729116 M633.0842387095936,382.3420952729116 L669.6680621431678,398.4549002148093 M669.6680621431678,398.4549002148093 L705.7764059868393,415.1141533693441 M705.7764059868393,415.1141533693441 L741.3919026728897,432.3156805206306 M741.3919026728897,432.3156805206306 L776.4972495967108,450.05522414432573 M776.4972495967108,450.05522414432573 L811.0749719418254,468.32820411819966 M811.0749719418254,468.32820411819966 L845.1076219965453,487.12987254568 M664.5902436720614,604.8722336668305 L664.5902555190921,604.8720159263344 M845.1076081844071,487.1300891211373 L664.5902436720614,604.8722336668305 M845.1076219965453,487.12987254568 L664.5902555190921,604.8720159263344 M664.5902436720614,604.8722336668305 L-45.10762199654516,195.12797987975705 M664.5902555190921,604.8720159263344 L-45.1076186565158,195.12776633316935" stroke="black"  stroke-width="4"  fill="red"/></svg>