<svg viewBox="0 0 800 800" xmlns="http://www.w3.org/2000/svg"><path d="M633.9286419555428,258.7651171290563 L633.93053199508,258.7090608512535 M166.04660531887203,541.2752763935496 L166.04849034314975,541.2192170098224 M633.9286419555428,258.7651171290563 L687.6370424162888,296.67030036409597 M687.6370424162888,296.67030036409597 L724.6294696575205,340.5812161117119 M724.6294696575205,340.5812161117119 L742.7516661979316,387.9508507934315 M742.7516661979316,387.9508507934315 L740.9640748048259,436.02493405458154 M740.9640748048259,436.02493405458154 L719.360237048968,482.0013654705981 M719.360237048968,482.0013654705981 L679.1869480557507,523.2156023275311 M679.1869480557507,523.2156023275311 L622.7866256265552,557.2744057541149 M622.7866256265552,557.2744057541149 L553.4432959218975,582.1939594293635 M553.4432959218975,582.1939594293635 L475.18270601774566,596.5207694123401 M475.18270601774566,596.5207694123401 L392.5408389119548,599.4266784448791 M392.5408389119548,599.4266784448791 L310.3359868377447,590.7477740947779 M310.3359868377447,590.7477740947779 L233.34874838319956,570.980099513461 M233.34874838319956,570.980099513461 L166.04660531887203,541.2752763935496 M633.93053199508,258.7090608512535 L687.6389330840029,296.6142436695209 M687.6389330840029,296.6142436695209 L724.63136077128,340.5251589343461 M724.63136077128,340.5251589343461 L742.7535575494985,387.89479309527087 M742.7535575494985,387.89479309527087 L740.965966172429,435.96887582789896 M740.965966172429,435.96887582789896 L719.3621282096428,481.94530673847294 M719.3621282096428,481.94530673847294 L679.1888387984654,523.1595431423339 M679.1888387984654,523.1595431423339 L622.7885157646961,557.2183461945151 M622.7885157646961,557.2183461945151 L553.4451853040955,582.1378995958348 M553.4451853040955,582.1378995958348 L475.1845945364039,596.4647094213215 M475.1845945364039,596.4647094213215 L392.5427265095932,599.3706184219172 M392.5427265095932,599.3706184219172 L310.3378735106671,590.691714167222 M310.3378735106671,590.691714167222 L233.35063418137725,570.9240398031961 M233.35063418137725,570.9240398031961 L166.04849034314975,541.2192170098224 M166.04660531887203,541.2752763935496 L112.34082855240558,503.3627609472842 M112.34082855240558,503.3627609472842 L75.35665145187522,459.4461927896227 M75.35665145187522,459.4461927896227 L57.24644245050149,412.0738800651088 M57.24644245050149,412.0738800651088 L59.05472677151556,364.0050178999227 M59.05472677151556,364.0050178999227 L80.66955864665215,318.0328760291868 M80.66955864665215,318.0328760291868 L120.84162590606138,276.8210150596842 M120.84162590606138,276.8210150596842 L177.24245291759144,242.76976380153246 M177.24245291759144,242.76976380153246 L246.58789787243586,217.86120764961197 M246.58789787243586,217.86120764961197 L324.83806682168506,203.5386867702764 M324.83806682168506,203.5386867702764 L407.4593626357964,200.62937719368892 M407.4593626357964,200.62937719368892 L489.6518693919643,209.3056046482361 M489.6518693919643,209.3056046482361 L566.6301023834676,229.06762660232744 M566.6301023834676,229.06762660232744 L633.9286419555428,258.7651171290563 M166.04849034314975,541.2192170098224 L112.34271294853534,503.3067019803275 M112.34271294853534,503.3067019803275 L75.3585354021925,459.39013430545674 M75.3585354021925,459.39013430545674 L57.2483261632151,412.0178221017377 M57.2483261632151,412.0178221017377 L59.05661046865862,363.9489604650262 M59.05661046865862,363.9489604650262 L80.67144255095627,317.9768190997329 M80.67144255095627,317.9768190997329 L120.84351022835472,276.7649585833533 M120.84351022835472,276.7649585833533 L177.24433784445864,242.71370769960413 M177.24433784445864,242.71370769960413 L246.58978355524596,217.8051518215634 M246.58978355524596,217.8051518215634 L324.8399533677439,203.4826310997123 M324.8399533677439,203.4826310997123 L407.4612501024967,200.57332155512086 M407.4612501024967,200.57332155512086 L489.65375778317684,209.2495489142657 M489.65375778317684,209.2495489142657 L566.631991649163,229.01157065105872 M566.631991649163,229.01157065105872 L633.93053199508,258.7090608512535" stroke="black"  stroke-width="4"  fill="red"/></svg>