<svg viewBox="0 0 800 800" xmlns="http://www.w3.org/2000/svg"><path d="M-91.79589891951639,276.1442105390174 L-91.79589506548416,276.14395833279343 M891.7958838716343,332.6472373445017 L891.7958989195163,332.6469845355808 M-91.79589891951639,276.1442105390174 L-66.52788405976219,266.5121682188138 M-66.52788405976219,266.5121682188138 L-40.65796463411789,257.49210602322216 M-40.65796463411789,257.49210602322216 L-14.223369436707117,249.0950697540917 M-14.223369436707117,249.0950697540917 L12.738168975260123,241.33129590008514 M12.738168975260123,241.33129590008514 L40.18839165689792,234.2101902150049 M40.18839165689792,234.2101902150049 L68.08863612168159,227.74033711238997 M68.08863612168159,227.74033711238997 L96.39982910318554,221.92950406088517 M96.39982910318554,221.92950406088517 L125.08256257319988,216.78467394048766 M125.08256257319988,216.78467394048766 L154.09704879275546,212.31194645077107 M154.09704879275546,212.31194645077107 L183.40326939761326,208.51668248703913 M183.40326939761326,208.51668248703913 L212.96094350809108,205.4033928009635 M212.96094350809108,205.4033928009635 L242.72948950912473,202.97570838501588 M242.72948950912473,202.97570838501588 L272.66823239163546,201.2365636623341 M272.66823239163546,201.2365636623341 L302.736285827292,200.1879684172468 M302.736285827292,200.1879684172468 L332.89265663523815,199.8311681214508 M332.89265663523815,199.8311681214508 L363.0963215575771,200.1666172631907 M363.0963215575771,200.1666172631907 L393.3061132345372,201.19386330670466 M393.3061132345372,201.19386330670466 L423.48086291263303,202.91176025420157 M423.48086291263303,202.91176025420157 L453.57949426906976,205.31822244192688 M453.57949426906976,205.31822244192688 L483.5608331267747,208.41043472512445 M483.5608331267747,208.41043472512445 L513.3837926043618,212.1847100323189 M513.3837926043618,212.1847100323189 L543.0076472667972,216.6366183958944 M543.0076472667972,216.6366183958944 L572.3915470557624,221.76080193447171 M572.3915470557624,221.76080193447171 L601.4948353894886,227.5511985135969 M601.4948353894886,227.5511985135969 L630.2771985146505,234.00083387037796 M630.2771985146505,234.00083387037796 L658.6984805399941,241.1019838793669 M658.6984805399941,241.1019838793669 L686.7188418225053,248.84604171448927 M686.7188418225053,248.84604171448927 L714.2989176703006,257.22371727225664 M714.2989176703006,257.22371727225664 L741.3993567911325,266.2247047559679 M741.3993567911325,266.2247047559679 L767.9815367170511,275.83803718720844 M767.9815367170511,275.83803718720844 L794.0071537320498,286.0518893293222 M794.0071537320498,286.0518893293222 L819.4383348870372,296.85355602064 M819.4383348870372,296.85355602064 L844.237914029665,308.2296676311955 M844.237914029665,308.2296676311955 L868.369120627671,320.16592964503127 M868.369120627671,320.16592964503127 L891.7958838716343,332.6472373445017 M-91.79589506548416,276.14395833279343 L-66.52787992354627,266.51191611596016 M-66.52787992354627,266.51191611596016 L-40.65796020916844,257.49185401733746 M-40.65796020916844,257.49185401733746 L-14.223364716859123,249.0948178386226 M-14.223364716859123,249.0948178386226 L12.7381739957857,241.3310440683366 M12.7381739957857,241.3310440683366 L40.188396983492,234.20993846015165 M40.188396983492,234.20993846015165 L68.08864175934593,227.74008542748618 M68.08864175934593,227.74008542748618 L96.39983505653197,221.92925243887646 M96.39983505653197,221.92925243887646 L125.08256884644857,216.78442237422098 M125.08256884644857,216.78442237422098 L154.097055389734,212.31169493300695 M154.097055389734,212.31169493300695 L183.40327632175592,208.51643101046204 M183.40327632175592,208.51643101046204 L212.96095076243796,205.4031413581938 M212.96095076243796,205.4031413581938 L242.72949709632007,202.97545696862187 M242.72949709632007,202.97545696862187 L272.66824031392775,201.23631226484213 M272.66824031392775,201.23631226484213 L302.73629408653187,200.18771703115465 M302.73629408653187,200.18771703115465 L332.892665232878,199.83091673923798 M332.892665232878,199.83091673923798 L363.09633049467084,200.1663658773307 M363.09633049467084,200.1663658773307 L393.3061225117376,201.19361190967686 M393.3061225117376,201.19361190967686 L423.48087253019185,202.9115088385024 M423.48087253019185,202.9115088385024 L453.5795042268371,205.31797100008237 M453.5795042268371,205.31797100008237 L483.5608434241956,208.41018324970082 M483.5608434241956,208.41018324970082 L513.3838032404758,212.18445851593515 M513.3838032404758,212.18445851593515 L543.007658240241,216.63636683123252 M543.007658240241,216.63636683123252 L572.3915583647631,221.76055031429007 M572.3915583647631,221.76055031429007 L601.4948470318654,227.55094683073935 M601.4948470318654,227.55094683073935 L630.2772104878138,234.00058211778685 M630.2772104878138,234.00058211778685 L658.6984928409429,241.10173205009312 M658.6984928409429,241.10173205009312 L686.7188544478272,248.84578980170363 M686.7188544478272,248.84578980170363 L714.2989306161728,257.2234652692597 M714.2989306161728,257.2234652692597 L741.399370053316,266.2244526562022 M741.399370053316,266.2244526562022 L767.9815502908957,275.8377849842675 M767.9815502908957,275.8377849842675 L794.0071676124896,286.05163701696085 M794.0071676124896,286.05163701696085 L819.4383490685921,296.8533035927852 M819.4383490685921,296.8533035927852 L844.2379285064417,308.22941508195424 M844.2379285064417,308.22941508195424 L868.3691353933609,320.1656769687014 M868.3691353933609,320.1656769687014 L891.7958989195163,332.6469845355808 M469.4316435505841,600.169083260762 L469.43165403818557,600.1688276838782 M891.7958838716343,332.6472373445017 L469.4316435505841,600.169083260762 M891.7958989195163,332.6469845355808 L469.43165403818557,600.1688276838782 M469.4316435505841,600.169083260762 L-91.79589891951639,276.1442105390174 M469.43165403818557,600.1688276838782 L-91.79589506548416,276.14395833279343" stroke="black"  stroke-width="4"  fill="red"/></svg>