<svg viewBox="0 0 800 800" xmlns="http://www.w3.org/2000/svg"><path d="M316.52865348490013,607.949053128752 L316.5295288027846,607.9191099623349 M669.5526113430824,552.218200710151 L669.5534905915993,552.188258149019 M316.52865348490013,607.949053128752 L669.5526113430824,552.218200710151 M316.5295288027846,607.9191099623349 L669.5534905915993,552.188258149019 M752.980423813613,344.2693095942468 L752.9813038644352,344.2393692920541 M669.5526113430824,552.218200710151 L752.980423813613,344.2693095942468 M669.5534905915993,552.188258149019 L752.9813038644352,344.2393692920541 M483.473876202057,192.08088551977198 L483.474753126633,192.05094687124802 M752.980423813613,344.2693095942468 L483.473876202057,192.08088551977198 M752.9813038644352,344.2393692920541 L483.474753126633,192.05094687124802 M130.5360968404566,247.78211726323025 L130.53696983636473,247.7521780094139 M483.473876202057,192.08088551977198 L130.5360968404566,247.78211726323025 M483.474753126633,192.05094687124802 L130.53696983636473,247.7521780094139 M47.018696135579376,455.7013879923452 L47.0195683271304,455.6714464795841 M130.5360968404566,247.78211726323025 L47.018696135579376,455.7013879923452 M130.53696983636473,247.7521780094139 L47.0195683271304,455.6714464795841 M47.018696135579376,455.7013879923452 L316.52865348490013,607.949053128752 M47.0195683271304,455.6714464795841 L316.5295288027846,607.9191099623349" stroke="black"  stroke-width="4"  fill="red"/></svg>