<svg viewBox="0 0 800 800" xmlns="http://www.w3.org/2000/svg"><path d="M544.3184560654307,573.1954629244258 L544.3184632754998,573.1953248581005 M544.3172964262627,573.1962156969633 L544.3173036363188,573.1960776306307 M544.3184560654307,573.1954629244258 L544.3172964262627,573.1962156969633 M544.3184632754998,573.1953248581005 L544.3173036363188,573.1960776306307 M532.7084116089312,580.7320509132912 L532.7084186907778,580.731912773134 M544.3172964262627,573.1962156969633 L532.7084116089312,580.7320509132912 M544.3173036363188,573.1960776306307 L532.7084186907778,580.731912773134 M-80.35225083103376,225.99308246799745 L-80.35225096060043,225.99294802936754 M532.7084116089312,580.7320509132912 L-80.35225083103376,225.99308246799745 M532.7084186907778,580.731912773134 L-80.35225096060043,225.99294802936754 M-68.70421085222284,219.2680834506994 L-68.70421085222284,219.26794908670865 M-80.35225083103376,225.99308246799745 L-68.70421085222284,219.2680834506994 M-80.35225096060043,225.99294802936754 L-68.70421085222284,219.26794908670865 M399.7704131609902,286.5535903941463 L399.7704184241892,286.5534552908584 M-68.70421085222284,219.2680834506994 L-56.23379037168854,226.2038695795726 M-56.23379037168854,226.2038695795726 L-43.29547988057186,232.8809669330402 M-43.29547988057186,232.8809669330402 L-29.9076012002497,239.28826380671183 M-29.9076012002497,239.28826380671183 L-16.08934431736992,245.41503709066433 M-16.08934431736992,245.41503709066433 L-1.8607469982602538,251.25097341344974 M-1.8607469982602538,251.25097341344974 L12.75734136504883,256.7861977287141 M12.75734136504883,256.7861977287141 L27.743291508785717,262.01129508461514 M27.743291508785717,262.01129508461514 L43.074722643478594,266.9173299838644 M43.074722643478594,266.9173299838644 L58.72856601814806,271.49588527217804 M58.72856601814806,271.49588527217804 L74.68106862907223,275.7390580137625 M74.68106862907223,275.7390580137625 L90.90787798796066,279.6395082511721 M90.90787798796066,279.6395082511721 L107.38406958917233,283.1904629199964 M107.38406958917233,283.1904629199964 L124.08417014184101,286.38572226355205 M124.08417014184101,286.38572226355205 L140.98227216911857,289.21970807016606 M140.98227216911857,289.21970807016606 L158.05201268067322,291.68745420216953 M158.05201268067322,291.68745420216953 L175.2666883451284,293.7846223864773 M175.2666883451284,293.7846223864773 L192.5992482718193,295.5075157831409 M192.5992482718193,295.5075157831409 L210.0224254489516,296.85310604500285 M210.0224254489516,296.85310604500285 L227.50870495411584,297.81900679148845 M227.50870495411584,297.81900679148845 L245.03047958925197,298.40350644821814 M245.03047958925197,298.40350644821814 L262.56003532446107,298.6055947797676 M262.56003532446107,298.6055947797676 L280.069634971043,298.4248857045152 M280.069634971043,298.4248857045152 L297.531588983053,297.86172047571023 M297.531588983053,297.86172047571023 L314.9182671261166,296.91708823338706 M314.9182671261166,296.91708823338706 L332.20222339292184,295.59265065239344 M332.20222339292184,295.59265065239344 L349.3562303199534,293.89075492836895 M349.3562303199534,293.89075492836895 L366.3532827396807,291.8143983530785 M366.3532827396807,291.8143983530785 L383.16676596785726,289.3672443815546 M383.16676596785726,289.3672443815546 L399.7704131609902,286.5535903941463 M-68.70421085222284,219.26794908670865 L-56.2337902329694,226.2037351386058 M-56.2337902329694,226.2037351386058 L-43.29547959761709,232.88083241813564 M-43.29547959761709,232.88083241813564 L-29.90760076774893,239.288129221011 M-29.90760076774893,239.288129221011 L-16.0893437302322,245.4149024374081 M-16.0893437302322,245.4149024374081 L-1.8607462516264377,251.2508386959733 M-1.8607462516264377,251.2508386959733 L12.757342275793519,256.78606295044204 M12.757342275793519,256.78606295044204 L27.7432925880002,262.01116024905707 M27.7432925880002,262.01116024905707 L43.07472389525435,266.9171950946098 M43.07472389525435,266.9171950946098 L58.72856744629826,271.49575033289096 M58.72856744629826,271.49575033289096 L74.6810702371215,275.73892302817654 M74.6810702371215,275.73892302817654 L90.9078797791359,279.63937322308533 M90.9078797791359,279.63937322308533 L107.38407156639323,283.19032785326556 M107.38407156639323,283.19032785326556 L124.08417230771227,286.3855871620879 M124.08417230771227,286.3855871620879 L140.98227452592278,289.21957293792707 M140.98227452592278,289.21957293792707 L158.05201523036385,291.68731904315666 M158.05201523036385,291.68731904315666 L175.26669108932424,293.78448720472886 M175.26669108932424,293.78448720472886 L192.59925121179992,295.50738058272657 M192.59925121179992,295.50738058272657 L210.0224285856532,296.85297083001785 M210.0224285856532,296.85297083001785 L227.50870828812833,297.81887156604836 M227.50870828812833,297.81887156604836 L245.03048312081717,298.4033712164529 M245.03048312081717,298.4033712164529 L262.5600390534713,298.6054595458159 M262.5600390534713,298.6054595458159 L280.0696388970414,298.42475047251867 M280.0696388970414,298.42475047251867 L297.53159310523415,297.86158524980783 M297.53159310523415,297.86158524980783 L314.9182714433281,296.9169530177095 M314.9182714433281,296.9169530177095 L332.2022279036679,295.592515451057 M332.2022279036679,295.592515451057 L349.356235022398,293.8906197454703 M349.356235022398,293.8906197454703 L366.3532876316524,291.81426319268894 M366.3532876316524,291.81426319268894 L383.1667710468547,289.3671092477142 M383.1667710468547,289.3671092477142 L399.7704184241892,286.5534552908584 M401.116453078072,286.0672985795273 L401.11645835597346,286.06716348152275 M399.7704131609902,286.5535903941463 L399.7261189885071,286.43849479722 M399.7261189885071,286.43849479722 L399.7298528719306,286.32181060552165 M399.7298528719306,286.32181060552165 L399.78142830310674,286.21027625189305 M399.78142830310674,286.21027625189305 L399.87776597659365,286.11035674820243 M399.87776597659365,286.11035674820243 L400.0133665879632,286.0278457158168 M400.0133665879632,286.0278457158168 L400.1803230290104,285.96755140673395 M400.1803230290104,285.96755140673395 L400.3689736630431,285.9329199160873 M400.3689736630431,285.9329199160873 L400.56838266489865,285.92598318661265 M400.56838266489865,285.92598318661265 L400.76696957951015,285.94714969138 M400.76696957951015,285.94714969138 L400.95326090252445,285.9951835310898 M400.95326090252445,285.9951835310898 L401.116453078072,286.0672985795273 M399.7704184241892,286.5534552908584 L399.7261242511096,286.43835969518256 M399.7261242511096,286.43835969518256 L399.72985813447417,286.3216755047519 M399.72985813447417,286.3216755047519 L399.78143356613407,286.2101411523351 M399.78143356613407,286.2101411523351 L399.877771240617,286.11022164973014 M399.877771240617,286.11022164973014 L400.0133718534389,286.02771061824103 M400.0133718534389,286.02771061824103 L400.18032829630977,285.9674163098133 M400.18032829630977,285.9674163098133 L400.3689789324318,285.932784819543 M400.3689789324318,285.932784819543 L400.5683879365215,285.9258480901437 M400.5683879365215,285.9258480901437 L400.76697485338195,285.947014594681 M400.76697485338195,285.947014594681 L400.9532661785306,285.99504843386893 M400.9532661785306,285.99504843386893 L401.11645835597346,286.06716348152275 M401.33869040881507,286.2677982530353 L401.33869568938644,286.2676631528524 M401.116453078072,286.0672985795273 L401.2083620215334,286.12727000349804 M401.2083620215334,286.12727000349804 L401.28310977205217,286.19470389414363 M401.28310977205217,286.19470389414363 L401.33869040881507,286.2677982530353 M401.11645835597346,286.06716348152275 L401.2083673005195,286.12713490484197 M401.2083673005195,286.12713490484197 L401.28311505193585,286.1945687947548 M401.28311505193585,286.1945687947548 L401.33869568938644,286.2676631528524 M880.3522401787014,355.0612266008694 L880.3522509606004,355.06109076195173 M401.33869040881507,286.2677982530353 L417.92557271777594,283.45699445307343 M417.92557271777594,283.45699445307343 L434.69548473614316,281.01650890732 M434.69548473614316,281.01650890732 L451.62793056239343,278.9488864879806 M451.62793056239343,278.9488864879806 L468.7022050889093,277.25623489137524 M468.7022050889093,277.25623489137524 L485.89755954841985,275.9402920342216 M485.89755954841985,275.9402920342216 L503.19305397575977,275.0023984565436 M503.19305397575977,275.0023984565436 L520.5677901921925,274.4435211581641 M520.5677901921925,274.4435211581641 L538.0007653192115,274.26424525470776 M538.0007653192115,274.26424525470776 L555.4708471704299,274.46473349111915 M555.4708471704299,274.46473349111915 L572.9569937306022,275.04479971871984 M572.9569937306022,275.04479971871984 L590.4380638505257,276.0038353679973 M590.4380638505257,276.0038353679973 L607.8928555481297,277.34086033415264 M607.8928555481297,277.34086033415264 L625.3002792025826,279.05448948169436 M625.3002792025826,279.05448948169436 L642.6392032515809,281.1430132840196 M642.6392032515809,281.1430132840196 L659.8885417030937,283.60423717347135 M659.8885417030937,283.60423717347135 L677.02723674943,286.43565466745514 M677.02723674943,286.43565466745514 L694.0342413832687,289.63430588174947 M694.0342413832687,289.63430588174947 L710.8887146034325,293.19690750973297 M710.8887146034325,293.19690750973297 L727.569733572935,297.1196989912262 M727.569733572935,297.1196989912262 L744.0566234421518,301.39862380065745 M744.0566234421518,301.39862380065745 L760.3287423215226,306.02917403140714 M760.3287423215226,306.02917403140714 L776.3656143001332,311.0064231399389 M776.3656143001332,311.0064231399389 L792.1469261542364,316.32510065445103 M792.1469261542364,316.32510065445103 L807.6524358398345,321.97953987061464 M807.6524358398345,321.97953987061464 L822.8622421845583,327.963624487345 M822.8622421845583,327.963624487345 L837.756541887375,334.2709257074205 M837.756541887375,334.2709257074205 L852.3158113687454,340.89452056184587 M852.3158113687454,340.89452056184587 L866.520756552044,347.8271924179421 M866.520756552044,347.8271924179421 L880.3522401787014,355.0612266008694 M401.33869568938644,286.2676631528524 L417.9255781821745,283.4568593834441 M417.9255781821745,283.4568593834441 L434.69549038659454,281.01637386424215 M434.69549038659454,281.01637386424215 L451.6279364009275,278.94875146741515 M451.6279364009275,278.94875146741515 L468.7022111173585,277.2560998892509 M468.7022111173585,277.2560998892509 L485.89756576841967,275.94015704644164 M485.89756576841967,275.94015704644164 L503.1930603887473,275.00226347899087 M503.1930603887473,275.00226347899087 L520.5677967994072,274.44338618670736 M520.5677967994072,274.44338618670736 L538.0007721216936,274.2641102852066 M538.0007721216936,274.2641102852066 L555.4708541690198,274.4645985194309 M555.4708541690198,274.4645985194309 L572.9570009259402,275.0446647407048 M572.9570009259402,275.0446647407048 L590.438071243051,276.0037003795245 M590.438071243051,276.0037003795245 L607.8928631380794,277.3407253311061 M607.8928631380794,277.3407253311061 L625.3002869899914,279.0543544599787 M625.3002869899914,279.0543544599787 L642.6392112362793,281.14287823956505 M642.6392112362793,281.14287823956505 L659.8885498847081,283.60410210224074 M659.8885498847081,283.60410210224074 L677.0272451273805,286.4355195654485 M677.0272451273805,286.4355195654485 L694.034249956769,289.6341707450106 M694.034249956769,289.6341707450106 L710.8887233714878,293.1967723343543 M710.8887233714878,293.1967723343543 L727.5697425343411,297.11956377335514 M727.5697425343411,297.11956377335514 L744.0566325954954,301.39848853650074 M744.0566325954954,301.39848853650074 L760.3287516651773,306.02903871723703 M760.3287516651773,306.02903871723703 L776.365623832262,311.00628777209874 M776.365623832262,311.00628777209874 L792.1469358727874,316.3249652293597 M792.1469358727874,316.3249652293597 L807.6524457425404,321.9794043847719 M807.6524457425404,321.9794043847719 L822.8622522689371,327.9634889373373 M822.8622522689371,327.9634889373373 L837.7565521507273,334.2707900899244 M837.7565521507273,334.2707900899244 L852.3158218081552,340.8943848736345 M852.3158218081552,340.8943848736345 L866.5207671643756,347.82705665588844 M866.5207671643756,347.82705665588844 L880.3522509606004,355.06109076195173 M880.3522401787014,355.0612266008694 L544.3184560654307,573.1954629244258 M880.3522509606004,355.06109076195173 L544.3184632754998,573.1953248581005" stroke="black"  stroke-width="4"  fill="red"/></svg>