<svg viewBox="0 0 800 800" xmlns="http://www.w3.org/2000/svg"><path d="M332.23069521318575,512.2386438630709 L332.2307006272873,512.2386189093099 M628.4082596356134,319.0573302779624 L628.4082662317685,319.05730856767303 M332.23069521318575,512.2386438630709 L326.6086630708039,510.11466140300627 M326.6086630708039,510.11466140300627 L321.06909587399855,507.9629405594648 M321.06909587399855,507.9629405594648 L315.6137819226615,505.784558701082 M315.6137819226615,505.784558701082 L310.244485235845,503.58059247875246 M310.244485235845,503.58059247875246 L304.9628572450026,501.35212001130344 M304.9628572450026,501.35212001130344 L299.77049788870295,499.10024260681143 M299.77049788870295,499.10024260681143 L294.6689945516604,496.82599167270007 M294.6689945516604,496.82599167270007 L289.6597776184683,494.53048774298907 M289.6597776184683,494.53048774298907 L284.74427395247596,492.2147832490196 M284.74427395247596,492.2147832490196 L279.9238105096615,489.8799678759118 M279.9238105096615,489.8799678759118 L275.1996845771463,487.52708778041944 M275.1996845771463,487.52708778041944 L270.57308758740965,485.15722223439735 M270.57308758740965,485.15722223439735 L266.0451623215897,482.771433493701 M266.0451623215897,482.771433493701 L261.61699667997675,480.3707639205552 M261.61699667997675,480.3707639205552 L257.2896466393854,477.95624394383725 M257.2896466393854,477.95624394383725 L253.06399755865107,475.52894387243435 M253.06399755865107,475.52894387243435 L248.94097630658086,473.0898780443985 M248.94097630658086,473.0898780443985 L244.9213915867624,470.6400836614016 M244.9213915867624,470.6400836614016 L241.0060350428828,468.18055393080033 M241.0060350428828,468.18055393080033 L237.1955952263197,465.7123086794398 M237.1955952263197,465.7123086794398 L233.49074704636303,463.2363238472744 M233.49074704636303,463.2363238472744 L229.89205682982936,460.7535981942124 M229.89205682982936,460.7535981942124 L226.40008435726122,458.2650881226441 M226.40008435726122,458.2650881226441 L223.01524352037188,455.771791031019 M223.01524352037188,455.771791031019 L219.73805204288908,453.27460059017403 M219.73805204288908,453.27460059017403 L216.56877694747402,450.7745121004432 M216.56877694747402,450.7745121004432 L213.50778919200252,448.27241645957713 M213.50778919200252,448.27241645957713 L210.55535506669514,445.7692243261983 M210.55535506669514,445.7692243261983 L207.7116326455182,443.2658633720772 M207.7116326455182,443.2658633720772 L204.97685574935474,440.7631798687719 M204.97685574935474,440.7631798687719 L202.35108026097157,438.26207652443685 M202.35108026097157,438.26207652443685 L199.83436638022567,435.7634134867578 M199.83436638022567,435.7634134867578 L197.42678317612672,433.26801035825497 M197.42678317612672,433.26801035825497 L195.12825346392572,430.7767194174529 M195.12825346392572,430.7767194174529 L192.93872202153705,428.2903560538336 M192.93872202153705,428.2903560538336 L190.85809113627022,425.8097079015327 M190.85809113627022,425.8097079015327 L188.8861753413945,423.33558207217015 M188.8861753413945,423.33558207217015 L187.02282663419294,420.86872214338416 M187.02282663419294,420.86872214338416 L185.2677386763072,418.40992822490506 M185.2677386763072,418.40992822490506 L183.6207219251719,415.95990189240075 M183.6207219251719,415.95990189240075 L182.08141487630382,413.51939530247324 M182.08141487630382,413.51939530247324 L180.6494803946008,411.0891233080535 M180.6494803946008,411.0891233080535 L179.32454552145373,408.66977357027406 M179.32454552145373,408.66977357027406 L178.10620086758377,406.2620371794441 M178.10620086758377,406.2620371794441 L176.99397579821084,403.8665992549211 M176.99397579821084,403.8665992549211 L175.9874436731153,401.484084097895 M175.9874436731153,401.484084097895 L175.0860629709996,399.11515224849745 M175.0860629709996,399.11515224849745 L174.28935134951405,396.7604089265854 M174.28935134951405,396.7604089265854 L173.59666065845624,394.42050674842744 M173.59666065845624,394.42050674842744 L173.00750713750006,392.0959898478193 M173.00750713750006,392.0959898478193 L172.5211945659189,389.78749280571446 M172.5211945659189,389.78749280571446 L172.13713286016753,387.4955520061304 M172.13713286016753,387.4955520061304 L171.85466546932298,385.22072508453914 M171.85466546932298,385.22072508453914 L171.67311337418562,382.9635464817609 M171.67311337418562,382.9635464817609 L171.59173376823162,380.72457175092484 M171.59173376823162,380.72457175092484 L171.60987144635453,378.5042835612895 M171.60987144635453,378.5042835612895 L171.72674376593557,376.30319307662904 M171.72674376593557,376.30319307662904 L171.94158142767367,374.12180055510385 M171.94158142767367,374.12180055510385 L172.2536248771978,371.960565680126 M172.2536248771978,371.960565680126 L172.66211642268456,369.81993420863034 M172.66211642268456,369.81993420863034 L173.1661883683172,367.7003850881803 M173.1661883683172,367.7003850881803 L173.76506450253692,365.6023283666725 M173.76506450253692,365.6023283666725 L174.45786055920257,363.52620784896885 M174.45786055920257,363.52620784896885 L175.2437763302022,361.4724250820867 M175.2437763302022,361.4724250820867 L176.12196725827016,359.44135295880795 M176.12196725827016,359.44135295880795 L177.0914881028949,357.43342774803403 M177.0914881028949,357.43342774803403 L178.15150783214415,355.4489991660487 M178.15150783214415,355.4489991660487 L179.30114499639774,353.4884146795938 M179.30114499639774,353.4884146795938 L180.53942822970248,351.5520606252724 M180.53942822970248,351.5520606252724 L181.86553771230695,349.6402515182822 M181.86553771230695,349.6402515182822 L183.2784708296839,347.75333725286777 M183.2784708296839,347.75333725286777 L184.77738108075675,345.89162577161085 M184.77738108075675,345.89162577161085 L186.36126116618664,344.055440445425 M186.36126116618664,344.055440445425 L188.02920334388887,342.24507187295677 M188.02920334388887,342.24507187295677 L189.7802781351935,340.4608186358959 M189.7802781351935,340.4608186358959 L191.61350608706016,338.70295157862085 M191.61350608706016,338.70295157862085 L193.52793592749492,336.9717659956086 M193.52793592749492,336.9717659956086 L195.52261862711202,335.26749465790056 M195.52261862711202,335.26749465790056 L197.59658970294845,333.5904073718762 M197.59658970294845,333.5904073718762 L199.74887255995145,331.94075963380226 M199.74887255995145,331.94075963380226 L201.9785294158189,330.3187580666398 M201.9785294158189,330.3187580666398 L204.28454034234392,328.7246507940921 M204.28454034234392,328.7246507940921 L206.66594165905326,327.158668888384 M206.66594165905326,327.158668888384 L209.12180824760298,325.62099609012824 M209.12180824760298,325.62099609012824 L211.6510788407295,324.1118658224116 M211.6510788407295,324.1118658224116 L214.25284135129084,322.63144961232854 M214.25284135129084,322.63144961232854 L216.92609121157273,321.17995748172297 M216.92609121157273,321.17995748172297 L219.6698195556171,319.7575653306387 M219.6698195556171,319.7575653306387 L222.4830969320144,318.3644422310863 M222.4830969320144,318.3644422310863 L225.36493958200128,317.00075829748135 M225.36493958200128,317.00075829748135 L228.31430996108725,315.6666848815274 M228.31430996108725,315.6666848815274 L231.33024977335845,314.36238726825025 M231.33024977335845,314.36238726825025 L234.41182546123366,313.08798386664324 M234.41182546123366,313.08798386664324 L237.55798269660568,311.8436477557218 M237.55798269660568,311.8436477557218 L240.76781200837559,310.62949459346606 M240.76781200837559,310.62949459346606 L244.04030153593874,309.4456762979272 M244.04030153593874,309.4456762979272 L247.3744454837132,308.29231791549336 M247.3744454837132,308.29231791549336 L250.76932104546245,307.1695181996674 M250.76932104546245,307.1695181996674 L254.22392737276869,306.0774199896589 M254.22392737276869,306.0774199896589 L257.73729824926033,305.01612550793436 M257.73729824926033,305.01612550793436 L261.30842474763415,303.9857446164264 M261.30842474763415,303.9857446164264 L264.93640319813267,302.98636937196443 M264.93640319813267,302.98636937196443 L268.6202094148996,302.0180998993927 M268.6202094148996,302.0180998993927 L272.3589064720195,301.081037212969 M272.3589064720195,301.081037212969 L276.151478109663,300.17527976353 M276.151478109663,300.17527976353 L279.99703318892296,299.30086941645 M279.99703318892296,299.30086941645 L283.89459728308975,298.45791487677695 M283.89459728308975,298.45791487677695 L287.84316168230293,297.646490342545 M287.84316168230293,297.646490342545 L291.8417740052572,296.86668632760717 M291.8417740052572,296.86668632760717 L295.88948675173583,296.1185486838268 M295.88948675173583,296.1185486838268 L299.9853712566378,295.40212928960693 M299.9853712566378,295.40212928960693 L304.128448793124,294.7175111519398 M304.128448793124,294.7175111519398 L308.31772347622143,294.064772595725 M308.31772347622143,294.064772595725 L312.5522941759141,293.44393043139706 M312.5522941759141,293.44393043139706 L316.8312324512532,292.85504018351907 M316.8312324512532,292.85504018351907 L321.1535107878706,292.298174598472 M321.1535107878706,292.298174598472 L325.5182858231768,291.77332783021353 M325.5182858231768,291.77332783021353 L329.92448305680944,291.28060746322774 M329.92448305680944,291.28060746322774 L334.3711867858905,290.82003565630663 M334.3711867858905,290.82003565630663 L338.8575267421811,290.3916063362644 M338.8575267421811,290.3916063362644 L343.38246940088345,289.9954020216468 M343.38246940088345,289.9954020216468 L347.9451240992564,289.63141696426345 M347.9451240992564,289.63141696426345 L352.54450375276144,289.2997093094443 M352.54450375276144,289.2997093094443 L357.179707032842,289.0002775386638 M357.179707032842,289.0002775386638 L361.84976577373504,288.733148820926 M361.84976577373504,288.733148820926 L366.5536636884135,288.49838425129184 M366.5536636884135,288.49838425129184 L371.2905274756388,288.2959591919125 M371.2905274756388,288.2959591919125 L376.05943369213173,288.1258831182432 M376.05943369213173,288.1258831182432 L380.8593785631174,287.9881907803739 M380.8593785631174,287.9881907803739 L385.68940928203165,287.8828929916457 M385.68940928203165,287.8828929916457 L390.5486226607277,287.8099766980425 M390.5486226607277,287.8099766980425 L395.435986609403,287.76948408012845 M395.435986609403,287.76948408012845 L400.35062337563727,287.76137725956784 M400.35062337563727,287.76137725956784 L405.29154372076755,287.78567888222767 M405.29154372076755,287.78567888222767 L410.25779289208344,287.8423842644603 M410.25779289208344,287.8423842644603 L415.24839694989396,287.93148950123066 M415.24839694989396,287.93148950123066 L420.26238703795025,288.0529984883177 M420.26238703795025,288.0529984883177 L425.2988715816614,288.20685784074857 M425.2988715816614,288.20685784074857 L430.35674862822134,288.39313272016034 M430.35674862822134,288.39313272016034 L435.43520543201885,288.6117200977763 M435.43520543201885,288.6117200977763 L440.53310561233707,288.86268916279505 M440.53310561233707,288.86268916279505 L445.6496145097717,289.14594507517944 M445.6496145097717,289.14594507517944 L450.78361946699033,289.46153534977805 M450.78361946699033,289.46153534977805 L455.9342580937889,289.80937222072873 M455.9342580937889,289.80937222072873 L461.10043487045755,290.1894803431931 M461.10043487045755,290.1894803431931 L466.28125690931324,290.6017787289864 M466.28125690931324,290.6017787289864 L471.47560300551504,291.04630021946764 M471.47560300551504,291.04630021946764 L476.68254271958403,291.52296902761 M476.68254271958403,291.52296902761 L481.9010788678888,292.0317411825456 M481.9010788678888,292.0317411825456 L487.13014451009235,292.57260372812834 M487.13014451009235,292.57260372812834 L492.36875902615384,293.1454911532859 M492.36875902615384,293.1454911532859 L497.6158721564111,293.7503691714868 M497.6158721564111,293.7503691714868 L502.87051762096803,294.38715045050526 M502.87051762096803,294.38715045050526 L508.13151142305605,295.0558649100744 M508.13151142305605,295.0558649100744 L513.3979492046908,295.7563745335966 M513.3979492046908,295.7563745335966 L518.6687101384987,296.4886590263051 M518.6687101384987,296.4886590263051 L523.9427539016162,297.25264428596444 M523.9427539016162,297.25264428596444 L529.2190193635961,298.04825898449485 M529.2190193635961,298.04825898449485 L534.4963810141921,298.8754649163143 M534.4963810141921,298.8754649163143 L539.7738335377439,299.7341386688564 M539.7738335377439,299.7341386688564 L545.0502157907383,300.6242494190687 M545.0502157907383,300.6242494190687 L550.3244840298025,301.5456802975715 M550.3244840298025,301.5456802975715 L555.5955231583991,302.4983456744236 M555.5955231583991,302.4983456744236 L560.862211465754,303.48216668896004 M560.862211465754,303.48216668896004 L566.1233902307431,304.49706292385963 M566.1233902307431,304.49706292385963 L571.3779408202499,305.5429311107206 M571.3779408202499,305.5429311107206 L576.6247635490527,306.61963914025796 M576.6247635490527,306.61963914025796 L581.8626880451257,307.7270863757109 M581.8626880451257,307.7270863757109 L587.0905342360747,308.86517797914354 M587.0905342360747,308.86517797914354 L592.3071321760547,310.0337877002481 M592.3071321760547,310.0337877002481 L597.5113074699314,311.2327963151225 M597.5113074699314,311.2327963151225 L602.7018871686607,312.46205047096714 M602.7018871686607,312.46205047096714 L607.8776591265312,313.72143684904097 M607.8776591265312,313.72143684904097 L613.0374044487494,315.010805582015 M613.0374044487494,315.010805582015 L618.1799111607845,316.33001657546185 M618.1799111607845,316.33001657546185 L623.3039189173571,317.67892433609876 M623.3039189173571,317.67892433609876 L628.4082596356134,319.0573302779624 M332.2307006272873,512.2386189093099 L326.60866842254393,510.1146364813136 M326.60866842254393,510.1146364813136 L321.0691011641952,507.9629156703408 M321.0691011641952,507.9629156703408 L315.61378715215426,505.78453384501375 M315.61378715215426,505.78453384501375 L310.24449040549314,503.5805676562136 M310.24449040549314,503.5805676562136 L304.9628623556846,501.3520952227544 M304.9628623556846,501.3520952227544 L299.7705029413155,499.10021785269834 M299.7705029413155,499.10021785269834 L294.6689995471172,496.82596695345626 M294.6689995471172,496.82596695345626 L289.65978255769903,494.5304630590332 M289.65978255769903,494.5304630590332 L284.7442788364252,492.21475860075685 M284.7442788364252,492.21475860075685 L279.92381533928835,489.8799432637329 M279.92381533928835,489.8799432637329 L275.19968935342195,487.5270632047013 M275.19968935342195,487.5270632047013 L270.5730923113184,485.157197695502 M270.5730923113184,485.157197695502 L266.045166994126,482.77140899197644 M266.045166994126,482.77140899197644 L261.61700130214535,480.370739456335 M261.61700130214535,480.370739456335 L257.2896512122006,477.9562195174408 M257.2896512122006,477.9562195174408 L253.06400208313482,475.5289194841659 M253.06400208313482,475.5289194841659 L248.94098078376248,473.0898536945478 M248.94098078376248,473.0898536945478 L244.9213960176785,470.6400593502438 M244.9213960176785,470.6400593502438 L241.0060394285747,468.180529658596 M241.0060394285747,468.180529658596 L237.19559956783382,465.7122844464347 M237.19559956783382,465.7122844464347 L233.49075134475027,463.23629965369986 M233.49075134475027,463.23629965369986 L229.89206108614303,460.7535740402848 M229.89206108614303,460.7535740402848 L226.40008857255782,458.2650640085654 M226.40008857255782,458.2650640085654 L223.01524769570904,455.7717669569756 M223.01524769570904,455.7717669569756 L219.7380561793259,453.2745765563389 M219.7380561793259,453.2745765563389 L216.56878104606915,450.7744881069737 M216.56878104606915,450.7744881069737 L213.50779325381507,448.2723925066164 M213.50779325381507,448.2723925066164 L210.55535909278285,445.76920041387507 M210.55535909278285,445.76920041387507 L207.71163663693733,443.2658395005052 M207.71163663693733,443.2658395005052 L204.97685970715952,440.76315603805085 M204.97685970715952,440.76315603805085 L202.35108418621292,438.26205273465195 M202.35108418621292,438.26205273465195 L199.83437027395155,435.76338973797965 M199.83437027395155,435.76338973797965 L197.42678703938134,433.2679866505403 M197.42678703938134,433.2679866505403 L195.12825729774852,430.77669575084434 M195.12825729774852,430.77669575084434 L192.93872582696338,428.290332428359 M192.93872582696338,428.290332428359 L190.85809491432997,425.80968431720675 M190.85809491432997,425.80968431720675 L188.8861790931113,423.3355585289934 M188.8861790931113,423.3355585289934 L187.02283036058566,420.8686986413435 M187.02283036058566,420.8686986413435 L185.26774237838674,418.4099047639732 M185.26774237838674,418.4099047639732 L183.62072560394358,415.9598784725375 M183.62072560394358,415.9598784725375 L182.0814185327656,413.5193719236249 M182.0814185327656,413.5193719236249 L180.64948402974255,411.0890999701528 M180.64948402974255,411.0890999701528 L179.32454913625838,408.66975027324077 M179.32454913625838,408.66975027324077 L178.10620446302573,406.2620139231852 M178.10620446302573,406.2620139231852 L176.9939793752569,403.86657603932986 M176.9939793752569,403.86657603932986 L175.98744723272353,401.48406092285285 M175.98744723272353,401.48406092285285 L175.08606651411924,399.11512911387314 M175.08606651411924,399.11512911387314 L174.28935487708588,396.76038583223504 M174.28935487708588,396.76038583223504 L173.59666417141148,394.4204836941946 M173.59666417141148,394.4204836941946 L173.00751063676114,392.0959668335362 M173.00751063676114,392.0959668335362 L172.52119805239874,389.7874698312004 M172.52119805239874,389.7874698312004 L172.13713633477005,387.49552907119363 M172.13713633477005,387.49552907119363 L171.85466893294222,385.2207021889759 M171.85466893294222,385.2207021889759 L171.67311682770617,382.9635236253564 M171.67311682770617,382.9635236253564 L171.59173721252762,380.7245489334525 M171.59173721252762,380.7245489334525 L171.6098748822916,378.5042607825119 M171.6098748822916,378.5042607825119 L171.72674719436884,376.3031703362979 M171.72674719436884,376.3031703362979 L171.94158484944842,374.1217778529597 M171.94158484944842,374.1217778529597 L172.2536282931494,371.960543015899 M172.2536282931494,371.960543015899 L172.6621198336386,369.81991158204045 M172.6621198336386,369.81991158204045 L173.16619177508971,367.70036249893695 M173.16619177508971,367.70036249893695 L173.76506790593362,365.6023058144754 M173.76506790593362,365.6023058144754 L174.45786396001927,363.5261853335074 M174.45786396001927,363.5261853335074 L175.24377972922525,361.4724026030405 M175.24377972922525,361.4724026030405 L176.1219706562763,359.441330515848 M176.1219706562763,359.441330515848 L177.09149150065082,357.4334053408208 M177.09149150065082,357.4334053408208 L178.1515112304071,355.44897679423394 M178.1515112304071,355.44897679423394 L179.30114839591488,353.48839234282093 M179.30114839591488,353.48839234282093 L180.5394316312122,351.5520383231749 M180.5394316312122,351.5520383231749 L181.86554111653777,349.64022925048556 M181.86554111653777,349.64022925048556 L183.27847423735489,347.75331501898904 M183.27847423735489,347.75331501898904 L184.777384492578,345.8916035712587 M184.777384492578,345.8916035712587 L186.36126458285912,344.0554182782 M186.36126458285912,344.0554182782 L188.02920676610427,342.24504973845154 M188.02920676610427,342.24504973845154 L189.78028156363484,340.46079653369515 M189.78028156363484,340.46079653369515 L191.61350952240184,338.70292950830196 M191.61350952240184,338.70292950830196 L193.52793937040155,336.97174395674114 M193.52793937040155,336.97174395674114 L195.52262207824083,335.26747265004764 M195.52262207824083,335.26747265004764 L197.5965931629479,333.5903853945931 M197.5965931629479,333.5903853945931 L199.7488760294616,331.9407376866375 M199.7488760294616,331.9407376866375 L201.97853289547174,330.3187361491352 M201.97853289547174,330.3187361491352 L204.28454383276323,328.7246289057835 M204.28454383276323,328.7246289057835 L206.6659451608548,327.1586470287998 M206.6659451608548,327.1586470287998 L209.12181176139484,325.6209742587915 M209.12181176139484,325.6209742587915 L211.65108236711217,324.1118440188387 M211.65108236711217,324.1118440188387 L214.25284489085755,322.6314278360304 M214.25284489085755,322.6314278360304 L216.92609476490895,321.1799357322045 M216.92609476490895,321.1799357322045 L219.66982312330117,319.75754360739916 M219.66982312330117,319.75754360739916 L222.48310051461795,318.3644205336195 M222.48310051461795,318.3644205336195 L225.36494318008897,317.000736625276 M225.36494318008897,317.000736625276 L228.31431357521626,315.6666632340672 M228.31431357521626,315.6666632340672 L231.33025340408017,314.36236564501297 M231.33025340408017,314.36236564501297 L234.41182910909265,313.08796226710297 M234.41182910909265,313.08796226710297 L237.55798636214013,311.84362617934715 M237.55798636214013,311.84362617934715 L240.76781569211755,310.62947303972146 M240.76781569211755,310.62947303972146 L244.04030523841425,309.4456547662725 M244.04030523841425,309.4456547662725 L247.37444920544192,308.29229640538415 M247.37444920544192,308.29229640538415 L250.76932478695903,307.1694967105552 M250.76932478695903,307.1694967105552 L254.22393113454177,306.077398520991 M254.22393113454177,306.077398520991 L257.7373020318131,305.01610405915454 M257.7373020318131,305.01610405915454 L261.30842855146386,303.98572318697444 M261.30842855146386,303.98572318697444 L264.9364070237326,302.98634796127646 M264.9364070237326,302.98634796127646 L268.62021326275647,302.01807850690193 M268.62021326275647,302.01807850690193 L272.3589103426161,301.0810158381043 M272.3589103426161,301.0810158381043 L276.15148200347676,300.1752584057174 M276.15148200347676,300.1752584057174 L279.9970371064268,299.30084807511344 M279.9970371064268,299.30084807511344 L283.89460122475225,298.4578935513364 M283.89460122475225,298.4578935513364 L287.8431656485875,297.6464690324173 M287.8431656485875,297.6464690324173 L291.84177799662325,296.86666503220704 M291.84177799662325,296.86666503220704 L295.88949076863855,296.1185274025665 M295.88949076863855,296.1185274025665 L299.9853752995283,295.40210802189597 M299.9853752995283,295.40210802189597 L304.12845286244874,294.7174898971852 M304.12845286244874,294.7174898971852 L308.317727572424,294.0647513533312 M308.317727572424,294.0647513533312 L312.55229829943323,293.4439092007674 M312.55229829943323,293.4439092007674 L316.8312366025244,292.8550189640539 M316.8312366025244,292.8550189640539 L321.1535149673257,292.29815338956996 M321.1535149673257,292.29815338956996 L325.51829003124453,291.77330663127225 M325.51829003124453,291.77330663127225 L329.9244872939141,291.28058627364214 M329.9244872939141,291.28058627364214 L334.3711910524531,290.8200144754703 M334.3711910524531,290.8200144754703 L338.85753103862055,290.3915851635697 M338.85753103862055,290.3915851635697 L343.3824737276143,289.99538085648453 M343.3824737276143,289.99538085648453 L347.94512845669044,289.6313958060235 M347.94512845669044,289.6313958060235 L352.54450814130723,289.2996881575149 M352.54450814130723,289.2996881575149 L357.17971145290505,289.00025639243233 M357.17971145290505,289.00025639243233 L361.84977022571843,288.73312767977933 M361.84977022571843,288.73312767977933 L366.55366817271647,288.4983631146147 M366.55366817271647,288.4983631146147 L371.29053199265854,288.29593805909025 M371.29053199265854,288.29593805909025 L376.0594382422628,288.1258619886602 M376.0594382422628,288.1258619886602 L380.8593831467508,287.988169653414 M380.8593831467508,287.988169653414 L385.68941389955603,287.8828718666915 M385.68941389955603,287.8828718666915 L390.5486273125289,287.8099555744777 M390.5486273125289,287.8099555744777 L395.43599129586437,287.769462957335 M395.43599129586437,287.769462957335 L400.35062809713986,287.76135613692907 M400.35062809713986,287.76135613692907 L405.2915484776893,287.7856577591258 M405.2915484776893,287.7856577591258 L410.25779768480015,287.84236314027805 M410.25779768480015,287.84236314027805 L415.24840177877786,287.9314683753508 M415.24840177877786,287.9314683753508 L420.26239190337196,288.052977360123 M420.26239190337196,288.052977360123 L425.29887648398926,288.2068367096233 M425.29887648398926,288.2068367096233 L430.3567535678203,288.39311158548765 M430.3567535678203,288.39311158548765 L435.4352104092518,288.61169895894125 M435.4352104092518,288.61169895894125 L440.53311062756325,288.86266801918237 M440.53311062756325,288.86266801918237 L445.64961956334923,289.14592392617567 M445.64961956334923,289.14592392617567 L450.7836245592739,289.4615141947696 M450.7836245592739,289.4615141947696 L455.93426322513096,289.8093510591041 M455.93426322513096,289.8093510591041 L461.10044004120755,290.18945917434087 M461.10044004120755,290.18945917434087 L466.28126211981794,290.60175755229716 M466.28126211981794,290.60175755229716 L471.47560825611777,291.0462790343326 M471.47560825611777,291.0462790343326 L476.6825480106263,291.52294783342205 M476.6825480106263,291.52294783342205 L481.901084199709,292.0317199786998 M481.901084199709,292.0317199786998 L487.13014988302575,292.5725825140198 M487.13014988302575,292.5725825140198 L492.36876444053246,293.14546992831316 M492.36876444053246,293.14546992831316 L497.61587761256396,293.75034793504966 M497.61587761256396,293.75034793504966 L502.87052311922184,294.38712920200555 M502.87052311922184,294.38712920200555 L508.13151696373325,295.05584364891536 M508.13151696373325,295.05584364891536 L513.3979547881104,295.75635325918466 M513.3979547881104,295.75635325918466 L518.6687157649767,296.4886377380486 M518.6687157649767,296.4886377380486 L523.9427595714649,297.2526229832738 M523.9427595714649,297.2526229832738 L529.2190250771241,298.0482376667835 M529.2190250771241,298.0482376667835 L534.4963867717045,298.87544358299806 M534.4963867717045,298.87544358299806 L539.7738393395416,299.73411731935454 M539.7738393395416,299.73411731935454 L545.0502216371183,300.62422805280187 M545.0502216371183,300.62422805280187 L550.3244899210574,301.54565891396476 M550.3244899210574,301.54565891396476 L555.5955290948173,302.49832427290517 M555.5955290948173,302.49832427290517 L560.8622174476191,303.4821452689608 M560.8622174476191,303.4821452689608 L566.1233962583349,304.4970414848139 M566.1233962583349,304.4970414848139 L571.3779468938426,305.5429096520664 M571.3779468938426,305.5429096520664 L576.6247696689154,306.6196176614371 M576.6247696689154,306.6196176614371 L581.8626942115234,307.7270648761692 M581.8626942115234,307.7270648761692 L587.090540449266,308.8651564583298 M587.090540449266,308.8651564583298 L592.3071384362929,310.03376615761624 M592.3071384362929,310.03376615761624 L597.5113137774645,311.23277475012986 M597.5113137774645,311.23277475012986 L602.7018935237304,312.4620288830764 M602.7018935237304,312.4620288830764 L607.877665529373,313.7214152377185 M607.877665529373,313.7214152377185 L613.0374108995925,315.0107839467315 M613.0374108995925,315.0107839467315 L618.1799176598513,316.3299949156938 M618.1799176598513,316.3299949156938 L623.3039254648636,317.6789026513268 M623.3039254648636,317.6789026513268 L628.4082662317685,319.05730856767303 M628.4082596356134,319.0573302779624 L332.23069521318575,512.2386438630709 M628.4082662317685,319.05730856767303 L332.2307006272873,512.2386189093099" stroke="black"  stroke-width="4"  fill="red"/></svg>