<svg viewBox="0 0 800 800" xmlns="http://www.w3.org/2000/svg"><path d="M317.2476769966281,690.675783639892 L317.2476915982586,690.6755469684397 M179.3540919748698,109.32444687379382 L179.35410427480952,109.32421636010804 M317.2476769966281,690.675783639892 L295.0702214687458,677.6282650881312 M295.0702214687458,677.6282650881312 L273.7337191732479,664.1408150006586 M273.7337191732479,664.1408150006586 L253.26923903960983,650.2366298311488 M253.26923903960983,650.2366298311488 L233.70601067458438,635.9394782059079 M233.70601067458438,635.9394782059079 L215.0716516618063,621.2736180421753 M215.0716516618063,621.2736180421753 L197.39182723782687,606.2637534086294 M197.39182723782687,606.2637534086294 L180.69048434826072,590.9349540254889 M180.69048434826072,590.9349540254889 L164.98978101536727,575.312690880548 M164.98978101536727,575.312690880548 L150.30989846859416,559.4226244121073 M150.30989846859416,559.4226244121073 L136.66918704861405,543.2906718808802 M136.66918704861405,543.2906718808802 L124.08415624506847,526.9429324438386 M124.08415624506847,526.9429324438386 L112.5694525239428,510.4056237321072 M112.5694525239428,510.4056237321072 L102.13777297491379,493.7049828485823 M102.13777297491379,493.7049828485823 L92.80011464991003,476.8673574132853 M92.80011464991003,476.8673574132853 L84.56557270858411,459.91902518456584 M84.56557270858411,459.91902518456584 L77.44136331929803,442.88619490826045 M77.44136331929803,442.88619490826045 L71.43292141491065,425.79496188976805 M71.43292141491065,425.79496188976805 L66.54401340779759,408.6712563128989 M66.54401340779759,408.6712563128989 L62.776445593900235,391.5408121586581 M62.776445593900235,391.5408121586581 L60.13047990025984,374.42916548041285 M60.13047990025984,374.42916548041285 L58.60467560129473,357.3615440469846 M58.60467560129473,357.3615440469846 L58.19576904009659,340.3628150867846 M58.19576904009659,340.3628150867846 L58.89910055892665,323.45763540362475 M58.89910055892665,323.45763540362475 L60.70825291333949,306.6701645147019 M60.70825291333949,306.6701645147019 L63.61541723571145,290.0242545171076 M63.61541723571145,290.0242545171076 L67.61113257727789,273.5432590075126 M67.61113257727789,273.5432590075126 L72.68454058945963,257.2500623113361 M72.68454058945963,257.2500623113361 L78.82346258420989,241.16721669944206 M78.82346258420989,241.16721669944206 L86.01420979306681,225.3165602013691 M86.01420979306681,225.3165602013691 L94.24189560737,209.719590132461 M94.24189560737,209.719590132461 L103.49015559092732,194.39713842256668 M103.49015559092732,194.39713842256668 L113.74158611415965,179.36951375152756 M113.74158611415965,179.36951375152756 L124.97758155308884,164.65648305956506 M124.97758155308884,164.65648305956506 L137.17822841440875,150.2772188384999 M137.17822841440875,150.2772188384999 L150.32269288861812,136.25031810355 M150.32269288861812,136.25031810355 L164.3889725319034,122.5936114230588 M164.3889725319034,122.5936114230588 L179.3540919748698,109.32444687379382 M317.2476915982586,690.6755469684397 L295.0702357941964,677.6280285469567 M295.0702357941964,677.6280285469567 L273.7337332323698,664.1405785945361 M273.7337332323698,664.1405785945361 L253.26925284263802,650.2363935646587 M253.26925284263802,650.2363935646587 L233.70602423211358,635.9392420834272 M233.70602423211358,635.9392420834272 L215.07166498476363,621.273382067872 M215.07166498476363,621.273382067872 L197.39184033744527,606.2635175864552 M197.39184033744527,606.2635175864552 L180.69049723605372,590.9347183591728 M180.69049723605372,590.9347183591728 L164.98979370310326,575.3124553735909 M164.98979370310326,575.3124553735909 L150.30991096826915,559.4223890677763 M150.30991096826915,559.4223890677763 L136.66919937242574,543.2904367022026 M136.66919937242574,543.2904367022026 L124.0841684053903,526.9426974335979 M124.0841684053903,526.9426974335979 L112.56946453329965,510.40538889283766 M112.56946453329965,510.40538889283766 L102.13778484595537,493.7047481825657 M102.13778484595537,493.7047481825657 L92.8001263953879,476.8671229225464 M92.8001263953879,476.8671229225464 L84.56558434132808,459.91879087086886 M84.56558434132808,459.91879087086886 L77.44137485219107,442.8859607731065 M77.44137485219107,442.8859607731065 L71.4329328608676,425.79472793439277 M71.4329328608676,425.79472793439277 L66.54402477974304,408.6710225382701 M66.54402477974304,408.6710225382701 L62.77645690474628,391.54057856547377 M62.77645690474628,391.54057856547377 L60.13049116288653,374.42893206910003 M60.13049116288653,374.42893206910003 L58.60468682853207,357.36131081769895 M58.60468682853207,357.36131081769895 L58.195780244701155,340.3625820394101 M58.195780244701155,340.3625820394101 L58.89911175356838,323.45740253777285 M58.89911175356838,323.45740253777285 L60.70826411058147,306.66993182971316 M60.70826411058147,306.66993182971316 L63.6154284479951,290.02402201205155 M63.6154284479951,290.02402201205155 L67.61114381690618,273.5430266811901 M67.61114381690618,273.5430266811901 L72.68455186858318,257.24983016228117 M72.68455186858318,257.24983016228117 L78.8234739148138,241.16698472592265 M78.8234739148138,241.16698472592265 L86.01422118695609,225.31632840139173 M86.01422118695609,225.31632840139173 L94.2419070761589,209.71935850377253 M94.2419070761589,209.71935850377253 L103.49016714602544,194.39690696265848 M103.49016714602544,194.39690696265848 L113.74159776676379,179.36928245763949 M113.74159776676379,179.36928245763949 L124.97759331417228,164.65625192868913 M124.97759331417228,164.65625192868913 L137.17824029471103,150.2769878673853 M137.17824029471103,150.2769878673853 L150.32270489863708,136.25008728870762 M150.32270489863708,136.25008728870762 L164.38898468188745,122.59338076076835 M164.38898468188745,122.59338076076835 L179.35410427480952,109.32421636010804 M741.8042118944907,413.75950450629114 L741.8042309599034,413.7592706778886 M179.3540919748698,109.32444687379382 L741.8042118944907,413.75950450629114 M179.35410427480952,109.32421636010804 L741.8042309599034,413.7592706778886 M741.8042118944907,413.75950450629114 L317.2476769966281,690.675783639892 M741.8042309599034,413.7592706778886 L317.2476915982586,690.6755469684397" stroke="black"  stroke-width="4"  fill="red"/></svg>