<svg viewBox="0 0 800 800" xmlns="http://www.w3.org/2000/svg"><path d="M-94.29262779296346,309.8957790087753 L-94.29262366043713,309.89559027248026 M894.2926124062806,307.4520126800478 L894.2926277929635,307.4518239695577 M-94.29262779296346,309.8957790087753 L-76.90938149001136,299.55105483660975 M-76.90938149001136,299.55105483660975 L-58.93504328810366,289.6148654252223 M-58.93504328810366,289.6148654252223 L-40.39234418183662,280.09719864641454 M-40.39234418183662,280.09719864641454 L-21.304387035459513,271.00758870051027 M-21.304387035459513,271.00758870051027 L-1.6946936905169423,262.35503471918025 M-1.6946936905169423,262.35503471918025 L18.412816000154407,254.14806013155908 M18.412816000154407,254.14806013155908 L38.99393177596494,246.39468712986798 M38.99393177596494,246.39468712986798 L60.02410831865939,239.10247156191292 M60.02410831865939,239.10247156191292 L81.47844742362918,232.2784286745009 M81.47844742362918,232.2784286745009 L103.33181330506773,225.92912015486843 M103.33181330506773,225.92912015486843 L125.55881331463763,220.06060799213242 M125.55881331463763,220.06060799213242 L148.13378088003742,214.6784664993346 M148.13378088003742,214.6784664993346 L171.0308833078252,209.78780807264485 M171.0308833078252,209.78780807264485 L194.22398416621832,205.3932131863894 M194.22398416621832,205.3932131863894 L217.6868004594321,201.49878382578817 M217.6868004594321,201.49878382578817 L241.39297372873557,198.10821753980736 M241.39297372873557,198.10821753980736 L265.31587234889525,195.22464749238088 M265.31587234889525,195.22464749238088 L289.4287244964553,192.8507367228878 M289.4287244964553,192.8507367228878 L313.7046677011417,190.98866929461371 M313.7046677011417,190.98866929461371 L338.1167296503752,189.64021313961183 M338.1167296503752,189.64021313961183 L362.6379449271783,188.806636544443 M362.6379449271783,188.806636544443 L387.2410245303349,188.48865281715615 M387.2410245303349,188.48865281715615 L411.89881537181145,188.68655271981868 M411.89881537181145,188.68655271981868 L436.58409908075146,189.40019055655785 M436.58409908075146,189.40019055655785 L461.26953042751165,190.62888209133996 M461.26953042751165,190.62888209133996 L485.92787533865226,192.37154842457971 M485.92787533865226,192.37154842457971 L510.5317368850474,194.6264954919202 M510.5317368850474,194.6264954919202 L535.0538301571305,197.39165764984597 M535.0538301571305,197.39165764984597 L559.4668746912869,200.66452062663132 M559.4668746912869,200.66452062663132 L583.7436246996954,204.44195576886904 M583.7436246996954,204.44195576886904 L607.8569251103595,208.72047564656572 M607.8569251103595,208.72047564656572 L631.7796435771188,213.49606643871027 M631.7796435771188,213.49606643871027 L655.4847306648812,218.76425244921495 M655.4847306648812,218.76425244921495 L678.94538954926,224.52002832792766 M678.94538954926,224.52002832792766 L702.1346155718941,230.75793659385613 M702.1346155718941,230.75793659385613 L725.0258757566312,237.4720568322523 M725.0258757566312,237.4720568322523 L747.5926812209914,244.6559351850475 M747.5926812209914,244.6559351850475 L769.808722194058,252.30260086819146 M769.808722194058,252.30260086819146 L791.6478215977004,260.40470031888015 M791.6478215977004,260.40470031888015 L813.0841952576714,268.954306605768 M813.0841952576714,268.954306605768 L834.092043398857,277.94296337499645 M834.092043398857,277.94296337499645 L854.6461125564219,287.3618179431745 M854.6461125564219,287.3618179431745 L874.7212096028354,297.20145768584973 M874.7212096028354,297.20145768584973 L894.2926124062806,307.4520126800478 M-94.29262366043713,309.89559027248026 L-76.9093771647241,299.55086620965824 M-76.9093771647241,299.55086620965824 L-58.9350387636008,289.6146769035631 M-58.9350387636008,289.6146769035631 L-40.3923394519104,280.0970102258575 M-40.3923394519104,280.0970102258575 L-21.304382094148878,271.00740037673245 M-21.304382094148878,271.00740037673245 L-1.6946885321090122,262.3548464877314 M-1.6946885321090122,262.3548464877314 L18.41282138112308,254.1478719878678 M18.41282138112308,254.1478719878678 L38.99393738470917,246.3944990692478 M38.99393738470917,246.3944990692478 L60.02411416014388,239.10228357956817 M60.02411416014388,239.10228357956817 L81.47845350256887,232.27824076553372 M81.47845350256887,232.27824076553372 L103.33181962592641,225.9289323142848 M103.33181962592641,225.9289323142848 L125.55881988162957,220.06042021484916 M125.55881988162957,220.06042021484916 L148.13378769712563,214.67827878018545 M148.13378769712563,214.67827878018545 L171.03089037872246,209.78762040638793 M171.03089037872246,209.78762040638793 L194.22399149438593,205.39302556771366 M194.22399149438593,205.39302556771366 L217.68680804807968,201.498596249321 M217.68680804807968,201.498596249321 L241.39298158082283,198.10803000012055 M241.39298158082283,198.10803000012055 L265.31588046712886,195.22445998399854 M265.31588046712886,195.22445998399854 L289.42873288329065,192.8505492402935 M289.42873288329065,192.8505492402935 L313.70467635878117,190.98848183225778 M313.70467635878117,190.98848183225778 L338.116738580768,189.64002569191769 M338.116738580768,189.64002569191769 L362.63795413202206,188.80644910581464 M362.63795413202206,188.80644910581464 L387.2410340110712,188.48846538198666 M387.2410340110712,188.48846538198666 L411.8988251296273,188.6863652824964 M411.8988251296273,188.6863652824964 L436.58410911657893,189.40000311147384 M436.58410911657893,189.40000311147384 L461.26954074202536,190.62869463289547 M461.26954074202536,190.62869463289547 L485.9278859322701,192.37136094719273 M485.9278859322701,192.37136094719273 L510.5317477579274,194.62630799003415 M510.5317477579274,194.62630799003415 L535.053841309171,197.39147011793614 M535.053841309171,197.39147011793614 L559.4668861221255,200.66433305921134 M559.4668861221255,200.66433305921134 L583.7436364087055,204.44176816049958 M583.7436364087055,204.44176816049958 L607.8569370966511,208.72028799186023 M607.8569370966511,208.72028799186023 L631.779655839536,213.49587873234304 M631.779655839536,213.49587873234304 L655.4847432020001,218.764064685927 M655.4847432020001,218.764064685927 L678.9454023593889,224.51984050253475 M678.9454023593889,224.51984050253475 L702.1346286530684,230.7577487012553 M702.1346286530684,230.7577487012553 L725.0258891066153,237.47186886742793 M725.0258891066153,237.47186886742793 L747.5926948372744,244.65574714307843 M747.5926948372744,244.65574714307843 L769.8087360738539,252.3024127442585 M769.8087360738539,252.3024127442585 L791.6478357379431,260.4045121082702 M791.6478357379431,260.4045121082702 L813.0842096550186,268.9541183038823 M813.0842096550186,268.9541183038823 L834.0920580496834,277.9427749773562 M834.0920580496834,277.9427749773562 L854.6461274568201,287.3616294454266 M854.6461274568201,287.3616294454266 L874.7212247486134,297.201269083773 M874.7212247486134,297.201269083773 L894.2926277929635,307.4518239695577 M428.121185285514,611.5115346180133 L428.12119572113716,611.5113428182409 M894.2926124062806,307.4520126800478 L428.121185285514,611.5115346180133 M894.2926277929635,307.4518239695577 L428.12119572113716,611.5113428182409 M428.121185285514,611.5115346180133 L-94.29262779296346,309.8957790087753 M428.12119572113716,611.5113428182409 L-94.29262366043713,309.89559027248026" stroke="black"  stroke-width="4"  fill="red"/></svg>