<svg viewBox="0 0 800 800" xmlns="http://www.w3.org/2000/svg"><path d="M-91.81988420128687,278.35740097525365 L-91.81988033551158,278.35714683859 M891.8198691472733,331.17737546772423 L891.8198842012871,331.17712076734324 M-91.81988420128687,278.35740097525365 L-66.72733152827266,268.5254389400337 M-66.72733152827266,268.5254389400337 L-41.013993543479614,259.3076651180003 M-41.013993543479614,259.3076651180003 L-14.717660265043833,250.71567193686508 M-14.717660265043833,250.71567193686508 L12.123276402765782,242.7601716829961 M12.123276402765782,242.7601716829961 L39.46991189727862,235.45103021349973 M39.46991189727862,235.45103021349973 L67.28291193420876,228.79730165976173 M67.28291193420876,228.79730165976173 L95.52243066801657,222.80715693718048 M95.52243066801657,222.80715693718048 L124.1483095680951,217.48792457628065 M124.1483095680951,217.48792457628065 L153.12004784757505,212.84614461580475 M153.12004784757505,212.84614461580475 L182.39677999903006,208.887453659362 M182.39677999903006,208.887453659362 L211.93736917997853,205.61664080032506 M211.93736917997853,205.61664080032506 L241.70049178716295,203.0377065849035 M241.70049178716295,203.0377065849035 L271.64459364427057,201.15375329683025 M271.64459364427057,201.15375329683025 L301.7278885471569,199.96705045099202 M301.7278885471569,199.96705045099202 L331.90859122093,199.47907879235913 M331.90859122093,199.47907879235913 L362.14468179034543,199.69036645877395 M362.14468179034543,199.69036645877395 L392.3941638331398,200.6006767031887 M392.3941638331398,200.6006767031887 L422.6149521124853,202.20892884065358 M422.6149521124853,202.20892884065358 L452.7650665049482,204.5131763103774 M452.7650665049482,204.5131763103774 L482.80242199116356,207.51058290264825 M482.80242199116356,207.51058290264825 L512.6851061190241,211.19759379609445 M512.6851061190241,211.19759379609445 L542.3714245835868,215.56971189772162 M542.3714245835868,215.56971189772162 L571.8194645806832,220.62156705727466 M571.8194645806832,220.62156705727466 L600.9879796287182,226.34704304380966 M600.9879796287182,226.34704304380966 L629.8355317780542,232.73910758809052 M629.8355317780542,232.73910758809052 L658.3212093009929,239.78991654864308 M658.3212093009929,239.78991654864308 L686.4042215405279,247.49077877313903 M686.4042215405279,247.49077877313903 L714.0443048634156,255.8321193149311 M714.0443048634156,255.8321193149311 L741.2013675928974,264.8035799598315 M741.2013675928974,264.8035799598315 L767.8358610810628,274.3939206053208 M767.8358610810628,274.3939206053208 L793.9086999838546,284.5911177655961 M793.9086999838546,284.5911177655961 L819.3812551027347,295.3821637054226 M819.3812551027347,295.3821637054226 L844.2155118948524,306.7534422930107 M844.2155118948524,306.7534422930107 L868.3740111345778,318.6903069102252 M868.3740111345778,318.6903069102252 L891.8198691472733,331.17737546772423 M-91.81988033551158,278.35714683859 L-66.72732738237289,268.5251849089045 M-66.72732738237289,268.5251849089045 L-41.01398911069691,259.3074111859851 M-41.01398911069691,259.3074111859851 L-14.717655539011275,250.71541809738517 M-14.717655539011275,250.71541809738517 L12.123281428020618,242.7599179293253 M12.123281428020618,242.7599179293253 L39.46991722733196,235.4507765387757 M39.46991722733196,235.4507765387757 L67.28291757423983,228.79704805699646 M67.28291757423983,228.79704805699646 L95.52243662280534,222.80690339927162 M95.52243662280534,222.80690339927162 L124.14831584202079,217.48767109602295 M124.14831584202079,217.48767109602295 L153.12005444461658,212.84589118590122 M153.12005444461658,212.84589118590122 L182.39678692276277,208.88720027243573 M182.39678692276277,208.88720027243573 L211.9373764335744,205.6163874489315 M211.9373764335744,205.6163874489315 L241.7004993733899,203.03745326154103 M241.7004993733899,203.03745326154103 L271.6446015654906,201.15349999395323 M271.6446015654906,201.15349999395323 L301.7278968053247,199.96679716102233 M301.7278968053247,199.96679716102233 L331.9085998175933,199.4788255076977 M331.9085998175933,199.4788255076977 L362.1446907266427,199.690113171814 M362.1446907266427,199.690113171814 L392.3941731097998,200.60042340632697 M392.3941731097998,200.60042340632697 L422.6149617298256,202.20867552630205 M422.6149617298256,202.20867552630205 L452.7650764628745,204.51292297097598 M452.7650764628745,204.51292297097598 L482.8024322891679,207.51032953067715 M482.8024322891679,207.51032953067715 L512.6851167561845,211.19734038408467 M512.6851167561845,211.19734038408467 L542.3714355585669,215.5694584382677 M542.3714355585669,215.5694584382677 L571.819475891727,220.6213135430471 M571.819475891727,220.6213135430471 L600.9879912736551,226.34678946756537 M600.9879912736551,226.34678946756537 L629.8355437542921,232.73885394268507 M629.8355437542921,232.73885394268507 L658.3212216055215,239.78966282704164 M658.3212216055215,239.78966282704164 L686.4042341699146,247.4905249684282 M686.4042341699146,247.4905249684282 L714.0443178138071,255.8318654203298 M714.0443178138071,255.8318654203298 L741.2013808600184,264.80332596870153 M741.2013808600184,264.80332596870153 L767.8358746602137,274.39366651117757 M767.8358746602137,274.39366651117757 L793.9087138699138,284.590863562119 M793.9087138699138,284.590863562119 L819.3812692901568,295.3819093864662 M819.3812692901568,295.3819093864662 L844.2155263776699,306.75318785261277 M844.2155263776699,306.75318785261277 L868.3740259064004,318.69005234261806 M868.3740259064004,318.69005234261806 L891.8198842012871,331.17712076734324 M466.1841398883546,600.5211744923024 L466.1841503462347,600.5209170023971 M891.8198691472733,331.17737546772423 L466.1841398883546,600.5211744923024 M891.8198842012871,331.17712076734324 L466.1841503462347,600.5209170023971 M466.1841398883546,600.5211744923024 L-91.81988420128687,278.35740097525365 M466.1841503462347,600.5209170023971 L-91.81988033551158,278.35714683859" stroke="black"  stroke-width="4"  fill="red"/></svg>