<svg viewBox="0 0 800 800" xmlns="http://www.w3.org/2000/svg"><path d="M639.1274457044783,253.53301130937325 L639.129186943901,253.47645467555412 M160.83134340739343,546.498064217456 L160.83307940422674,546.441504482762 M639.1274457044783,253.53301130937325 L693.5725784425449,292.8420048297485 M693.5725784425449,292.8420048297485 L730.9562809439376,338.37900190323126 M730.9562809439376,338.37900190323126 L749.1164513588301,387.5027435754819 M749.1164513588301,387.5027435754819 L746.976079408516,437.3514496316202 M746.976079408516,437.3514496316202 L724.6817387622141,485.0360840030189 M724.6817387622141,485.0360840030189 L683.5041801561892,527.7756057407751 M683.5041801561892,527.7756057407751 L625.8521335588885,563.0926646805528 M625.8521335588885,563.0926646805528 L555.0754272933118,588.93448347706 M555.0754272933118,588.93448347706 L475.2752467436658,603.7892930782546 M475.2752467436658,603.7892930782546 L391.10693373391405,606.8072211608596 M391.10693373391405,606.8072211608596 L307.44872557817143,597.7992856574274 M307.44872557817143,597.7992856574274 L229.17639457184123,577.3011299450009 M229.17639457184123,577.3011299450009 L160.83134340739343,546.498064217456 M639.129186943901,253.47645467555412 L693.5743203278107,292.7854477798028 M693.5743203278107,292.7854477798028 L730.9580232852022,338.3224443712752 M730.9580232852022,338.3224443712752 L749.1181939399103,387.44618552356405 M749.1181939399103,387.44618552356405 L746.9778219989967,437.2948910520863 M746.9778219989967,437.2948910520863 L724.683481131302,484.9795249187955 M724.683481131302,484.9795249187955 L683.5059220858093,527.7190462042272 M683.5059220858093,527.7190462042272 L625.853874856577,563.0361047702245 M625.853874856577,563.0361047702245 L555.0771678033925,588.8779232932575 M555.0771678033925,588.8779232932575 L475.27698635600973,603.7327327372332 M475.27698635600973,603.7327327372332 L391.10867239086656,606.7506607878968 M391.10867239086656,606.7506607878968 L307.4504632774333,597.7427253798087 M307.4504632774333,597.7427253798087 L229.1781313668762,577.2445698843076 M229.1781313668762,577.2445698843076 L160.83307940422674,546.441504482762 M160.83134340739343,546.498064217456 L106.38898037013132,507.1813275408713 M106.38898037013132,507.1813275408713 L69.01387105815229,461.6383613748403 M69.01387105815229,461.6383613748403 L50.88180606008973,412.5207324522271 M50.88180606008973,412.5207324522271 L53.019973018264864,362.6640471862702 M53.019973018264864,362.6640471862702 L75.34134439131594,314.992883627252 M75.34134439131594,314.992883627252 L116.52559176384239,272.2604229128556 M116.52559176384239,272.2604229128556 L174.17811162714497,236.95133871804137 M174.17811162714497,236.95133871804137 L244.94896726377192,211.11658189290029 M244.94896726377192,211.11658189290029 L324.7226547782193,196.25736182495166 M324.7226547782193,196.25736182495166 L408.89328683537315,193.24933483481436 M408.89328683537315,193.24933483481436 L492.52305393095594,202.24550185043336 M492.52305393095594,202.24550185043336 L570.7860832797596,222.73768864770682 M570.7860832797596,222.73768864770682 L639.1274457044783,253.53301130937325 M160.83307940422674,546.441504482762 L106.39071572117973,507.124768222282 M106.39071572117973,507.124768222282 L69.01560595343472,461.5818025382541 M69.01560595343472,461.5818025382541 L50.88354071599315,412.4641741355008 M50.88354071599315,412.4641741355008 L53.021707664913265,362.60748939724 M53.021707664913265,362.60748939724 L75.34307925973553,314.9363263428386 M75.34307925973553,314.9363263428386 L116.52732707190444,272.2038660807666 M116.52732707190444,272.2038660807666 L174.1798475671385,236.89478225974744 M174.1798475671385,236.89478225974744 L244.950703991286,211.06002570807323 M244.950703991286,211.06002570807323 L324.72439240303356,196.20080579745263 M324.72439240303356,196.20080579745263 L408.89502541546244,193.19277883914037 M408.89502541546244,193.19277883914037 L492.5247934682993,202.18894575953163 M492.5247934682993,202.18894575953163 L570.787823721068,222.68113233987242 M570.787823721068,222.68113233987242 L639.129186943901,253.47645467555412" stroke="black"  stroke-width="4"  fill="red"/></svg>