<svg viewBox="0 0 800 800" xmlns="http://www.w3.org/2000/svg"><path d="M501.74110497241406,560.9670939764836 L501.7411116354699,560.9669380135153 M501.7397876086966,560.9679314949519 L501.7397942717379,560.9677755319753 M501.74110497241406,560.9670939764836 L501.7397876086966,560.9679314949519 M501.7411116354699,560.9669380135153 L501.7397942717379,560.9677755319753 M488.5521105382513,569.3520420909097 L488.5521170552978,569.35188604386 M501.7397876086966,560.9679314949519 L488.5521105382513,569.3520420909097 M501.7397942717379,560.9677755319753 L488.5521170552978,569.35188604386 M-83.60721160415812,238.2800615215598 L-83.60721175118374,238.27990896740124 M488.5521105382513,569.3520420909097 L-83.60721160415812,238.2800615215598 M488.5521170552978,569.35188604386 L-83.60721175118374,238.27990896740124 M-70.38828446357076,230.64811037854366 L-70.38828446355609,230.64795790909028 M-83.60721160415812,238.2800615215598 L-70.38828446357076,230.64811037854366 M-83.60721175118374,238.27990896740124 L-70.38828446355609,230.64795790909028 M-46.029003561136165,244.71194463953327 L-46.029003289908076,244.71179201413537 M-70.38828446357076,230.64811037854366 L-46.029003561136165,244.71194463953327 M-70.38828446355609,230.64795790909028 L-46.029003289908076,244.71179201413537 M-45.182167403230665,245.20239354309945 L-45.18216712255389,245.20224091227476 M-46.029003561136165,244.71194463953327 L-45.747030848731015,244.87559043329537 M-45.747030848731015,244.87559043329537 L-45.46475128681999,245.03907389588704 M-45.46475128681999,245.03907389588704 L-45.182167403230665,245.20239354309945 M-46.029003289908076,244.71179201413537 L-45.74703057435693,244.8754378060866 M-45.74703057435693,244.8754378060866 L-45.46475100929632,245.03892126686947 M-45.46475100929632,245.03892126686947 L-45.18216712255389,245.20224091227476 M415.9604307038353,281.7747307839279 L415.9604361479916,281.77457775063385 M-45.182167403230665,245.20239354309945 L-33.18118732437512,251.83821725251727 M-33.18118732437512,251.83821725251727 L-20.673798577896775,258.1799946659918 M-20.673798577896775,258.1799946659918 L-7.683755406284433,264.2141584694269 M-7.683755406284433,264.2141584694269 L5.764023794546688,269.92773645682115 M5.764023794546688,269.92773645682115 L19.643486593500086,275.3083768468664 M19.643486593500086,275.3083768468664 L33.927535081254064,280.34440596852966 M33.927535081254064,280.34440596852966 L48.58806566675071,285.0248506458528 M48.58806566675071,285.0248506458528 L63.596010791448066,289.3394602800118 M63.596010791448066,289.3394602800118 L78.92146034970312,293.27876656272275 M78.92146034970312,293.27876656272275 L94.53368482153019,296.8340942830152 M94.53368482153019,296.8340942830152 L110.40120881527321,299.99757854993277 M110.40120881527321,299.99757854993277 L126.49191861478494,302.7622103007335 M126.49191861478494,302.7622103007335 L142.7731214515038,305.1218503470694 M142.7731214515038,305.1218503470694 L159.21164499642987,307.0712555447879 M159.21164499642987,307.0712555447879 L175.7738478159032,308.60606054262985 M175.7738478159032,308.60606054262985 L192.4258304635423,309.72285774386165 M192.4258304635423,309.72285774386165 L209.13343959750955,310.4191449929612 M209.13343959750955,310.4191449929612 L225.86233411306716,310.693356480387 M225.86233411306716,310.693356480387 L242.578164518417,310.54489809087676 M242.578164518417,310.54489809087676 L259.2465595209651,309.9740770003011 M259.2465595209651,309.9740770003011 L275.833292822884,308.9821904060609 M275.833292822884,308.9821904060609 L292.30435572591955,307.5714489858739 M292.30435572591955,307.5714489858739 L308.62597781562874,305.74500296775386 M308.62597781562874,305.74500296775386 L324.76481744601097,303.5069131305673 M324.76481744601097,303.5069131305673 L340.6880019129477,300.8621856980649 M340.6880019129477,300.8621856980649 L356.3631906165149,297.81669290538525 M356.3631906165149,297.81669290538525 L371.7586208244354,294.3771754918228 M371.7586208244354,294.3771754918228 L386.84333578838175,290.5512556886879 M386.84333578838175,290.5512556886879 L401.5870598899511,286.34736606363145 M401.5870598899511,286.34736606363145 L415.9604307038353,281.7747307839279 M-45.18216712255389,245.20224091227476 L-33.18118690967151,251.8380645483453 M-33.18118690967151,251.8380645483453 L-20.67379802328236,258.17984189185603 M-20.67379802328236,258.17984189185603 L-7.683754706144271,264.21400562884185 M-7.683754706144271,264.21400562884185 L5.764024645542236,269.92758355342596 M5.764024645542236,269.92758355342596 L19.643487600379217,275.30822388441766 M19.643487600379217,275.30822388441766 L33.927536248728586,280.34425295089466 M33.927536248728586,280.34425295089466 L48.588066999201715,285.02469757700163 M48.588066999201715,285.02469757700163 L63.59601229291184,289.3393071640106 M63.59601229291184,289.3393071640106 L78.92146202385868,293.27861340372533 M78.92146202385868,293.27861340372533 L94.53368667168809,296.83394108525584 M94.53368667168809,296.83394108525584 L110.40121084436373,299.99742531771795 M110.40121084436373,299.99742531771795 L126.49192082534978,302.76205703843385 M126.49192082534978,302.76205703843385 L142.77312384568665,305.1216970591118 M142.77312384568665,305.1216970591118 L159.21164757597057,307.07110223564655 M159.21164757597057,307.07110223564655 L175.77385058212985,308.60590721681876 M175.77385058212985,308.60590721681876 L192.4258334173686,309.7227044059257 M192.4258334173686,309.7227044059257 L209.1334427394304,310.4189916474678 M209.1334427394304,310.4189916474678 L225.86233744315734,310.6932031319178 M225.86233744315734,310.6932031319178 L242.57816803633023,310.5447447440187 M242.57816803633023,310.5447447440187 L259.24656322593466,309.9739236596384 M259.24656322593466,309.9739236596384 L275.8332967137253,308.98203707616585 M275.8332967137253,308.98203707616585 L292.30435980103346,307.57129567129897 M292.30435980103346,307.57129567129897 L308.62598207300607,305.74484967302317 M308.62598207300607,305.74484967302317 L324.76482188323916,303.5067598601681 M324.76482188323916,303.5067598601681 L340.6880065272185,300.8620324564387 M340.6880065272185,300.8620324564387 L356.36319540463205,297.8165396969203 M356.36319540463205,297.8165396969203 L371.75862578282465,294.3770223208457 M371.75862578282465,294.3770223208457 L386.843340913103,290.55110255945493 M386.843340913103,290.55110255945493 L401.5870651767083,286.3472129803214 M401.5870651767083,286.3472129803214 L415.9604361479916,281.77457775063385 M417.3983288264045,281.11888276857445 L417.3983342861385,281.1187297424597 M415.9604307038353,281.7747307839279 L415.8656850530614,281.65421210719535 M415.8656850530614,281.65421210719535 L415.8218826329577,281.525232971399 M415.8218826329577,281.525232971399 L415.8315475306824,281.3951489594358 M415.8315475306824,281.3951489594358 L415.89410227821304,281.27137359217045 M415.89410227821304,281.27137359217045 L416.0059589073794,281.1609298063685 M416.0059589073794,281.1609298063685 L416.16080166171037,281.0701315095092 M416.16080166171037,281.0701315095092 L416.3497782541409,281.00412363682165 M416.3497782541409,281.00412363682165 L416.5621555280628,280.9666819633086 M416.5621555280628,280.9666819633086 L416.78580570322424,280.9599184255706 M416.78580570322424,280.9599184255706 L417.00801420939547,280.9842341727327 M417.00801420939547,280.9842341727327 L417.216144468396,281.0382605981142 M417.216144468396,281.0382605981142 L417.3983288264045,281.11888276857445 M415.9604361479916,281.77457775063385 L415.86569049606203,281.6540590752205 M415.86569049606203,281.6540590752205 L415.8218880753667,281.52507994083595 M415.8218880753667,281.52507994083595 L415.83155297309713,281.3949959302968 M415.83155297309713,281.3949959302968 L415.8941077212306,281.27122056438634 M415.8941077212306,281.27122056438634 L416.00596435156194,281.1607767797934 M416.00596435156194,281.1607767797934 L416.16080710755443,281.0699784839282 M416.16080710755443,281.0699784839282 L416.34978370204806,281.0039706119634 M416.34978370204806,281.0039706119634 L416.5621609783175,280.9665289388601 M416.5621609783175,280.9665289388601 L416.78581115597683,280.9597654011962 M416.78581115597683,280.9597654011962 L417.0080196646546,280.9840811480922 M417.0080196646546,280.9840811480922 L417.21614992602724,281.0381075728821 M417.21614992602724,281.0381075728821 L417.3983342861385,281.1187297424597 M417.5605322455764,281.2366913134727 L417.56053770721894,281.23653828606825 M417.3983288264045,281.11888276857445 L417.4582428896341,281.15539354446577 M417.4582428896341,281.15539354446577 L417.5124537951101,281.19477320361756 M417.5124537951101,281.19477320361756 L417.5605322455764,281.2366913134727 M417.3983342861385,281.1187297424597 L417.4582483500676,281.15524051795137 M417.4582483500676,281.15524051795137 L417.5124592561816,281.19462017667206 M417.5124592561816,281.19462017667206 L417.56053770721894,281.23653828606825 M883.6072010159676,318.1944233254163 L883.6072117511837,318.1942698956377 M417.5605322455764,281.2366913134727 L431.9127589918194,276.6708203161099 M431.9127589918194,276.6708203161099 L446.59961114249234,272.48377086327343 M446.59961114249234,272.48377086327343 L461.5954426843539,268.6819979966191 M461.5954426843539,268.6819979966191 L476.87415160427577,265.27133431768266 M476.87415160427577,265.27133431768266 L492.4093257474236,262.25702438388794 M492.4093257474236,262.25702438388794 L508.17425804828656,259.6436641007563 M508.17425804828656,259.6436641007563 L524.1419272787714,257.43523314215355 M524.1419272787714,257.43523314215355 L540.2850548401607,255.63507925218732 M540.2850548401607,255.63507925218732 L556.5761644627689,254.2459483026774 M556.5761644627689,254.2459483026774 L572.9875921891658,253.2699194274964 M572.9875921891658,253.2699194274964 L589.4915103995197,252.7085029509485 M589.4915103995197,252.7085029509485 L606.0599486824906,252.56249113205388 M606.0599486824906,252.56249113205388 L622.6649687384324,252.8321589204386 M622.6649687384324,252.8321589204386 L639.2784180461115,253.51707708295964 M639.2784180461115,253.51707708295964 L655.8721740032224,254.6161933189489 M655.8721740032224,254.6161933189489 L672.4182036419941,256.12787702548087 M672.4182036419941,256.12787702548087 L688.8883281916449,258.049845707538 M688.8883281916449,258.049845707538 L705.2547013523242,260.3791486050331 M705.2547013523242,260.3791486050331 L721.4893279158323,263.1122429263903 M721.4893279158323,263.1122429263903 L737.5644875088142,266.24501047640007 M737.5644875088142,266.24501047640007 L753.4526139227348,269.7726085844722 M753.4526139227348,269.7726085844722 L769.1263376393069,273.68967236957894 M769.1263376393069,273.68967236957894 L784.5584856389803,277.9901399106909 M784.5584856389803,277.9901399106909 L799.7222028615668,282.6674058391723 M799.7222028615668,282.6674058391723 L814.5909162986181,287.71416773473896 M814.5909162986181,287.71416773473896 L829.1385417278361,293.12257831875604 M829.1385417278361,293.12257831875604 L843.3391001596983,298.88420842488165 M843.3391001596983,298.88420842488165 L857.1672983753147,304.9899138885185 M857.1672983753147,304.9899138885185 L870.5981418190024,311.43005761048687 M870.5981418190024,311.43005761048687 L883.6072010159676,318.1944233254163 M417.56053770721894,281.23653828606825 L431.91276461039274,276.67066733872304 M431.91276461039274,276.67066733872304 L446.5996169218423,272.4836179318136 M446.5996169218423,272.4836179318136 L461.5954486280648,268.68184510690946 M461.5954486280648,268.68184510690946 L476.8741577156685,265.2711814654681 M476.8741577156685,265.2711814654681 L492.40933202955296,262.25687156484236 M492.40933202955296,262.25687156484236 L508.1742645039403,259.6435113104916 M508.1742645039403,259.6435113104916 L524.1419339104672,257.43508037622746 M524.1419339104672,257.43508037622746 L540.2850616501446,255.63492650611198 M540.2850616501446,255.63492650611198 L556.576171453014,254.2457955719276 M556.576171453014,254.2457955719276 L572.98759936137,253.26976670751822 M572.98759936137,253.26976670751822 L589.4915177551056,252.7083502371678 M589.4915177551056,252.7083502371678 L606.0599562226023,252.56233841988507 M606.0599562226023,252.56233841988507 L622.6649764639362,252.8320062052927 M622.6649764639362,252.8320062052927 L639.2784259575931,253.51692436025343 M639.2784259575931,253.51692436025343 L655.8721821009863,254.6160405841137 M655.8721821009863,254.6160405841137 L672.4182119260633,256.1277242739703 M672.4182119260633,256.1277242739703 L688.8883366617583,258.0496929348366 M688.8883366617583,258.0496929348366 L705.2547100079382,260.37899580666624 M705.2547100079382,260.37899580666624 L721.4893367561176,263.11209009793106 M721.4893367561176,263.11209009793106 L737.5644965326567,266.2448576134775 M737.5644965326567,266.2448576134775 L753.4526231287341,269.77245568278096 M753.4526231287341,269.77245568278096 L769.1263470257772,273.68951942488593 M769.1263470257772,273.68951942488593 L784.5584952039487,277.9899869188445 M784.5584952039487,277.9899869188445 L799.7222126027741,282.66725279610887 M799.7222126027741,282.66725279610887 L814.5909262135185,287.7140146364919 M814.5909262135185,287.7140146364919 L829.1385518136001,293.12242516146244 M829.1385518136001,293.12242516146244 L843.3391104132083,298.8840552047896 M843.3391104132083,298.8840552047896 L857.1673087931711,304.98976060199493 M857.1673087931711,304.98976060199493 L870.5981523975211,311.42990425402405 M870.5981523975211,311.42990425402405 L883.6072117511837,318.1942698956377 M883.6072010159676,318.1944233254163 L501.74110497241406,560.9670939764836 M883.6072117511837,318.1942698956377 L501.7411116354699,560.9669380135153" stroke="black"  stroke-width="4"  fill="red"/></svg>