<svg viewBox="0 0 800 800" xmlns="http://www.w3.org/2000/svg"><path d="M-53.90466332357755,408.17610057605896 L-53.90465865017404,408.1758810443646 M853.9046485190124,274.5207434552391 L853.9046633235776,274.52052535681105 M-53.90466332357755,408.17610057605896 L-46.76550788184011,394.5318288407062 M-46.76550788184011,394.5318288407062 L-38.63659418728582,381.1360158921917 M-38.63659418728582,381.1360158921917 L-29.536820281162363,368.0123771447775 M-29.536820281162363,368.0123771447775 L-19.486722930404312,355.1838981833614 M-19.486722930404312,355.1838981833614 L-8.508307309493944,342.67291035591154 M-8.508307309493944,342.67291035591154 L3.3749249012212204,330.50096725912124 M3.3749249012212204,330.50096725912124 L16.1380811983571,318.68888681998294 M16.1380811983571,318.68888681998294 L29.755030099793544,307.2567635097063 M29.755030099793544,307.2567635097063 L44.19821844765113,296.22383011626005 M44.19821844765113,296.22383011626005 L59.43906444853735,285.6085672912436 M59.43906444853735,285.6085672912436 L75.44773447905277,275.4286215528494 M75.44773447905277,275.4286215528494 L92.19327379509161,265.7007538253883 M92.19327379509161,265.7007538253883 L109.64381443684294,256.4409483787464 M109.64381443684294,256.4409483787464 L127.766447044605,247.6642680073557 M127.766447044605,247.6642680073557 L146.52736218074847,239.38492850954742 M146.52736218074847,239.38492850954742 L165.8919107009351,231.61627958601963 M165.8919107009351,231.61627958601963 L185.8246147011498,224.37074335492946 M185.8246147011498,224.37074335492946 L206.289299181042,217.65988619504583 M206.289299181042,217.65988619504583 L227.2490644066902,211.49430537623562 M227.2490644066902,211.49430537623562 L248.6663612532991,205.88379880046455 M248.6663612532991,205.88379880046455 L270.5031535211938,200.83716593956137 M270.5031535211938,200.83716593956137 L292.7207230010588,196.36229154026842 M292.7207230010588,196.36229154026842 L315.28001859631104,192.466210689241 M315.28001859631104,192.466210689241 L338.14141267080026,189.15497268837152 M338.14141267080026,189.15497268837152 L361.26510277769626,186.4337031286351 M361.26510277769626,186.4337031286351 L384.61067796015936,184.3066473781302 M384.61067796015936,184.3066473781302 L408.1377365679107,182.77709606827779 M408.1377365679107,182.77709606827779 L431.80544684131746,181.84739187078196 M431.80544684131746,181.84739187078196 L455.5728594531238,181.51900070902093 M455.5728594531238,181.51900070902093 L479.3988597899388,181.7924151707191 M479.3988597899388,181.7924151707191 L503.24227667586274,182.66720532884182 M503.24227667586274,182.66720532884182 L527.0618734596362,184.14203445851462 M527.0618734596362,184.14203445851462 L550.8164811924835,186.21465628595473 M550.8164811924835,186.21465628595473 L574.4648847644964,188.88174423589743 M574.4648847644964,188.88174423589743 L597.9659406470134,192.13928338120593 M597.9659406470134,192.13928338120593 L621.2789037236014,195.98219681227573 M621.2789037236014,195.98219681227573 L644.3629981697227,200.40443488121218 M644.3629981697227,200.40443488121218 L667.177687916661,205.39912969804976 M667.177687916661,205.39912969804976 L689.6828663016686,210.95851529831089 M689.6828663016686,210.95851529831089 L711.8388004079354,217.0737121323291 M711.8388004079354,217.0737121323291 L733.6059870264401,223.73521107119802 M733.6059870264401,223.73521107119802 L754.9454685610231,230.9323545743232 M754.9454685610231,230.9323545743232 L775.8189712744991,238.65371838162787 M775.8189712744991,238.65371838162787 L796.1884582672776,246.88692392397502 M796.1884582672776,246.88692392397502 L816.016872077211,255.618717331198 M816.016872077211,255.618717331198 L835.2675488542523,264.8350145674158 M835.2675488542523,264.8350145674158 L853.9046485190124,274.5207434552391 M-53.90465865017404,408.1758810443646 L-46.76550313367352,394.53160945346417 M-46.76550313367352,394.53160945346417 L-38.63658935322417,381.1357966471836 M-38.63658935322417,381.1357966471836 L-29.536815350313532,368.01215803950936 M-29.536815350313532,368.01215803950936 L-19.486717892133015,355.18367921506956 M-19.486717892133015,355.18367921506956 L-8.508302153433306,342.67269152156655 M-8.508302153433306,342.67269152156655 L3.374930185156245,330.5007485554353 M3.374930185156245,330.5007485554353 L16.138086619958926,318.68866824341535 M16.138086619958926,318.68866824341535 L29.755035668551045,307.2565450564705 M29.755035668551045,307.2565450564705 L44.19822417273872,296.2236117823318 M44.19822417273872,296.2236117823318 L59.43907033880805,285.6083490723677 M59.43907033880805,285.6083490723677 L75.44774054302775,275.42840344454845 M75.44774054302775,275.42840344454845 L92.19328004095303,265.70053582297237 M92.19328004095303,265.70053582297237 L109.64382087242745,256.4407304773209 M109.64382087242745,256.4407304773209 L127.76645367739593,247.66405020183169 M127.76645367739593,247.66405020183169 L146.52736901787125,239.38471079465108 M146.52736901787125,239.38471079465108 L165.8919177491507,231.61606195630293 M165.8919177491507,231.61606195630293 L185.82462196684992,224.3705258047803 M185.82462196684992,224.3705258047803 L206.28930667024497,217.6596687186992 M206.28930667024497,217.6596687186992 L227.24907212503626,211.4940879677854 M227.24907212503626,211.4940879677854 L248.6663692060456,205.88358145387303 M248.6663692060456,205.88358145387303 L270.50316171321447,200.83694864867306 M270.50316171321447,200.83694864867306 L292.7207314368368,196.36207429882074 M292.7207314368368,196.36207429882074 L315.2800272799386,192.46599349087626 M315.2800272799386,192.46599349087626 L338.14142160597476,189.15475552664986 M338.14142160597476,189.15475552664986 L361.2651119677182,186.43348599704632 M361.2651119677182,186.43348599704632 L384.61068740792894,184.30643027010632 M384.61068740792894,184.30643027010632 L408.1377462759265,182.7768789772055 M408.1377462759265,182.7768789772055 L431.8054568116738,181.84717479001608 M431.8054568116738,181.84717479001608 L455.57286968750964,181.51878363189593 M455.57286968750964,181.51878363189593 L479.3988702896345,181.7921980905627 M479.3988702896345,181.7921980905627 L503.24228744173865,182.66698823898764 M503.24228744173865,182.66698823898764 L527.0618844921526,184.14181735231477 M527.0618844921526,184.14181735231477 L550.8164924916878,186.21443915679225 M550.8164924916878,186.21443915679225 L574.4648963300212,188.88152707720053 M574.4648963300212,188.88152707720053 L597.9659524780755,192.13906618645802 M597.9659524780755,192.13906618645802 L621.2789158190035,195.98197957502975 M621.2789158190035,195.98197957502975 L644.3630105278494,200.40421759510286 M644.3630105278494,200.40421759510286 L667.1777005354782,205.3989123568054 M667.1777005354782,205.3989123568054 L689.6828791787243,210.95829789576476 M689.6828791787243,210.95829789576476 L711.8388135403607,217.0734946624338 M711.8388135403607,217.0734946624338 L733.606000410945,223.73499352803373 M733.606000410945,223.73499352803373 L754.9454821938998,230.93213695211188 M754.9454821938998,230.93213695211188 L775.8189851516247,238.6535006747432 M775.8189851516247,238.6535006747432 L796.1884723841099,246.88670612695336 M796.1884723841099,246.88670612695336 L816.0168864287944,255.61849943874955 M816.0168864287944,255.61849943874955 L835.2675634352167,264.8347965744336 M835.2675634352167,264.8347965744336 L853.9046633235776,274.52052535681105 M310.3544823199004,618.481216368104 L310.35449132437043,618.4809946635052 M853.9046485190124,274.5207434552391 L310.3544823199004,618.481216368104 M853.9046633235776,274.52052535681105 L310.35449132437043,618.4809946635052 M310.3544823199004,618.481216368104 L-53.90466332357755,408.17610057605896 M310.35449132437043,618.4809946635052 L-53.90465865017404,408.1758810443646" stroke="black"  stroke-width="4"  fill="red"/></svg>