<svg viewBox="0 0 800 800" xmlns="http://www.w3.org/2000/svg"><path d="M636.5636604366882,257.1739754530936 L636.5652968875947,257.1177638975314 M163.41143560563796,542.8663079782891 L163.41306692536455,542.8100933176611 M636.5636604366882,257.1739754530936 L690.2191571338626,295.5060990114507 M690.2191571338626,295.5060990114507 L727.0050319248985,339.9137875283086 M727.0050319248985,339.9137875283086 L744.7895753569028,387.8148030621487 M744.7895753569028,387.8148030621487 L742.5459274041641,436.4282120560456 M742.5459274041641,436.4282120560456 L720.3835270986601,482.92689025413347 M720.3835270986601,482.92689025413347 L679.5991358471802,524.6053802459355 M679.5991358471802,524.6053802459355 L622.5707085973118,559.0434811250343 M622.5707085973118,559.0434811250343 L552.6048312703788,584.2437457353335 M552.6048312703788,584.2437457353335 L473.7634587298671,598.7363039898628 M473.7634587298671,598.7363039898628 L390.633852238243,601.6727675472212 M390.633852238243,601.6727675472212 L308.0520759446372,592.8939170757512 M308.0520759446372,592.8939170757512 L230.81372483517043,572.9057448249114 M230.81372483517043,572.9057448249114 L163.41143560563796,542.8663079782891 M636.5652968875947,257.1177638975314 L690.2207942121022,295.4498870392381 M690.2207942121022,295.4498870392381 L727.006669444876,339.8575750734126 M727.006669444876,339.8575750734126 L744.7912131074991,387.75859008662155 M744.7912131074991,387.75859008662155 L742.5475651608431,436.37199855216386 M742.5475651608431,436.37199855216386 L720.3851646363328,482.8706762449001 M720.3851646363328,482.8706762449001 L679.6007729535922,524.5491657837592 M679.6007729535922,524.5491657837592 L622.5723450852674,558.9872662886191 M622.5723450852674,558.9872662886191 L552.6064669885673,584.1875306250513 M552.6064669885673,584.1875306250513 L473.76509357173927,598.6800887220961 M473.76509357173927,598.6800887220961 L390.63548614818137,601.6165522475421 M390.63548614818137,601.6165522475421 L308.05370892127394,592.8377018714746 M308.05370892127394,592.8377018714746 L230.8153569313581,572.8495298378475 M230.8153569313581,572.8495298378475 L163.41306692536455,542.8100933176611 M163.41143560563796,542.8663079782891 L109.75866112316726,504.5267279762811 M109.75866112316726,504.5267279762811 L72.98118329996942,460.11329107246274 M72.98118329996942,460.11329107246274 L55.20878689250094,412.20955232674896 M55.20878689250094,412.20955232674896 L57.473267915222095,363.6014282842152 M57.473267915222095,363.6014282842152 L79.64674662658945,317.1071127198047 M79.64674662658945,317.1071127198047 L120.42992319451878,275.4310634966423 M120.42992319451878,275.4310634966423 L177.4587896183366,241.00064177304012 M177.4587896183366,241.00064177304012 L247.42665942161693,215.8115364521109 M247.42665942161693,215.8115364521109 L326.25745258363895,201.32334128572256 M326.25745258363895,201.32334128572256 L409.36633184127277,198.38344336927548 M409.36633184127277,198.38344336927548 L491.9356496442924,207.15957092840472 M491.9356496442924,207.15957092840472 L569.1649463178474,227.14199543853465 M569.1649463178474,227.14199543853465 L636.5636604366882,257.1739754530936 M163.41306692536455,542.8100933176611 L109.7602918157354,504.47051373231443 M109.7602918157354,504.47051373231443 L72.98281355088693,460.0570773111649 M72.98281355088693,460.0570773111649 L55.21041691314895,412.1533390860859 M55.21041691314895,412.1533390860859 L57.47489793016575,363.54521557185944 M57.47489793016575,363.54521557185944 L79.64837686077226,317.0509005128042 M79.64837686077226,317.0509005128042 L120.43155386002036,275.374851742632 M120.43155386002036,275.374851742632 L177.46042090232368,240.94443039328326 M177.46042090232368,240.94443039328326 L247.42829147531302,215.7553253461665 M247.42829147531302,215.7553253461665 L326.25908551341854,201.267130337259 M326.25908551341854,201.267130337259 L409.36796570257866,198.3272324527752 M409.36796570257866,198.3272324527752 L491.9372844386089,207.10335991650936 M491.9372844386089,207.10335991650936 L569.1665819924674,227.08578420943013 M569.1665819924674,227.08578420943013 L636.5652968875947,257.1177638975314" stroke="black"  stroke-width="4"  fill="red"/></svg>