<svg viewBox="0 0 800 800" xmlns="http://www.w3.org/2000/svg"><path d="M636.5601444174536,257.11282214781386 L636.5617920461518,257.05660467713096 M163.4149365235644,542.9274569700101 L163.41657902140287,542.8712363943014 M636.5601444174536,257.11282214781386 L690.241653410776,295.4613545424945 M690.241653410776,295.4613545424945 L727.0522333667614,339.88805297272484 M727.0522333667614,339.88805297272484 L744.8587396812218,387.80957420537015 M744.8587396812218,387.80957420537015 L742.6330382390588,436.44379425788793 M742.6330382390588,436.44379425788793 L720.483519645466,482.96237858553286 M720.483519645466,482.96237858553286 L679.7061971578223,524.6587114889735 M679.7061971578223,524.6587114889735 L622.6786172034626,559.1115558289857 M622.6786172034626,559.1115558289857 L552.7073163109017,584.3226091722172 M552.7073163109017,584.3226091722172 L473.854561728338,598.8213720267086 M473.854561728338,598.8213720267086 L390.708275201614,601.7590927564524 M390.708275201614,601.7590927564524 L308.10549587916466,592.9764838471565 M308.10549587916466,592.9764838471565 L230.84303719757008,572.9797542255837 M230.84303719757008,572.9797542255837 L163.4149365235644,542.9274569700101 M636.5617920461518,257.05660467713096 L690.2433016673604,295.4051366551539 M690.2433016673604,295.4051366551539 L727.0538820657239,339.8318346027154 M727.0538820657239,339.8318346027154 L744.8603886112687,387.75335531472956 M744.8603886112687,387.75335531472956 L742.634687175625,436.3875748389073 M742.634687175625,436.3875748389073 L720.4851683633169,482.90615866121516 M720.4851683633169,482.90615866121516 L679.7078454445582,524.6024911117165 M679.7078454445582,524.6024911117165 L622.6802648718003,559.0553350774826 M622.6802648718003,559.0553350774826 L552.7089632093848,584.2663881468652 M552.7089632093848,584.2663881468652 L473.8562077502429,598.7651508438721 M473.8562077502429,598.7651508438721 L390.7099202912359,601.7028715417109 M390.7099202912359,601.7028715417109 L308.10714003499015,592.9202627278028 M308.10714003499015,592.9202627278028 L230.84468047239352,572.9235333234319 M230.84468047239352,572.9235333234319 L163.41657902140287,542.8712363943014 M163.4149365235644,542.9274569700101 L109.73614808372804,504.5714633431271 M109.73614808372804,504.5714633431271 L72.93396651098737,460.13901283428277 M72.93396651098737,460.13901283428277 L55.139611388760386,412.2147666408964 M55.139611388760386,412.2147666408964 L57.386155170243,363.58583400036514 M57.386155170243,363.58583400036514 L79.54675856616814,317.0716151081251 M79.54675856616814,317.0716151081251 L120.32286842810572,275.37772547417626 M120.32286842810572,275.37772547417626 L177.3508906555944,240.93256522125012 M177.3508906555944,240.93256522125012 L247.3241874552914,215.73267740055962 M247.3241874552914,215.73267740055962 L326.1663597844599,201.23828043619505 M326.1663597844599,201.23828043619505 L409.2919105547189,198.29712407518673 M409.2919105547189,198.29712407518673 L491.88222502096323,207.07700832349292 M491.88222502096323,207.07700832349292 L569.1356232115941,227.0679865131351 M569.1356232115941,227.0679865131351 L636.5601444174536,257.11282214781386 M163.41657902140287,542.8712363943014 L109.73778995365137,504.5152431840688 M109.73778995365137,504.5152431840688 L72.93560793879442,460.08279315788604 M72.93560793879442,460.08279315788604 L55.14125258574495,412.1585474851381 M55.14125258574495,412.1585474851381 L57.38779636108666,363.52961537289593 M57.38779636108666,363.52961537289593 L79.54839997595991,317.0153969860039 M79.54839997595991,317.0153969860039 L120.32451026909985,275.3215078050416 M120.32451026909985,275.3215078050416 L177.35253311498673,240.87634792636527 M177.35253311498673,240.87634792636527 L247.32583068450913,215.6764603794727 M247.32583068450913,215.6764603794727 L326.1680038900522,201.1820635726035 M326.1680038900522,201.1820635726035 L409.29355559221585,198.2409072435512 M409.29355559221585,198.2409072435512 L491.8838709919364,207.0207913964623 M491.8838709919364,207.0207913964623 L569.1372700633656,227.0117693688917 M569.1372700633656,227.0117693688917 L636.5617920461518,257.05660467713096" stroke="black"  stroke-width="4"  fill="red"/></svg>