<svg viewBox="0 0 800 800" xmlns="http://www.w3.org/2000/svg"><path d="M239.4220436643618,585.4405054235874 L239.42205288441824,585.4404221097336 M718.7106320489265,272.82533731981624 L718.7106452950395,272.82525787637013 M239.4220436643618,585.4405054235874 L229.12169630328253,580.1120857374312 M229.12169630328253,580.1120857374312 L219.10893474484374,574.6429588006168 M219.10893474484374,574.6429588006168 L209.39312413410948,569.0396759224222 M209.39312413410948,569.0396759224222 L199.9833591012848,563.3087507398268 M199.9833591012848,563.3087507398268 L190.88813405511064,557.4569240847306 M190.88813405511064,557.4569240847306 L182.11559163211223,551.4908875832414 M182.11559163211223,551.4908875832414 L173.67340562885556,545.4175228202209 M173.67340562885556,545.4175228202209 L165.5687817412529,539.2436757820608 M165.5687817412529,539.2436757820608 L157.80846989907718,532.9762857798008 M157.80846989907718,532.9762857798008 L150.39878367102483,526.6223435272163 M150.39878367102483,526.6223435272163 L143.34549664078418,520.1888741266523 M143.34549664078418,520.1888741266523 L136.65398799484637,513.6828727684813 M136.65398799484637,513.6828727684813 L130.32922161884426,507.11137281919116 M130.32922161884426,507.11137281919116 L124.37555906529133,500.48142964073054 M124.37555906529133,500.48142964073054 L118.79709143387208,493.8000222416318 M118.79709143387208,493.8000222416318 L113.59727340337804,487.0742043739639 M113.59727340337804,487.0742043739639 L108.77923640179051,480.310912534377 M108.77923640179051,480.310912534377 L104.34571707498367,473.5170937578051 M104.34571707498367,473.5170937578051 L100.29880369120815,466.69965626648434 M100.29880369120815,466.69965626648434 L96.64038492625309,459.86543303158317 M96.64038492625309,459.86543303158317 L93.3718444894198,453.02119258009657 M93.3718444894198,453.02119258009657 L90.4940581905646,446.17367280406575 M90.4940581905646,446.17367280406575 L88.00762519037539,439.32952257152147 M88.00762519037539,439.32952257152147 L85.91273591487993,432.4952734456597 M85.91273591487993,432.4952734456597 L84.20907954647396,425.6774544360615 M84.20907954647396,425.6774544360615 L82.89609410462685,418.8824211906744 M82.89609410462685,418.8824211906744 L81.97278957247158,412.11647142944753 M81.97278957247158,412.11647142944753 L81.43778467191737,405.385817481153 M81.43778467191737,405.385817481153 L81.28935470496049,398.6965652796485 M81.28935470496049,398.6965652796485 L81.52550443880705,392.05466617732725 M81.52550443880705,392.05466617732725 L82.1438407727835,385.46601456754973 M82.1438407727835,385.46601456754973 L83.14160001349228,378.93637743947727 M83.14160001349228,378.93637743947727 L84.51583664165719,372.4713643308198 M84.51583664165719,372.4713643308198 L86.26320180387825,366.07651906833746 M86.26320180387825,366.07651906833746 L88.38004058881984,359.7572454052516 M88.38004058881984,359.7572454052516 L90.86250778017688,353.5187835745205 M90.86250778017688,353.5187835745205 L93.70641746344586,347.36629627055515 M93.70641746344586,347.36629627055515 L96.90732693344125,341.3047904125789 M96.90732693344125,341.3047904125789 L100.46057194295713,335.339135207876 M100.46057194295713,335.339135207876 L104.36115301488621,329.4741257266117 M104.36115301488621,329.4741257266117 L108.60394314938776,323.71434953527137 M108.60394314938776,323.71434953527137 L113.18357598084617,318.06429136127826 M113.18357598084617,318.06429136127826 L118.09439523134165,312.52831054757405 M118.09439523134165,312.52831054757405 L123.3305938261733,307.11063232719016 M123.3305938261733,307.11063232719016 L128.88613706549063,301.81535258393467 M128.88613706549063,301.81535258393467 L134.75487398614837,296.6463792215467 M134.75487398614837,296.6463792215467 L140.93037813954493,291.6075510033629 M140.93037813954493,291.6075510033629 L147.4060527701754,286.70257582883323 M147.4060527701754,286.70257582883323 L154.1752937310457,281.9349230055192 M154.1752937310457,281.9349230055192 L161.23108118598816,277.30808799701884 M161.23108118598816,277.30808799701884 L168.56639104914598,272.82533731981624 M168.56639104914598,272.82533731981624 L176.17408085401212,268.48981070695095 M176.17408085401212,268.48981070695095 L184.04684514540327,264.3045050324046 M184.04684514540327,264.3045050324046 L192.17718989343211,260.27234112904557 M192.17718989343211,260.27234112904557 L200.55761437231376,256.3960310477444 M200.55761437231376,256.3960310477444 L209.18034627957013,252.67825582873033 M209.18034627957013,252.67825582873033 L218.03760334051253,249.12149676789522 M218.03760334051253,249.12149676789522 L227.1214677613964,245.7281301232463 M227.1214677613964,245.7281301232463 L236.42388960771473,242.50043356511898 M236.42388960771473,242.50043356511898 L245.93680539111278,239.4405005516594 M245.93680539111278,239.4405005516594 L255.6520645551161,236.55028546969135 M255.6520645551161,236.55028546969135 L265.5612642683002,233.83174988914828 M265.5612642683002,233.83174988914828 L275.65602824016287,231.28663382593385 M275.65602824016287,231.28663382593385 L285.9280562045485,228.91648521706907 M285.9280562045485,228.91648521706907 L296.36861244445777,226.72293462197626 M296.36861244445777,226.72293462197626 L306.9692208841243,224.7072995233772 M306.9692208841243,224.7072995233772 L317.7211921661021,222.87087644325467 M317.7211921661021,222.87087644325467 L328.61579422647014,221.2148090624291 M328.61579422647014,221.2148090624291 L339.64421168365175,219.740146232615 M339.64421168365175,219.740146232615 L350.7976181794845,218.44780868266315 M350.7976181794845,218.44780868266315 L362.0670682078314,217.33861614802112 M362.0670682078314,217.33861614802112 L373.4436469007212,216.41321847273912 M373.4436469007212,216.41321847273912 L384.9183064998242,215.67223813620603 M384.9183064998242,215.67223813620603 L396.4820590438651,215.1160800152427 M396.4820590438651,215.1160800152427 L408.1257575106904,214.74511868038473 M408.1257575106904,214.74511868038473 L419.84027722882115,214.559573234955 M419.84027722882115,214.559573234955 L431.61638606593647,214.55959335916629 M431.61638606593647,214.55959335916629 L443.4449353797452,214.7451388068264 M443.4449353797452,214.7451388068264 L455.31673003403694,215.11606491706755 M455.31673003403694,215.11606491706755 L467.2223228575076,215.67224317060257 M467.2223228575076,215.67224317060257 L479.15255695087876,216.41324869248226 M479.15255695087876,216.41324869248226 L491.0980495200338,217.33862118742735 M491.0980495200338,217.33862118742735 L503.0494192063445,218.44782885363205 M503.0494192063445,218.44782885363205 L514.9973400482506,219.74015632587597 M514.9973400482506,219.74015632587597 L526.9323134095573,221.214814113498 M526.9323134095573,221.214814113498 L538.8450176074841,222.87088655536652 M538.8450176074841,222.87088655536652 L550.7260262566222,224.70727927702202 M550.7260262566222,224.70727927702202 L562.5657903502711,226.72291941898078 M562.5657903502711,226.72291941898078 L574.354886544668,228.91652073704358 M574.354886544668,228.91652073704358 L586.0839435103792,231.28662112234295 M586.0839435103792,231.28662112234295 L597.7434454919305,233.83177279020924 M597.7434454919305,233.83177279020924 L609.3239555192447,236.5502956643775 M609.3239555192447,236.5502956643775 L620.8159665797468,239.44048778644014 M620.8159665797468,239.44048778644014 L632.2101064167953,242.50043868047317 M632.2101064167953,242.50043868047317 L643.4969136146365,245.72813781095277 M643.4969136146365,245.72813781095277 L654.6669023231484,249.12150190332864 M654.6669023231484,249.12150190332864 L665.7107730820248,252.6782584018484 M665.7107730820248,252.6782584018484 L676.6190957346412,256.39601299635524 M676.6190957346412,256.39601299635524 L687.3824943330719,260.27232820569884 M687.3824943330719,260.27232820569884 L697.9917559547787,264.3044920783385 M697.9917559547787,264.3044920783385 L708.4375371212411,268.48980291535656 M708.4375371212411,268.48980291535656 L718.7106320489265,272.82533731981624 M239.42205288441824,585.4404221097336 L229.12170539765066,580.1120024847335 M229.12170539765066,580.1120024847335 L219.1089437166413,574.6428756108637 M219.1089437166413,574.6428756108637 L209.39313298657112,569.0395927973403 M209.39313298657112,569.0395927973403 L199.98336783775608,563.3086676810799 M199.98336783775608,563.3086676810799 L190.8881426790399,557.4568410939179 M190.8881426790399,557.4568410939179 L182.1156001470456,551.4908046618957 M182.1156001470456,551.4908046618957 L173.67341403842943,545.4174399698072 M173.67341403842943,545.4174399698072 L165.56879004918733,539.2435930039744 M165.56879004918733,539.2435930039744 L157.80847810916907,532.9762030753673 M157.80847810916907,532.9762030753673 L150.39879178714273,526.6222608976884 M150.39879178714273,526.6222608976884 L143.34550466685891,520.1887915732093 M143.34550466685891,520.1887915732093 L136.65399593486677,513.6827902922287 M136.65399593486677,513.6827902922287 L130.32922947685188,507.11129042115857 M130.32922947685188,507.11129042115857 L124.37556684537049,500.4813473218709 M124.37556684537049,500.4813473218709 L118.79709914014825,493.79994000282124 M118.79709914014825,493.79994000282124 L113.59728104000783,487.0741222159996 M113.59728104000783,487.0741222159996 L108.77924397295828,480.31083045797754 M108.77924397295828,480.31083045797754 L104.3457245848956,473.5170117636096 M104.3457245848956,473.5170117636096 L100.29881114408568,466.69957435505125 M100.29881114408568,466.69957435505125 L96.64039232632899,459.86535120339056 M96.64039232632899,459.86535120339056 L93.37185184093255,453.02111083554166 M93.37185184093255,453.02111083554166 L90.49406549775222,446.17359114346414 M90.49406549775222,446.17359114346414 L88.0076324574718,439.3294409951077 M88.0076324574718,439.3294409951077 L85.912743146112,432.4951919535864 M85.912743146112,432.4951919535864 L84.20908674605289,425.67737302839976 M84.20908674605289,425.67737302839976 L82.89610127674837,418.882339867414 M82.89610127674837,418.882339867414 L81.97279672130958,412.11639019049693 M81.97279672130958,412.11639019049693 L81.43779180162028,405.3857363263397 M81.43779180162028,405.3857363263397 L81.28936181964832,398.69648420871863 M81.28936181964832,398.69648420871863 L81.52551154256798,392.0545851899473 M81.52551154256798,392.0545851899473 L82.14384786967025,385.46593366330615 M82.14384786967025,385.46593366330615 L83.14160710751912,378.9362966178773 M83.14160710751912,378.9362966178773 L84.5158437367977,372.47128359129266 M84.5158437367977,372.47128359129266 L86.26320890406237,366.07643841023395 M86.26320890406237,366.07643841023395 L88.38004769793156,359.7571648278457 M88.38004769793156,359.7571648278457 L90.86251490205063,353.5187030770105 M90.86251490205063,353.5187030770105 L93.70642460186673,347.3662158520641 M93.70642460186673,347.3662158520641 L96.90733409214158,341.3047100721561 M96.90733409214158,341.3047100721561 L100.46057912561514,335.3390549444978 M100.46057912561514,335.3390549444978 L104.36116022512397,329.47404553918227 M104.36116022512397,329.47404553918227 L108.60395039077002,323.71426942262485 M108.60395039077002,323.71426942262485 L113.18358325687859,318.0642113221797 M113.18358325687859,318.0642113221797 L118.09440254547076,312.52823058072056 M118.09440254547076,312.52823058072056 L123.33060118178355,307.11055243121217 M123.33060118178355,307.11055243121217 L128.88614446590532,301.81527275739785 M128.88614446590532,301.81527275739785 L134.75488143462758,296.6462994629536 M134.75488143462758,296.6462994629536 L140.93038563928462,291.60747131115414 M140.93038563928462,291.60747131115414 L147.4060603243072,286.7024962013886 M147.4060603243072,286.7024962013886 L154.17530134263689,281.9348434411614 M154.17530134263689,281.9348434411614 L161.2310888580398,277.3080084940121 M161.2310888580398,277.3080084940121 L168.56639878459328,272.82525787637013 M168.56639878459328,272.82525787637013 L176.1740886557236,268.48973132122165 M176.1740886557236,268.48973132122165 L184.0468530161811,264.3044257024973 M184.0468530161811,264.3044257024973 L192.17719783601206,260.27226185301515 M192.17719783601206,260.27226185301515 L200.55762238936404,256.39595182359824 M200.55762238936404,256.39595182359824 L209.18035437369122,252.6781766544298 M209.18035437369122,252.6781766544298 L218.03761151423782,249.12141764135737 M218.03761151423782,249.12141764135737 L227.12147601719107,245.72805104234624 M227.12147601719107,245.72805104234624 L236.42389794797668,242.50035452769154 M236.42389794797668,242.50035452769154 L245.93681381817237,239.44042155550153 M245.93681381817237,239.44042155550153 L255.6520730712357,236.5502065125648 M255.6520730712357,236.5502065125648 L265.56127287567415,233.83167096877935 M265.56127287567415,233.83167096877935 L275.65603694091647,231.28655494001703 M275.65603694091647,231.28655494001703 L285.9280650007415,228.9164063632702 M285.9280650007415,228.9164063632702 L296.3686213380795,226.72285579793154 M296.3686213380795,226.72285579793154 L306.9692298770967,224.70722072669832 M306.9692298770967,224.70722072669832 L317.72120126027926,222.87079767152935 M317.72120126027926,222.87079767152935 L328.6158034236364,221.21473031322355 M328.6158034236364,221.21473031322355 L339.64422098552404,219.7400675034762 M339.64422098552404,219.7400675034762 L350.79762758771085,218.44772997112062 M350.79762758771085,218.44772997112062 L362.0670777239902,217.33853745158865 M362.0670777239902,217.33853745158865 L373.4436565263227,216.41313978891876 M373.4436565263227,216.41313978891876 L384.9183162363081,215.672159462488 M384.9183162363081,215.672159462488 L396.4820688926018,215.11600134910918 M396.4820688926018,215.11600134910918 L408.1257674729802,214.74504001931132 M408.1257674729802,214.74504001931132 L419.8402873058942,214.55949457641256 M419.8402873058942,214.55949457641256 L431.616396258951,214.55951470062365 M431.616396258951,214.55951470062365 L443.44494568978826,214.74506014575263 M443.44494568978826,214.74506014575263 L455.3167404621247,215.11598625093438 M455.3167404621247,215.11598625093438 L467.2223334045823,215.67216449688453 M467.2223334045823,215.67216449688453 L479.15256761781006,216.41317000866155 M479.15256761781006,216.41317000866155 L491.0980603076173,217.33854249099505 M491.0980603076173,217.33854249099505 L503.0494301153017,218.44775014208915 M503.0494301153017,218.44775014208915 L514.9973510792277,219.74007759673685 M514.9973510792277,219.74007759673685 L526.9323245631231,221.21473536429244 M526.9323245631231,221.21473536429244 L538.8450288841318,222.87080778364103 M538.8450288841318,222.87080778364103 L550.7260376567667,224.70720048034332 M550.7260376567667,224.70720048034332 L562.5658018742479,226.72284059493623 M562.5658018742479,226.72284059493623 L574.3548981927324,228.91644188324437 M574.3548981927324,228.91644188324437 L586.0839552827072,231.2865422364263 M586.0839552827072,231.2865422364263 L597.7434573886146,233.83169386983997 M597.7434573886146,233.83169386983997 L609.3239675402956,236.5502167072508 M609.3239675402956,236.5502167072508 L620.815978725089,239.44040879028262 M620.815978725089,239.44040879028262 L632.2101186862697,242.50035964304556 M632.2101186862697,242.50035964304556 L643.4969260079968,245.7280587300527 M643.4969260079968,245.7280587300527 L654.6669148400595,249.1214227767907 M654.6669148400595,249.1214227767907 L665.7107857220635,252.67817922754767 M665.7107857220635,252.67817922754767 L676.6191084972936,256.39593377220945 M676.6191084972936,256.39593377220945 L687.3825072177319,260.2722489296685 M687.3825072177319,260.2722489296685 L697.9917689607475,264.30441274843133 M697.9917689607475,264.30441274843133 L708.4375502477267,268.48972352962744 M708.4375502477267,268.48972352962744 L718.7106452950395,272.82525787637013 M718.7106320489265,272.82533731981624 L239.4220436643618,585.4405054235874 M718.7106452950395,272.82525787637013 L239.42205288441824,585.4404221097336" stroke="black"  stroke-width="4"  fill="red"/></svg>