<svg viewBox="0 0 800 800" xmlns="http://www.w3.org/2000/svg"><path d="M194.23669508404555,618.9045823930811 L194.23670360705114,618.9044442474053 M756.941664538765,251.88122134912896 L756.94167876645,251.8810871096283 M194.23669508404555,618.9045823930811 L181.17472828639325,611.2173784095479 M181.17472828639325,611.2173784095479 L168.6128600100485,603.2687486512094 M168.6128600100485,603.2687486512094 L156.5697288345209,595.0726313479094 M156.5697288345209,595.0726313479094 L145.06285724856002,586.6432676651805 M145.06285724856002,586.6432676651805 L134.10880797848563,577.9952823307871 M134.10880797848563,577.9952823307871 L123.72287850080056,569.143438294183 M123.72287850080056,569.143438294183 L113.91949012736745,560.1028588843683 M113.91949012736745,560.1028588843683 L104.71170797839409,550.8887566313523 M104.71170797839409,550.8887566313523 L96.1116713584438,541.5165832198211 M96.1116713584438,541.5165832198211 L88.13024186705707,532.0018728806116 M88.13024186705707,532.0018728806116 L80.7773083883601,522.36033166242 M80.7773083883601,522.36033166242 L74.06147471396832,512.6076616209283 M74.06147471396832,512.6076616209283 L67.9903100779128,502.75964090220714 M67.9903100779128,502.75964090220714 L62.570252683913395,492.8320499324557 M62.570252683913395,492.8320499324557 L57.80654556765512,482.8406268361207 M57.80654556765512,482.8406268361207 L53.70349658711075,472.80114379335623 M53.70349658711075,472.80114379335623 L50.264152913680505,462.72920663652883 M50.264152913680505,462.72920663652883 L47.490592184460866,452.64036106135086 M47.490592184460866,452.64036106135086 L45.383787458760935,442.55005236828595 M45.383787458760935,442.55005236828595 L43.94368820305556,432.4735438484437 M43.94368820305556,432.4735438484437 L43.169219015073054,422.4259336466954 M43.169219015073054,422.4259336466954 L43.058321233549805,412.4221454317945 M43.058321233549805,412.4221454317945 L43.60795592898114,402.4768987660278 M43.60795592898114,402.4768987660278 L44.81406857386992,392.6046596242993 M44.81406857386992,392.6046596242993 L46.671795252187735,382.8196664063008 M46.671795252187735,382.8196664063008 L49.175243205292986,373.13586153981095 M49.175243205292986,373.13586153981095 L52.31775449478516,363.5669717715953 M52.31775449478516,363.5669717715953 L56.09174952065666,354.12635775809275 M56.09174952065666,354.12635775809275 L60.48886511474575,344.82712744761136 M60.48886511474575,344.82712744761136 L65.49987256515851,335.6820298837425 M65.49987256515851,335.6820298837425 L71.1148428582544,326.7035067675677 M71.1148428582544,326.7035067675677 L77.32314177242108,317.90367132058924 M77.32314177242108,317.90367132058924 L84.11329382231679,309.29423648887035 M84.11329382231679,309.29423648887035 L91.47325645818523,300.8866295443843 M91.47325645818523,300.8866295443843 L99.39031026991438,292.69185938695216 M99.39031026991438,292.69185938695216 L107.85106958157894,284.72052926020467 M107.85106958157894,284.72052926020467 L116.84148384689342,276.98294112335816 M116.84148384689342,276.98294112335816 L126.34711624954161,269.4889852263054 M126.34711624954161,269.4889852263054 L136.35275701370415,262.2481328303906 M136.35275701370415,262.2481328303906 L146.84285759454542,255.26948972681942 M146.84285759454542,255.26948972681942 L157.8012786554541,248.5617480885806 M157.8012786554541,248.5617480885806 L169.2113998641962,242.13321945283712 M169.2113998641962,242.13321945283712 L181.056185446457,235.99180685679318 M181.056185446457,235.99180685679318 L193.31813957891836,230.14495707835488 M193.31813957891836,230.14495707835488 L205.97942542615783,224.59981335202224 M205.97942542615783,224.59981335202224 L219.02176052602476,219.36298638654398 M219.02176052602476,219.36298638654398 L232.42647263391268,214.44078633647678 M232.42647263391268,214.44078633647678 L246.17468278138176,209.83907352119854 M246.17468278138176,209.83907352119854 L260.2471549807585,205.56326927470258 M260.2471549807585,205.56326927470258 L274.62422092119664,201.61840586785195 M274.62422092119664,201.61840586785195 L289.286118909539,198.0091357776534 M289.286118909539,198.0091357776534 L304.2127219390036,194.7396412251316 M304.2127219390036,194.7396412251316 L319.3836744480768,191.813721869444 M319.3836744480768,191.813721869444 L334.77851156772977,189.23476256006325 M334.77851156772977,189.23476256006325 L350.37640121337586,187.00575987698903 M350.37640121337586,187.00575987698903 L366.15647103598803,185.1292885481044 M366.15647103598803,185.1292885481044 L382.09760662670624,183.60744749059216 M382.09760662670624,183.60744749059216 L398.1785649718804,182.4420420319817 M398.1785649718804,182.4420420319817 L414.377957205686,181.63437022588278 M414.377957205686,181.63437022588278 L430.67435492345817,181.18536389173642 M430.67435492345817,181.18536389173642 L447.0461246860191,181.0955510363192 M447.0461246860191,181.0955510363192 L463.4716422044303,181.3649977473102 M463.4716422044303,181.3649977473102 L479.9291517391862,181.99342678894857 M479.9291517391862,181.99342678894857 L496.3969037799036,182.9801183096456 M496.3969037799036,182.9801183096456 L512.8531339733574,184.3239082996178 M512.8531339733574,184.3239082996178 L529.2758922141006,186.02332447231026 M529.2758922141006,186.02332447231026 L545.6435778333289,188.07636582951517 M545.6435778333289,188.07636582951517 L561.9341859020049,190.48069615217668 M561.9341859020049,190.48069615217668 L578.1261359849229,193.2335007643128 M578.1261359849229,193.2335007643128 L594.1976218134134,196.33165904818958 M594.1976218134134,196.33165904818958 L610.1270452199738,199.77154004448687 M610.1270452199738,199.77154004448687 L625.8929268024885,203.54917365093996 M625.8929268024885,203.54917365093996 L641.4737569858171,207.6601038596143 M641.4737569858171,207.6601038596143 L656.8482905259034,212.0995391828348 M656.8482905259034,212.0995391828348 L671.9953596759328,216.86218427848547 M671.9953596759328,216.86218427848547 L686.8940477384931,221.94246943530834 M686.8940477384931,221.94246943530834 L701.5235100194091,227.33424082241163 M701.5235100194091,227.33424082241163 L715.8632454958886,233.03110943220355 M715.8632454958886,233.03110943220355 L729.8928176118061,239.02615978389582 M729.8928176118061,239.02615978389582 L743.592260332545,245.3120781487034 M743.592260332545,245.3120781487034 L756.941664538765,251.88122134912896 M194.23670360705114,618.9044442474053 L181.1747366467339,611.2172403406288 M181.1747366467339,611.2172403406288 L168.61286821358294,603.2686106618846 M168.61286821358294,603.2686106618846 L156.56973688733797,595.0724934408994 M156.56973688733797,595.0724934408994 L145.06286515696343,586.6431298430844 M145.06286515696343,586.6431298430844 L134.10881574897917,577.9951445960775 M134.10881574897917,577.9951445960775 L123.7228861400697,569.1433006492038 M123.7228861400697,569.1433006492038 L113.91949764226683,560.1027213313284 M113.91949764226683,560.1027213313284 L104.71171537592795,550.8886191723246 M104.71171537592795,550.8886191723246 L96.11167864575373,541.5164458567374 M96.11167864575373,541.5164458567374 L88.13024905140321,532.0017356152598 M88.13024905140321,532.0017356152598 L80.777315477108,522.3601944964413 M80.777315477108,522.3601944964413 L74.06148171457198,512.6075245558142 M74.06148171457198,512.6075245558142 L67.99031699790021,502.75950393929725 M67.99031699790021,502.75950393929725 L62.570259530871795,492.8319130729352 M62.570259530871795,492.8319130729352 L57.80655234921585,482.84049008101874 M57.80655234921585,482.84049008101874 L53.70350331093664,472.8010071435434 M53.70350331093664,472.8010071435434 L50.264159587451104,462.72907009271614 M50.264159587451104,462.72907009271614 L47.490598815859585,452.6402246240888 M47.490598815859585,452.6402246240888 L45.383794055461635,442.5499160379626 M45.383794055461635,442.5499160379626 L43.9436947727113,432.47340762528495 M43.9436947727113,432.47340762528495 L43.16922556530301,422.42579753076416 M43.16922556530301,422.42579753076416 L43.05832777192984,412.4220094229903 M43.05832777192984,412.4220094229903 L43.6079624630313,402.47676286408694 M43.6079624630313,402.47676286408694 L44.81407511104396,392.60452382879555 M44.81407511104396,392.60452382879555 L46.67180179986474,382.81953071664566 M46.67180179986474,382.81953071664566 L49.17524977076721,373.1357259552549 M49.17524977076721,373.1357259552549 L52.31776108525776,363.56683629122864 M52.31776108525776,363.56683629122864 L56.09175614322612,354.12622238084725 M56.09175614322612,354.12622238084725 L60.48887177640211,344.8269921722616 M60.48887177640211,344.8269921722616 L65.49987927277414,335.6818947089085 M65.49987927277414,335.6818947089085 L71.11484961857809,326.7033716917166 M71.11484961857809,326.7033716917166 L77.32314859207247,317.90353634203746 M77.32314859207247,317.90353634203746 L84.11330070777854,309.294101605787 M84.11330070777854,309.294101605787 L91.47326341579878,300.88649475479343 M91.47326341579878,300.88649475479343 L99.39031730587544,292.691724688736 M99.39031730587544,292.691724688736 L107.8510767019311,284.72039465110777 M107.8510767019311,284.72039465110777 L116.84149105752408,276.9828066009898 M116.84149105752408,276.9828066009898 L126.3471235561799,269.4888507881437 M126.3471235561799,269.4888507881437 L136.35276442191434,262.247998473787 M136.35276442191434,262.247998473787 L146.8428651097263,255.26935544900215 M146.8428651097263,255.26935544900215 L157.8012862828341,248.5616138866592 M157.8012862828341,248.5616138866592 L169.21140760883077,242.13308532380722 M169.21140760883077,242.13308532380722 L181.0561933132267,235.99167279754045 M181.0561933132267,235.99167279754045 L193.3181475725255,230.14482308566096 M193.3181475725255,230.14482308566096 L205.97943355112602,224.5996794225681 M205.97943355112602,224.5996794225681 L219.0217687866948,219.36285251691697 M219.0217687866948,219.36285251691697 L232.42648103444094,214.44065252317404 M232.42648103444094,214.44065252317404 L246.1746913257407,209.83893976063297 M246.1746913257407,209.83893976063297 L260.247163672733,205.56313556320862 M260.247163672733,205.56313556320862 L274.62422976438256,201.61827220169096 M274.62422976438256,201.61827220169096 L289.2861279073429,198.00900215301886 M289.2861279073429,198.00900215301886 L304.2127310946405,194.73950763815515 M304.2127310946405,194.73950763815515 L319.38368376456833,191.81358831620167 M319.38368376456833,191.81358831620167 L334.7785210479053,189.23462903658083 M334.7785210479053,189.23462903658083 L350.37641085986866,187.00562637924776 M350.37641085986866,187.00562637924776 L366.1564808512362,185.12915507204724 M366.1564808512362,185.12915507204724 L382.0976166129501,183.60731403213055 M382.0976166129501,183.60731403213055 L398.1785751311618,182.44190858700023 M398.1785751311618,182.44190858700023 L414.3779675398466,181.63423679024663 M414.3779675398466,181.63423679024663 L430.6743654341401,181.1852304612965 M430.6743654341401,181.1852304612965 L447.0461353746614,181.09541760691883 M447.0461353746614,181.09541760691883 L463.47165307226896,181.36486431479142 M463.47165307226896,181.36486431479142 L479.92916278725374,181.99329334915757 M479.92916278725374,181.99329334915757 L496.3969150090254,182.9799848584396 M496.3969150090254,182.9799848584396 L512.8531453841535,184.32377483287144 M512.8531453841535,184.32377483287144 L529.2759038069803,186.02319098592017 M529.2759038069803,186.02319098592017 L545.6435896084947,188.0762323194079 M545.6435896084947,188.0762323194079 L561.9341978594457,190.48056261431378 M561.9341978594457,190.48056261431378 L578.1261481244169,193.23336719469734 M578.1261481244169,193.23336719469734 L594.1976341345244,196.33152544287134 M594.1976341345244,196.33152544287134 L610.12705772205,199.7714063995689 M610.12705772205,199.7714063995689 L625.8929394846632,203.54903996258406 M625.8929394846632,203.54903996258406 L641.4737698470042,207.6599701240474 M641.4737698470042,207.6599701240474 L656.8483035647985,212.0994053963538 M656.8483035647985,212.0994053963538 L671.9953728910104,216.86205043746384 M671.9953728910104,216.86205043746384 L686.8940611280077,221.9423355362 M686.8940611280077,221.9423355362 L701.5235235813918,227.33410686175853 M701.5235235813918,227.33410686175853 L715.8632592281479,233.03097540663885 M715.8632592281479,233.03097540663885 L729.8928315119238,239.02602569015028 M729.8928315119238,239.02602569015028 L743.5922743978806,245.31194398361032 M743.5922743978806,245.31194398361032 L756.94167876645,251.8810871096283 M756.941664538765,251.88122134912896 L194.23669508404555,618.9045823930811 M756.94167876645,251.8810871096283 L194.23670360705114,618.9044442474053" stroke="black"  stroke-width="4"  fill="red"/></svg>