<svg viewBox="0 0 800 800" xmlns="http://www.w3.org/2000/svg"><path d="M605.1571989844088,274.34348103328375 L605.1620785375126,274.28909425847814 M194.80756096105324,525.690090041724 L194.8124367048731,525.6357001848664 M605.1571989844088,274.34348103328375 L659.9724312250037,308.0675481547514 M659.9724312250037,308.0675481547514 L699.685123757692,347.1309810476814 M699.685123757692,347.1309810476814 L721.9793443703675,389.2791984218493 M721.9793443703675,389.2791984218493 L725.5619283474516,432.04256063024513 M725.5619283474516,432.04256063024513 L710.2199408406741,472.9587534193124 M710.2199408406741,472.9587534193124 L676.832878936606,509.63417148249573 M676.832878936606,509.63417148249573 L627.3931749889744,539.9204326186882 M627.3931749889744,539.9204326186882 L564.7058133640676,562.0986257197219 M564.7058133640676,562.0986257197219 L492.4384513803525,574.8487801865558 M492.4384513803525,574.8487801865558 L414.82076577295084,577.4341169336985 M414.82076577295084,577.4341169336985 L336.3234359981725,569.7088098247477 M336.3234359981725,569.7088098247477 L261.54576649697265,552.1180042254855 M261.54576649697265,552.1180042254855 L194.80756096105324,525.690090041724 M605.1620785375126,274.28909425847814 L659.97731142462,308.01316096639493 M659.97731142462,308.01316096639493 L699.6900044556241,347.07659338031954 M699.6900044556241,347.07659338031954 L721.984225389373,389.2248102375888 M721.984225389373,389.2248102375888 L725.5668094915454,431.9881719216646 M725.5668094915454,431.9881719216646 L710.2248219070025,472.90436420901096 M710.2248219070025,472.90436420901096 L676.837759726157,509.57978182252555 M676.837759726157,509.57978182252555 L627.3980553197325,539.866042587324 M627.3980553197325,539.866042587324 L564.710693079629,562.0442354164552 M564.710693079629,562.0442354164552 L492.4433303605765,574.7943897269579 M492.4433303605765,574.7943897269579 L414.8256439405377,577.3797264424211 M414.8256439405377,577.3797264424211 L336.32831332302885,569.6544194281742 M336.32831332302885,569.6544194281742 L261.55064299789956,552.0636140445858 M261.55064299789956,552.0636140445858 L194.8124367048731,525.6357001848664 M194.80756096105324,525.690090041724 L139.99390477052657,491.95986982826435 M139.99390477052657,491.95986982826435 L100.2879665516084,452.89169384961133 M100.2879665516084,452.89169384961133 L78.01963430864271,410.74889931718644 M78.01963430864271,410.74889931718644 L74.43319050845457,367.9786301800923 M74.43319050845457,367.9786301800923 L89.80090478481725,327.0737081524567 M89.80090478481725,327.0737081524567 L123.194435352867,290.403902610502 M123.194435352867,290.403902610502 L172.6353685714421,260.12397594250797 M172.6353685714421,260.12397594250797 L235.31844011181965,237.95139660025598 M235.31844011181965,237.95139660025598 L307.56147293478716,225.19717329034756 M307.56147293478716,225.19717329034756 L385.18331445072545,222.6202692068182 M385.18331445072545,222.6202692068182 L463.6538837249391,230.33565936182276 M463.6538837249391,230.33565936182276 L538.4229577069054,247.9217202620639 M538.4229577069054,247.9217202620639 L605.1571989844088,274.34348103328375 M194.8124367048731,525.6357001848664 L139.99877986777574,491.9054803850013 M139.99877986777574,491.9054803850013 L100.2928411506,452.8373048853973 M100.2928411506,452.8373048853973 L78.02450858714292,410.69451086968184 M78.02450858714292,410.69451086968184 L74.43806466163369,367.9242422570387 M74.43806466163369,367.9242422570387 L89.80577901640208,327.01932073102216 M89.80577901640208,327.01932073102216 L123.19930986140389,290.3495156387071 M123.19930986140389,290.3495156387071 L172.64024353888817,260.06958934207796 M172.64024353888817,260.06958934207796 L235.3233156944043,237.8970102717285 M235.3233156944043,237.8970102717285 L307.5663492521853,225.14278711825318 M307.5663492521853,225.14278711825318 L385.18819158070255,222.56588306631602 M385.18819158070255,222.56588306631602 L463.65876169729745,230.2812731267186 M463.65876169729745,230.2812731267186 L538.4278365029022,247.8673338112858 M538.4278365029022,247.8673338112858 L605.1620785375126,274.28909425847814" stroke="black"  stroke-width="4"  fill="red"/></svg>