<svg viewBox="0 0 800 800" xmlns="http://www.w3.org/2000/svg"><path d="M216.9982583517267,602.4392751871676 L216.99826812906645,602.439163025163 M738.3640851256223,262.3792997768878 L738.3640997475552,262.3791915217268 M216.9982583517267,602.4392751871676 L205.14311747143597,595.904020003379 M205.14311747143597,595.904020003379 L193.68124061488538,589.1678062565657 M193.68124061488538,589.1678062565657 L182.62677326446487,582.2406562464957 M182.62677326446487,582.2406562464957 L171.99314705800998,575.132801117274 M171.99314705800998,575.132801117274 L161.79304540553767,567.8546184483803 M161.79304540553767,567.8546184483803 L152.03837166036124,560.4167608683107 M152.03837166036124,560.4167608683107 L142.7403945918577,552.8299037436232 M142.7403945918577,552.8299037436232 L133.90940136945983,545.1049265087131 M133.90940136945983,545.1049265087131 L125.55518551996875,537.2527487180334 M125.55518551996875,537.2527487180334 L117.68651375828472,529.2844421719922 M117.68651375828472,529.2844421719922 L110.3115887825004,521.2110861812705 M110.3115887825004,521.2110861812705 L103.43765918236477,513.0438291774844 M103.43765918236477,513.0438291774844 L97.07138068708377,504.79384811865174 M97.07138068708377,504.79384811865174 L91.21853088697821,496.47230901123106 M91.21853088697821,496.47230901123106 L85.88411508908348,488.09037890171396 M85.88411508908348,488.09037890171396 L81.0724351207275,479.6591878599346 M81.0724351207275,479.6591878599346 L76.78708300768335,471.1898754355558 M76.78708300768335,471.1898754355558 L73.03075814776071,462.6934207365526 M73.03075814776071,462.6934207365526 L69.80560003974006,454.1808073553449 M69.80560003974006,454.1808073553449 L67.11295263942066,445.6628885560815 M67.11295263942066,445.6628885560815 L64.95344971498707,437.1504528759783 M64.95344971498707,437.1504528759783 L63.32704913155021,428.6541414571255 M63.32704913155021,428.6541414571255 L62.23301888279116,420.1844328246501 M62.23301888279116,420.1844328246501 L61.66999498177779,411.7517260292181 M61.66999498177779,411.7517260292181 L61.635900252445026,403.3662604647928 M61.635900252445026,403.3662604647928 L62.128129080526605,395.0380862407619 M62.128129080526605,395.0380862407619 L63.14333395109793,386.77706780055183 M63.14333395109793,386.77706780055183 L64.67766044361656,378.5929119661955 M64.67766044361656,378.5929119661955 L66.72664323234017,370.49513987353976 M66.72664323234017,370.49513987353976 L69.28520597100396,362.4930837818647 M69.28520597100396,362.4930837818647 L72.34788950138818,354.59579696028436 M72.34788950138818,354.59579696028436 L75.90847959308303,346.81224280204475 M75.90847959308303,346.81224280204475 L79.96043778023886,339.1510465581737 M79.96043778023886,339.1510465581737 L84.4965335349359,331.6207163148566 M84.4965335349359,331.6207163148566 L89.50933285100245,324.2294287136941 M89.50933285100245,324.2294287136941 L94.99065556576238,316.9852177120553 M94.99065556576238,316.9852177120553 L100.93213744016703,309.8958014929847 M100.93213744016703,309.8958014929847 L107.32476994132503,302.968754737579 M107.32476994132503,302.968754737579 L114.15929972805861,296.2113137103648 M114.15929972805861,296.2113137103648 L121.42599335348336,289.63054817231466 M121.42599335348336,289.63054817231466 L129.114772175099,283.23320670121745 M129.114772175099,283.23320670121745 L137.21517065631292,277.0258722148328 M137.21517065631292,277.0258722148328 L145.7165188590252,271.01477756991824 M145.7165188590252,271.01477756991824 L154.60757378402104,265.2060219055867 M154.60757378402104,265.2060219055867 L163.87703981148343,259.60533335214166 M163.87703981148343,259.60533335214166 L173.5131682923975,254.21826924665493 M173.5131682923975,254.21826924665493 L183.5039101640532,249.0501322739414 M183.5039101640532,249.0501322739414 L193.8371113363994,244.1059104008733 M193.8371113363994,244.1059104008733 L204.5001978951832,239.39040662576696 M204.5001978951832,239.39040662576696 L215.48038985162475,234.9081327727605 M215.48038985162475,234.9081327727605 L226.76477298231566,230.6633551567905 M226.76477298231566,230.6633551567905 L238.34008752614363,226.66010937775647 M238.34008752614363,226.66010937775647 L250.19294856660372,222.90215458381775 M250.19294856660372,222.90215458381775 L262.30982370875677,219.3929729215547 M262.30982370875677,219.3929729215547 L274.67679730145437,216.13588107003466 M274.67679730145437,216.13588107003466 L287.28006540910246,213.1338485897067 M287.28006540910246,213.1338485897067 L300.1053939196245,210.38967622185965 M300.1053939196245,210.38967622185965 L313.13864122950304,207.90582893026757 M313.13864122950304,207.90582893026757 L326.3652935057646,205.68465019175778 M326.3652935057646,205.68465019175778 L339.77091116070005,203.72810492141946 M339.77091116070005,203.72810492141946 L353.3407742284089,202.0379926726571 M353.3407742284089,202.0379926726571 L367.0601127090672,200.61585409666358 M367.0601127090672,200.61585409666358 L380.9140632494348,199.4629592173739 M380.9140632494348,199.4629592173739 L394.8877199593571,198.58028779443416 M394.8877199593571,198.58028779443416 L408.9659233296816,197.96875463103163 M408.9659233296816,197.96875463103163 L423.13364116614434,197.62881687292227 M423.13364116614434,197.62881687292227 L437.37559408621996,197.56083226505933 M437.37559408621996,197.56083226505933 L451.6765663497872,197.76479200722966 M451.6765663497872,197.76479200722966 L466.02117846656597,198.2405886058979 M466.02117846656597,198.2405886058979 L480.3940692608687,198.98779241660554 M480.3940692608687,198.98779241660554 L494.7799117238674,200.00566556345444 M494.7799117238674,200.00566556345444 L509.16322177163465,201.2933391282087 M509.16322177163465,201.2933391282087 L523.5284425095394,202.84964759064755 M523.5284425095394,202.84964759064755 L537.8602751279893,204.67318596946598 M537.8602751279893,204.67318596946598 L552.1431142379249,206.76230697306073 M552.1431142379249,206.76230697306073 L566.3615699213174,209.11505788611657 M566.3615699213174,209.11505788611657 L580.500090822469,211.7293709496982 M580.500090822469,211.7293709496982 L594.5433784928143,214.6027901794488 M594.5433784928143,214.6027901794488 L608.4758374259209,217.73273582523893 M608.4758374259209,217.73273582523893 L622.2822731228084,221.1162597033395 M622.2822731228084,221.1162597033395 L635.9472965494517,224.7502343946266 M635.9472965494517,224.7502343946266 L649.4556606955291,228.63130262403632 M649.4556606955291,228.63130262403632 L662.7921228400908,232.7558107667439 M662.7921228400908,232.7558107667439 L675.9417195484984,237.11983206680623 M675.9417195484984,237.11983206680623 L688.8893477562899,241.71928068385284 M688.8893477562899,241.71928068385284 L701.6200701160208,246.54973830765616 M701.6200701160208,246.54973830765616 L714.1192351162199,251.60650669294745 M714.1192351162199,251.60650669294745 L726.3720454003751,256.88476732920566 M726.3720454003751,256.88476732920566 L738.3640851256223,262.3792997768878 M216.99826812906645,602.439163025163 L205.14312710243576,595.9039079116176 M205.14312710243576,595.9039079116176 L193.6812501039451,589.1676942374058 M193.6812501039451,589.1676942374058 L182.6267826161611,582.2405443022055 M182.6267826161611,582.2405443022055 L171.9931562770837,575.1326892500276 M171.9931562770837,575.1326892500276 L161.79305449688377,567.8545066602567 M161.79305449688377,567.8545066602567 L152.0383806290174,560.4166491612887 M152.0383806290174,560.4166491612887 L142.74040344299488,552.8297921195804 M142.74040344299488,552.8297921195804 L133.90941010836877,545.1048149694229 M133.90941010836877,545.1048149694229 L125.55519415205254,537.2526372651628 M125.55519415205254,537.2526372651628 L117.68652228904512,529.2843308070989 M117.68652228904512,529.2843308070989 L110.31159721752874,521.2109749058019 M110.31159721752874,521.2109749058019 L103.43766752733109,513.0437179927752 M103.43766752733109,513.0437179927752 L97.07138894772652,504.7937370259218 M97.07138894772652,504.7937370259218 L91.21853906909382,496.47219801158417 M91.21853906909382,496.47219801158417 L85.88412319851659,488.0902679961365 M85.88412319851659,488.0902679961365 L81.07244316336119,479.6590770492941 M81.07244316336119,479.6590770492941 L76.78709098943045,471.1897647205993 M76.78709098943045,471.1897647205993 L73.03076607455296,462.6933101179066 M73.03076607455296,462.6933101179066 L69.80560791752032,454.180696833514 M69.80560791752032,454.180696833514 L67.11296047413475,445.66277813144814 M67.11296047413475,445.66277813144814 L64.953457512574,437.1503425488017 M64.953457512574,437.1503425488017 L63.32705689793511,428.65403122754174 M63.32705689793511,428.65403122754174 L62.23302662387755,420.18432269267265 M62.23302662387755,420.18432269267265 L61.67000270344079,411.75161599473694 M61.67000270344079,411.75161599473694 L61.635907960523355,403.3661505275747 M61.635907960523355,403.3661505275747 L62.128136780816476,395.03797640045144 M62.128136780816476,395.03797640045144 L63.14334164934644,386.7769580566716 M63.14334164934644,386.7769580566716 L64.67766814551578,378.5928023181473 M64.67766814551578,378.5928023181473 L66.72665094352192,370.4950303206047 M66.72665094352192,370.4950303206047 L69.28521369703412,362.49297432320446 M69.28521369703412,362.49297432320446 L72.34789724776192,354.59568759494323 M72.34789724776192,354.59568759494323 L75.90848736521934,346.81213352894986 M75.90848736521934,346.81213352894986 L79.96044558347762,339.15093737613745 M79.96044558347762,339.15093737613745 L84.49654137453172,331.62060722257763 M84.49654137453172,331.62060722257763 L89.50934073212375,324.22931970975986 M89.50934073212375,324.22931970975986 L94.99066349348391,316.9851087949433 M94.99066349348391,316.9851087949433 L100.932145419471,309.895692661065 M100.932145419471,309.895692661065 L107.32477797709407,302.96864598911634 M107.32477797709407,302.96864598911634 L114.15930782507667,296.21120504352075 M114.15930782507667,296.21120504352075 L121.42600151643023,289.63043958515016 M121.42600151643023,289.63043958515016 L129.11478040854877,283.23309819169606 M129.11478040854877,283.23309819169606 L137.2151789647321,277.02576378082193 M137.2151789647321,277.02576378082193 L145.71652724677256,271.0146692091938 M145.71652724677256,271.0146692091938 L154.6075822553414,265.20591361583433 M154.6075822553414,265.20591361583433 L163.8770483705107,259.605225130961 M163.8770483705107,259.605225130961 L173.5131769431507,254.2181610915616 M173.5131769431507,254.2181610915616 L183.5039189104341,249.05002418237112 M183.5039189104341,249.05002418237112 L193.83712018219512,244.10580237018448 M193.83712018219512,244.10580237018448 L204.50020684406127,239.39029865324454 M204.50020684406127,239.39029865324454 L215.48039890713358,234.90802485561915 M215.48039890713358,234.90802485561915 L226.76478214788403,230.66324729217786 M226.76478214788403,230.66324729217786 L238.3400968050787,226.66000156275706 M238.3400968050787,226.66000156275706 L250.1929579620912,222.9020468154564 M250.1929579620912,222.9020468154564 L262.30983322386055,219.39286519680044 M262.30983322386055,219.39286519680044 L274.67680693911393,216.13577338580387 M274.67680693911393,216.13577338580387 L287.2800751721338,213.13374094286777 M287.2800751721338,213.13374094286777 L300.1054038107186,210.38956860923577 M300.1054038107186,210.38956860923577 L313.13865125122675,207.90572134864166 M313.13865125122675,207.90572134864166 L326.3653036605572,205.68454263787518 M326.3653036605572,205.68454263787518 L339.77092145087477,203.72799739199291 M339.77092145087477,203.72799739199291 L353.34078465615244,202.03788516436992 M353.34078465615244,202.03788516436992 L367.0601232764368,200.61574660617384 M367.0601232764368,200.61574660617384 L380.9140739583595,199.46285174131873 M380.9140739583595,199.46285174131873 L394.88773081163686,198.5801803294345 M394.88773081163686,198.5801803294345 L408.9659343269857,197.96864717369328 M408.9659343269857,197.96864717369328 L423.1336523100115,197.6287094198433 M423.1336523100115,197.6287094198433 L437.3756053780562,197.5607248128324 M437.3756053780562,197.5607248128324 L451.6765777908656,197.764684552447 M451.6765777908656,197.764684552447 L466.0211900580266,198.2404811451537 M466.0211900580266,198.2404811451537 L480.3940810037154,198.98768494650145 M480.3940810037154,198.98768494650145 L494.77992361896986,200.00555808060392 M494.77992361896986,200.00555808060392 L509.1632338197244,201.29323162923941 M509.1632338197244,201.29323162923941 L523.5284547112094,202.8495400722069 M523.5284547112094,202.8495400722069 L537.8602874836945,204.6730784282241 M537.8602874836945,204.6730784282241 L552.1431267479784,206.7621994057152 M552.1431267479784,206.7621994057152 L566.3615825858908,209.11495028939643 M566.3615825858908,209.11495028939643 L580.5001036415908,211.7292633203666 M580.5001036415908,211.7292633203666 L594.5433914663695,214.60268251430853 M594.5433914663695,214.60268251430853 L608.4758505536463,217.7326281211348 M608.4758505536463,217.7326281211348 L622.2822864042953,221.11615195716377 M622.2822864042953,221.11615195716377 L635.947309984143,224.7501266033218 M635.947309984143,224.7501266033218 L649.455674282716,228.63119478459868 M649.455674282716,228.63119478459868 L662.7921365789134,232.7557028762273 M662.7921365789134,232.7557028762273 L675.9417334379452,237.11972412232691 M675.9417334379452,237.11972412232691 L688.8893617951942,241.7191726825912 M688.8893617951942,241.7191726825912 L701.6200843030595,246.54963024686134 M701.6200843030595,246.54963024686134 L714.1192494499144,251.60639856994126 M714.1192494499144,251.60639856994126 L726.3720598790874,256.8846591413843 M726.3720598790874,256.8846591413843 L738.3640997475552,262.3791915217268 M738.3640851256223,262.3792997768878 L216.9982583517267,602.4392751871676 M738.3640997475552,262.3791915217268 L216.99826812906645,602.439163025163" stroke="black"  stroke-width="4"  fill="red"/></svg>