<svg viewBox="0 0 800 800" xmlns="http://www.w3.org/2000/svg"><path d="M633.7119635597337,257.02839389164 L633.7344743460417,256.46594266267493 M166.10679515311494,543.4450555461226 L166.1293009337969,542.8826012122445 M633.7119635597337,257.02839389164 L688.2551348502748,295.44124005688354 M688.2551348502748,295.44124005688354 L726.0866562016308,340.0597199340118 M726.0866562016308,340.0597199340118 L744.9641001850832,388.04333311266964 M744.9641001850832,388.04333311266964 L743.7125422204845,436.81374819920165 M743.7125422204845,436.81374819920165 L722.4687540091109,483.3555819532485 M722.4687540091109,483.3555819532485 L682.6072462073062,525.177825573599 M682.6072462073062,525.177825573599 L626.2435165131465,559.7020382311312 M626.2435165131465,559.7020382311312 L556.6594984119292,584.9178830854944 M556.6594984119292,584.9178830854944 L478.1608698198106,599.4705511088832 M478.1608698198106,599.4705511088832 L394.9381416654214,602.4422691466752 M394.9381416654214,602.4422691466752 L312.13418382941745,593.614520535164 M312.13418382941745,593.614520535164 L234.2058662713971,573.5554511467344 M234.2058662713971,573.5554511467344 L166.10679515311494,543.4450555461226 M633.7344743460417,256.46594266267493 L688.2776462836191,294.87878841150086 M688.2776462836191,294.87878841150086 L726.1091681004036,339.49726780492347 M726.1091681004036,339.49726780492347 L744.9866123383399,387.48088046343764 M744.9866123383399,387.48088046343764 L743.7350544033106,436.25129502126947 M743.7350544033106,436.25129502126947 L722.4912659937982,482.7931282707723 M722.4912659937982,482.7931282707723 L682.6297577803489,524.6153714378015 M682.6297577803489,524.6153714378015 L626.2660274833906,559.1395837210584 M626.2660274833906,559.1395837210584 L556.6820086215157,584.3554283021367 M556.6820086215157,584.3554283021367 L478.18337915977463,598.9080961677828 M478.18337915977463,598.9080961677828 L394.9606500722002,601.8798141733278 M394.9606500722002,601.8798141733278 L312.1566912964918,593.0520656574517 M312.1566912964918,593.0520656574517 L234.22837284440175,572.9929964864859 M234.22837284440175,572.9929964864859 L166.1293009337969,542.8826012122445 M166.10679515311494,543.4450555461226 L111.56388030853122,505.0314611850772 M111.56388030853122,505.0314611850772 L73.88962087710388,460.4998057149933 M73.88962087710388,460.4998057149933 L55.01338766189292,412.51591948309215 M55.01338766189292,412.51591948309215 L56.26626339252107,363.7455974643817 M56.26626339252107,363.7455974643817 L77.35473997890949,317.11679939134046 M77.35473997890949,317.11679939134046 L117.37334539275616,275.3826404006686 M117.37334539275616,275.3826404006686 L173.73713567270897,240.85919864941388 M173.73713567270897,240.85919864941388 L243.16416345117614,215.55663432838628 M243.16416345117614,215.55663432838628 L321.81817244994454,201.09180581127293 M321.81817244994454,201.09180581127293 L405.0395975136198,198.1201814437518 M405.0395975136198,198.1201814437518 L487.8423015731387,206.94765585969435 M487.8423015731387,206.94765585969435 L565.6132665134501,226.9187468017917 M565.6132665134501,226.9187468017917 L633.7119635597337,257.02839389164 M166.1293009337969,542.8826012122445 L111.58638544171117,504.4690072676749 M111.58638544171117,504.4690072676749 L73.91212554718368,459.9373522802489 M73.91212554718368,459.9373522802489 L55.03589207679033,411.9534665684914 M55.03589207679033,411.9534665684914 L56.28876777878031,363.1831450784812 M56.28876777878031,363.1831450784812 L77.37724456144497,316.55434751097346 M77.37724456144497,316.55434751097346 L117.3958503883332,274.82018897269154 M117.3958503883332,274.82018897269154 L173.75964127201587,240.29674759571208 M173.75964127201587,240.29674759571208 L243.1866698085796,214.99418354895897 M243.1866698085796,214.99418354895897 L321.8406796788331,200.52935518859886 M321.8406796788331,200.52935518859886 L405.06210567615926,197.55773085332476 M405.06210567615926,197.55773085332476 L487.86481067491695,206.38520517363213 M487.86481067491695,206.38520517363213 L565.6357765076682,226.3562958992552 M565.6357765076682,226.3562958992552 L633.7344743460417,256.46594266267493" stroke="black"  stroke-width="4"  fill="red"/></svg>