<svg viewBox="0 0 800 800" xmlns="http://www.w3.org/2000/svg"><path d="M625.9804359399714,261.76077605536557 L626.0102060968056,261.20289762060565 M173.83014909364283,538.711041951552 L173.8599145784974,538.1531604112388 M625.9804359399714,261.76077605536557 L680.7192926472053,298.8731089398789 M680.7192926472053,298.8731089398789 L719.1865289257839,341.987802326621 M719.1865289257839,341.987802326621 L738.8938854145817,388.48420664427977 M738.8938854145817,388.48420664427977 L739.1001306213439,435.57255932004773 M739.1001306213439,435.57255932004773 L719.3763993373141,480.6321361824812 M719.3763993373141,480.6321361824812 L681.2152762953192,521.1267159967683 M681.2152762953192,521.1267159967683 L626.8358244569972,554.4355081874819 M626.8358244569972,554.4355081874819 L558.9984153164551,578.8676481226139 M558.9984153164551,578.8676481226139 L482.1088823163882,592.9858960431302 M482.1088823163882,592.9858960431302 L400.4714288027026,595.7757313478214 M400.4714288027026,595.7757313478214 L318.65548858465627,587.3216868818126 M318.65548858465627,587.3216868818126 L241.54286952503026,567.8774062675948 M241.54286952503026,567.8774062675948 L173.83014909364283,538.711041951552 M626.0102060968056,261.20289762060565 L680.7490634531714,298.3152300889924 M680.7490634531714,298.3152300889924 L719.2163002085872,341.4299229922617 M719.2163002085872,341.4299229922617 L738.9236569702625,387.92632678852533 M738.9236569702625,387.92632678852533 L739.1299022347666,435.01467893630615 M739.1299022347666,435.01467893630615 L719.4061707868241,480.0742552934389 M719.4061707868241,480.0742552934389 L681.2450473709032,520.568834653619 M681.2450473709032,520.568834653619 L626.865594970528,553.8776264708722 M626.865594970528,553.8776264708722 L559.0281851096079,578.3097661320353 M559.0281851096079,578.3097661320353 L482.138651275076,592.4280138942268 M482.138651275076,592.4280138942268 L400.5011968621984,595.2178491676605 M400.5011968621984,595.2178491676605 L318.685255728662,586.7638047964138 M318.685255728662,586.7638047964138 L241.57263579312712,567.3195244002127 M241.57263579312712,567.3195244002127 L173.8599145784974,538.1531604112388 M173.83014909364283,538.711041951552 L119.09151930501685,501.5979983199795 M119.09151930501685,501.5979983199795 L80.78125801729038,458.5672949854197 M80.78125801729038,458.5672949854197 L61.07506809197366,412.07063046703115 M61.07506809197366,412.07063046703115 L60.87009776569903,364.9823661584669 M60.87009776569903,364.9823661584669 L80.43873635679483,319.8386667918239 M80.43873635679483,319.8386667918239 L118.75671015866101,279.42927617272653 M118.75671015866101,279.42927617272653 L173.13624059502035,246.12121540975932 M173.13624059502035,246.12121540975932 L240.81693871272728,221.6051866755297 M240.81693871272728,221.6051866755297 L317.86165402829647,207.57189527436276 M317.86165402829647,207.57189527436276 L399.49785144859925,204.7821464479639 M399.49785144859925,204.7821464479639 L481.312569395639,213.23593268224795 M481.312569395639,213.23593268224795 L558.2680954127572,232.59512465594162 M558.2680954127572,232.59512465594162 L625.9804359399714,261.76077605536557 M173.8599145784974,538.1531604112388 L119.12128414073959,501.04011719582195 M119.12128414073959,501.04011719582195 L80.81102237850428,458.00941434377455 M80.81102237850428,458.00941434377455 L61.10483217937872,411.5127503467811 M61.10483217937872,411.5127503467811 L60.8998617939651,364.42448656624765 M60.8998617939651,364.42448656624765 L80.46850054850802,319.28078770585125 M80.46850054850802,319.28078770585125 L118.78647472662851,278.87139753985684 M118.78647472662851,278.87139753985684 L173.1660057241097,245.56333715039364 M173.1660057241097,245.56333715039364 L240.846704560332,221.0473086911079 M240.846704560332,221.0473086911079 L317.8914207126945,207.01401744729083 M317.8914207126945,207.01401744729083 L399.5276190326549,204.22426865217858 M399.5276190326549,204.22426865217858 L481.34233789425343,212.67805479164235 M481.34233789425343,212.67805479164235 L558.2978647854179,232.037246548236 M558.2978647854179,232.037246548236 L626.0102060968056,261.20289762060565" stroke="black"  stroke-width="4"  fill="red"/></svg>